<svg width="180" height="145" viewBox="0 0 180 145" fill="none" xmlns="http://www.w3.org/2000/svg">
<path d="M82.9688 83.655C82.9688 83.655 65.4142 100.857 54.253 143.769C54.253 143.769 55.0386 145.258 56.4473 141.655C56.4473 141.655 75.0042 93.6513 82.9688 83.655Z" fill="#45D2FF"/>
<path d="M75.3024 131.009C75.4379 131.957 76.1422 132.553 76.7653 132.364C77.4155 132.174 77.7406 131.334 77.6051 130.467C77.578 130.251 77.1446 128.327 77.0633 125.456C76.9549 122.584 77.2259 118.737 77.876 114.89C79.1493 107.224 81.479 99.6656 81.4249 99.6656C81.479 99.6656 78.5804 107.115 76.7111 114.863C75.763 118.737 75.1941 122.665 75.0857 125.699C74.9773 128.707 75.2753 130.792 75.3024 131.009Z" fill="#4068D1"/>
<path d="M86.1647 84.9283L87.2484 114.538C87.2484 114.538 88.4674 117.166 89.5781 114.538L86.1647 84.9283Z" fill="#45D2FF"/>
<path d="M102.934 109.96L106.158 134.504C106.158 134.504 107.648 136.562 108.623 134.26L102.934 109.96Z" fill="#45D2FF"/>
<path d="M89.5776 85.5515C89.5776 85.5515 94.6435 94.8164 98.0839 110.908C98.0839 110.908 99.9261 113.78 100.793 111.423C100.766 111.423 98.4903 96.0083 89.5776 85.5515Z" fill="#4068D1"/>
<path d="M98.6821 93.6516C98.6821 93.6516 109.708 104.759 115.614 124.101C115.614 124.101 117.7 127.894 118.566 125.537C118.566 125.537 114.638 106.33 98.6821 93.6516Z" fill="#4068D1"/>
<path d="M90.9611 83.655C90.9611 83.655 102.258 88.8021 114.015 101.86C114.015 101.86 118.566 104.352 116.48 100.288C116.48 100.316 104.452 87.6643 90.9611 83.655Z" fill="#45D2FF"/>
<path d="M89.5791 81.3794C89.5791 81.3794 108.867 79.4289 117.699 85.5513C117.699 85.5513 120.896 85.5242 118.566 83.3028C118.566 83.3028 108.299 77.3158 89.5791 81.3794Z" fill="#4068D1"/>
<path d="M89.5802 78.6164C89.5802 78.6164 95.0254 69.7308 115.37 74.4445C115.37 74.4445 125.8 77.3161 125.8 77.7224C125.8 77.7224 132.762 78.183 132.356 75.3656C132.329 75.203 132.302 75.0405 132.22 74.8509C130.893 71.4646 122.17 69.6224 106.891 70.5435C106.891 70.5164 93.2374 72.7378 89.5802 78.6164Z" fill="#45D2FF"/>
<path d="M89.5778 73.7943C89.5778 73.7943 99.3032 62.335 136.444 48.7086C136.444 48.7086 140.264 45.2681 133.871 46.2434C133.871 46.2434 99.9534 58.6237 89.5778 73.7943Z" fill="#4068D1"/>
<path d="M99.3862 58.1358L120.49 33.3752C120.49 33.3752 122.061 28.9053 118.566 31.0725L99.3862 58.1358Z" fill="#45D2FF"/>
<path fill-rule="evenodd" clip-rule="evenodd" d="M81.2344 37.5203C85.6501 36.2471 82.8056 52.7722 82.9411 51.0384C83.4016 45.8642 78.2545 38.3872 81.2344 37.5203Z" fill="#45D2FF"/>
<path fill-rule="evenodd" clip-rule="evenodd" d="M87.8724 77.2075C87.8724 77.2075 89.0644 63.2018 106.402 35.678C106.402 35.678 108.976 28.3094 103.991 32.2917C103.991 32.3188 94.8888 41.5295 87.8724 77.2075Z" fill="#4068D1"/>
<path fill-rule="evenodd" clip-rule="evenodd" d="M87.8729 70.2996L91.8281 36.6262C91.8281 36.6262 91.2592 30.6393 88.6585 35.2446C88.6315 35.2446 87.2499 66.6695 87.8729 70.2996Z" fill="#45D2FF"/>
<path fill-rule="evenodd" clip-rule="evenodd" d="M86.1641 77.2076C86.1641 77.2076 83.5092 55.2644 78.2808 51.1737C78.2808 51.1737 75.0841 48.6001 76.8179 53.2326C76.7908 53.2326 84.8366 68.9179 86.1641 77.2076Z" fill="#4068D1"/>
<path fill-rule="evenodd" clip-rule="evenodd" d="M84.2969 77.2076C84.2969 77.2076 81.8046 64.1229 68.6116 51.8781C68.6116 51.8781 62.6246 49.5754 63.4915 54.1537C63.4915 54.1808 82.4547 69.5139 84.2969 77.2076Z" fill="#45D2FF"/>
<path fill-rule="evenodd" clip-rule="evenodd" d="M82.9688 79.3748C82.9688 79.3748 68.8547 61.3326 41.981 51.9052C41.981 51.9052 31.3074 49.6025 34.3144 54.1808C34.3415 54.1808 67.2563 65.0982 82.9688 79.3748Z" fill="#4068D1"/>
<path fill-rule="evenodd" clip-rule="evenodd" d="M81.209 79.3747C81.209 79.3747 75.6284 68.2406 27.1095 64.2583C27.1095 64.2583 6.46664 63.0663 14.7021 69.3784C14.7021 69.3784 70.9146 69.0533 81.209 79.3747Z" fill="#45D2FF"/>
<path fill-rule="evenodd" clip-rule="evenodd" d="M77.5234 79.3747C77.5234 79.3747 61.6756 75.2299 46.9926 87.6915C46.9926 87.6915 41.4391 88.2875 46.9926 83.6821C46.9926 83.655 59.2374 73.2794 77.5234 79.3747Z" fill="#4068D1"/>
<path fill-rule="evenodd" clip-rule="evenodd" d="M85.1621 81.2168C85.1621 81.2168 65.3049 81.7045 52.7078 103.16C52.7078 103.16 51.7597 107.928 56.2838 105.056C56.3109 105.083 76.1681 81.1626 85.1621 81.2168Z" fill="#4068D1"/>
<path fill-rule="evenodd" clip-rule="evenodd" d="M63.3555 84.3052C63.3555 84.3052 55.6889 87.0685 57.2872 89.8317C57.2872 89.8317 59.4545 92.5949 63.3555 84.3052Z" fill="#45D2FF"/>
<path d="M5.46355 88.1519C4.4612 88.179 4.10902 89.8315 4.62374 90.7255C5.08427 91.6195 5.8428 91.5924 6.87223 91.5653C7.87458 91.5382 8.22676 89.8857 7.71205 88.9917C7.2786 88.0706 6.49298 88.0977 5.46355 88.1519Z" fill="#F9CA23"/>
<path d="M4.78766 100.18C4.27294 99.6928 3.08096 100.018 2.91842 101.372C2.83715 102.646 3.64987 103.133 4.38131 103.025C5.13984 102.89 5.62746 102.104 5.68164 101.725C5.65455 101.427 5.41074 100.722 4.78766 100.18Z" fill="#F9CA23"/>
<path d="M1.42681 106.276C0.289012 107.305 -0.198615 108.605 0.072289 109.581C0.370283 110.664 1.69771 111.748 3.10641 111.477C4.51511 111.206 5.54455 109.824 5.05692 107.955C4.48803 105.978 2.48333 105.3 1.42681 106.276Z" fill="#F9CA23"/>
<path d="M3.8104 115.947C3.10605 116.082 2.64553 116.76 2.75389 117.518C2.86225 118.25 3.5395 118.764 4.21676 118.629C4.92111 118.493 5.38165 117.816 5.27329 117.058C5.13784 116.326 4.48766 115.812 3.8104 115.947Z" fill="#F9CA23"/>
<path d="M23.0465 79.5103C21.8816 79.727 21.1231 80.8919 21.3128 82.111C21.5024 83.3301 22.586 84.1699 23.7509 83.9802C24.9158 83.7635 25.6743 82.5986 25.4847 81.3796C25.295 80.1334 24.2114 79.3207 23.0465 79.5103Z" fill="#F9CA23"/>
<path d="M21.9343 88.8834C21.2029 88.8293 20.8507 90.2921 21.8802 91.159C22.9638 91.9447 24.1558 91.1049 23.8849 90.3734C23.6139 89.5878 23.5598 88.9918 23.3972 88.8834C23.2889 88.748 22.72 88.8834 21.9343 88.8834Z" fill="#F9CA23"/>
<path d="M160.529 94.8435C161.423 94.3288 161.017 92.6762 160.177 92.1344C159.391 91.5385 158.714 91.9448 157.82 92.4866C156.926 93.0013 157.332 94.6538 158.172 95.1956C158.958 95.7645 159.662 95.3582 160.529 94.8435Z" fill="#F9CA23"/>
<path d="M154.839 88.775C155.516 88.9647 156.437 88.0978 156.004 86.8245C155.543 85.6597 154.595 85.6055 153.999 86.066C153.376 86.5536 153.294 87.5018 153.403 87.8269C153.538 88.0707 154.053 88.5854 154.839 88.775Z" fill="#F9CA23"/>
<path d="M150.451 84.2239C151.02 82.761 150.912 81.3523 150.262 80.6209C149.53 79.7811 147.905 79.456 146.74 80.3771C145.602 81.2981 145.277 83.0319 146.496 84.4677C147.851 85.9577 149.909 85.6055 150.451 84.2239Z" fill="#F9CA23"/>
<path d="M142.866 79.077C143.435 78.6436 143.543 77.7767 143.137 77.1807C142.73 76.5847 141.918 76.4492 141.349 76.8827C140.78 77.3161 140.672 78.183 141.078 78.779C141.511 79.375 142.297 79.5105 142.866 79.077Z" fill="#F9CA23"/>
<path d="M134.737 95.1144C135.686 94.3829 135.875 92.9472 135.198 91.9448C134.494 90.9425 133.166 90.7257 132.245 91.4572C131.297 92.1886 131.107 93.6244 131.785 94.6268C132.462 95.6291 133.789 95.8458 134.737 95.1144Z" fill="#F9CA23"/>
<path d="M131.732 86.2015C132.41 85.9035 132.112 84.4135 130.811 84.1697C129.511 84.0072 128.807 85.3346 129.348 85.8222C129.917 86.3911 130.215 86.9058 130.405 86.9058C130.595 86.96 131.055 86.5808 131.732 86.2015Z" fill="#F9CA23"/>
<path d="M82.6722 5.06582C81.9678 4.30729 80.5862 5.14709 80.3153 6.14944C79.9902 7.12469 80.5591 7.69358 81.2635 8.4792C81.9678 9.23774 83.3494 8.39793 83.6203 7.39559C83.9454 6.42034 83.4036 5.82435 82.6722 5.06582Z" fill="#F9CA23"/>
<path d="M73.9217 12.6783C73.8946 11.9198 72.8923 11.2154 71.8358 12.0011C70.9147 12.7867 71.1043 13.7619 71.7003 14.2496C72.2963 14.7643 73.1903 14.6017 73.4612 14.385C73.6508 14.1954 73.9759 13.5452 73.9217 12.6783Z" fill="#F9CA23"/>
<path d="M67.4191 14.1952C65.9291 14.0056 64.71 14.4932 64.2224 15.3601C63.6535 16.3354 63.8161 18.0962 64.981 19.0173C66.1187 19.9384 67.7713 19.8029 68.7465 18.1504C69.6947 16.3895 68.8278 14.3578 67.4191 14.1952Z" fill="#F9CA23"/>
<path d="M62.3811 22.6207C61.8393 22.1602 61.0265 22.2685 60.5931 22.8645C60.1597 23.4605 60.268 24.3003 60.8098 24.7608C61.3787 25.2214 62.1643 25.113 62.5978 24.517C63.0312 23.921 62.9229 23.0812 62.3811 22.6207Z" fill="#F9CA23"/>
<path d="M100.578 12.9489C99.6574 12.1904 98.33 12.353 97.5986 13.3553C96.8671 14.3306 97.0567 15.7664 97.9778 16.5249C98.8989 17.2834 100.226 17.1209 100.958 16.1185C101.662 15.1433 101.5 13.7346 100.578 12.9489Z" fill="#F9CA23"/>
<path d="M93.3439 18.4484C92.8834 17.8524 91.6372 18.5568 91.7456 19.9384C91.9352 21.32 93.3439 21.6722 93.6419 20.9678C93.9941 20.2364 94.3734 19.7758 94.3463 19.5862C94.3463 19.3966 93.8857 19.0715 93.3439 18.4484Z" fill="#F9CA23"/>
<path d="M157.603 65.965C158.768 65.5857 159.445 64.2854 159.12 63.0392C158.768 61.7931 157.549 61.0616 156.357 61.4409C155.192 61.8202 154.514 63.1205 154.839 64.3667C155.192 65.6128 156.411 66.3443 157.603 65.965Z" fill="#4068D1"/>
<path d="M153.701 52.5823L153.945 54.3974L152.753 55.7519L154.27 56.7001L154.514 58.5151L156.139 57.865L157.629 58.786L158.144 57.0252L159.77 56.3479L158.794 54.8038L159.309 53.0429L157.575 52.9074L156.6 51.3633L155.435 52.7178L153.701 52.5823Z" fill="#4068D1"/>
<path d="M146.66 58.8134L146.849 60.2492L145.928 61.3057L147.093 62.0372L147.283 63.4459L148.556 62.9311L149.721 63.6626L150.127 62.281L151.4 61.7663L150.642 60.5743L151.048 59.1927L149.694 59.0843L148.935 57.8923L148.014 58.9218L146.66 58.8134Z" fill="#4068D1"/>
<path d="M87.7102 23.5147C87.7373 22.5395 87.0329 21.7268 86.1119 21.6997C85.2179 21.6726 84.4593 22.4311 84.4052 23.3793C84.3781 24.3545 85.0824 25.1672 86.0035 25.1943C86.9246 25.2485 87.6831 24.49 87.7102 23.5147Z" fill="#4068D1"/>
<path d="M77.9841 23.325L79.2303 23.5688L79.8534 24.7608L80.8286 23.8668L82.0748 24.0836L82.0206 22.729L82.9688 21.835L81.9393 21.0223L81.8851 19.6678L80.639 20.02L79.5825 19.2344L79.0948 20.4805L77.8487 20.8598L78.4717 22.0518L77.9841 23.325Z" fill="#4068D1"/>
<path d="M80.4486 30.0433L81.4509 30.233L81.9115 31.1541L82.67 30.4497L83.6724 30.6393L83.6182 29.5828L84.3496 28.8785L83.5369 28.2554L83.5098 27.1718L82.5346 27.4698L81.7218 26.8467L81.3426 27.8219L80.3673 28.1199L80.855 29.0681L80.4486 30.0433Z" fill="#4068D1"/>
<path d="M49.4582 101.779C49.4853 100.803 48.781 99.9907 47.8599 99.9636C46.9659 99.9365 46.2074 100.695 46.1532 101.643C46.1261 102.618 46.8305 103.431 47.7515 103.458C48.6726 103.512 49.4311 102.754 49.4582 101.779Z" fill="#4068D1"/>
<path d="M39.7051 101.589L40.9783 101.833L41.6014 103.025L42.5496 102.131L43.8228 102.375L43.7415 100.993L44.7168 100.099L43.6874 99.2863L43.6061 97.9317L42.3599 98.2839L41.3305 97.4983L40.8158 98.7444L39.5967 99.1237L40.2198 100.343L39.7051 101.589Z" fill="#4068D1"/>
<path d="M42.1966 108.308L43.1719 108.497L43.6595 109.418L44.418 108.714L45.3933 108.903L45.3391 107.847L46.0977 107.143L45.2849 106.52L45.2308 105.436L44.2555 105.734L43.4428 105.111L43.0635 106.086L42.1154 106.384L42.5759 107.332L42.1966 108.308Z" fill="#4068D1"/>
<path d="M173.262 60.7095L174.589 63.0122L172.097 63.6623L174.589 64.2854L173.262 66.6152L175.429 65.2065L176.025 67.8342L176.621 65.2065L178.788 66.6152L177.488 64.2854L179.953 63.6623L177.488 63.0122L178.788 60.7095L176.621 62.1182L176.025 59.4904L175.429 62.1182L173.262 60.7095Z" fill="#C930B1"/>
<path d="M131.514 13.9245L132.841 16.2542L130.349 16.8773L132.841 17.5275L131.514 19.8302L133.681 18.4215L134.277 21.0492L134.873 18.4215L137.04 19.8302L135.74 17.5275L138.205 16.8773L135.74 16.2542L137.04 13.9245L134.873 15.3331L134.277 12.7054L133.681 15.3331L131.514 13.9245Z" fill="#C930B1"/>
<path d="M117.021 2.35686L112.795 0L113.608 5.01172L110.167 8.56056L114.908 9.29199L117.021 13.8703L119.134 9.29199L123.875 8.56056L120.435 5.01172L121.247 0L117.021 2.35686Z" fill="#C930B1"/>
</svg>
