<svg width="180" height="145" viewBox="0 0 180 145" fill="none" xmlns="http://www.w3.org/2000/svg">
<path d="M96.9844 83.655C96.9844 83.655 114.539 100.857 125.7 143.769C125.7 143.769 124.915 145.258 123.506 141.655C123.506 141.655 104.949 93.6513 96.9844 83.655Z" fill="#FFA216"/>
<path d="M104.651 131.009C104.515 131.957 103.811 132.553 103.188 132.364C102.538 132.174 102.213 131.334 102.348 130.467C102.375 130.251 102.809 128.327 102.89 125.456C102.998 122.584 102.727 118.737 102.077 114.89C100.804 107.224 98.4741 99.6656 98.5283 99.6656C98.4741 99.6656 101.373 107.115 103.242 114.863C104.19 118.737 104.759 122.665 104.867 125.699C104.976 128.707 104.678 130.792 104.651 131.009Z" fill="#F03636"/>
<path d="M93.7884 84.9283L92.7048 114.538C92.7048 114.538 91.4857 117.166 90.375 114.538L93.7884 84.9283Z" fill="#FFA216"/>
<path d="M77.0191 109.96L73.7953 134.504C73.7953 134.504 72.3053 136.562 71.3301 134.26L77.0191 109.96Z" fill="#FFA216"/>
<path d="M90.3756 85.5515C90.3756 85.5515 85.3097 94.8164 81.8692 110.908C81.8692 110.908 80.027 113.78 79.1602 111.423C79.1872 111.423 81.4628 96.0083 90.3756 85.5515Z" fill="#F03636"/>
<path d="M81.2711 93.6516C81.2711 93.6516 70.2453 104.759 64.3396 124.101C64.3396 124.101 62.2536 127.894 61.3867 125.537C61.3867 125.537 65.3148 106.33 81.2711 93.6516Z" fill="#F03636"/>
<path d="M88.992 83.655C88.992 83.655 77.6953 88.8021 65.9381 101.86C65.9381 101.86 61.3869 104.352 63.4729 100.288C63.4729 100.316 75.501 87.6643 88.992 83.655Z" fill="#FFA216"/>
<path d="M90.3741 81.3794C90.3741 81.3794 71.0857 79.4289 62.2543 85.5513C62.2543 85.5513 59.0576 85.5242 61.3874 83.3028C61.3874 83.3028 71.6546 77.3158 90.3741 81.3794Z" fill="#F03636"/>
<path d="M90.3729 78.6164C90.3729 78.6164 84.9277 69.7308 64.5829 74.4445C64.5829 74.4445 54.1531 77.3161 54.1531 77.7224C54.1531 77.7224 47.1908 78.183 47.5972 75.3656C47.6243 75.203 47.6514 75.0405 47.7327 74.8509C49.0601 71.4646 57.7832 69.6224 73.0622 70.5435C73.0622 70.5164 86.7157 72.7378 90.3729 78.6164Z" fill="#FFA216"/>
<path d="M90.3754 73.7943C90.3754 73.7943 80.6499 62.335 43.509 48.7086C43.509 48.7086 39.6893 45.2681 46.0826 46.2434C46.0826 46.2434 79.9998 58.6237 90.3754 73.7943Z" fill="#F03636"/>
<path d="M80.567 58.1358L59.4636 33.3752C59.4636 33.3752 57.8923 28.9053 61.387 31.0725L80.567 58.1358Z" fill="#FFA216"/>
<path fill-rule="evenodd" clip-rule="evenodd" d="M98.7187 37.5203C94.303 36.2471 97.1475 52.7722 97.012 51.0384C96.5515 45.8642 101.699 38.3872 98.7187 37.5203Z" fill="#FFA216"/>
<path fill-rule="evenodd" clip-rule="evenodd" d="M92.0807 77.2075C92.0807 77.2075 90.8888 63.2018 73.5509 35.678C73.5509 35.678 70.9773 28.3094 75.962 32.2917C75.962 32.3188 85.0643 41.5295 92.0807 77.2075Z" fill="#F03636"/>
<path fill-rule="evenodd" clip-rule="evenodd" d="M92.0802 70.2996L88.125 36.6262C88.125 36.6262 88.6939 30.6393 91.2946 35.2446C91.3217 35.2446 92.7033 66.6695 92.0802 70.2996Z" fill="#FFA216"/>
<path fill-rule="evenodd" clip-rule="evenodd" d="M93.7891 77.2076C93.7891 77.2076 96.4439 55.2644 101.672 51.1737C101.672 51.1737 104.869 48.6001 103.135 53.2326C103.162 53.2326 95.1165 68.9179 93.7891 77.2076Z" fill="#F03636"/>
<path fill-rule="evenodd" clip-rule="evenodd" d="M95.6562 77.2076C95.6562 77.2076 98.1486 64.1229 111.342 51.8781C111.342 51.8781 117.329 49.5754 116.462 54.1536C116.462 54.1807 97.4984 69.5139 95.6562 77.2076Z" fill="#FFA216"/>
<path fill-rule="evenodd" clip-rule="evenodd" d="M96.9844 79.3748C96.9844 79.3748 111.098 61.3326 137.972 51.9052C137.972 51.9052 148.646 49.6025 145.639 54.1808C145.612 54.1808 112.697 65.0982 96.9844 79.3748Z" fill="#F03636"/>
<path fill-rule="evenodd" clip-rule="evenodd" d="M98.7441 79.3747C98.7441 79.3747 104.325 68.2406 152.844 64.2583C152.844 64.2583 173.486 63.0663 165.251 69.3784C165.251 69.3784 109.038 69.0533 98.7441 79.3747Z" fill="#FFA216"/>
<path fill-rule="evenodd" clip-rule="evenodd" d="M102.43 79.3747C102.43 79.3747 118.278 75.2299 132.961 87.6914C132.961 87.6914 138.514 88.2874 132.961 83.6821C132.961 83.655 120.716 73.2794 102.43 79.3747Z" fill="#F03636"/>
<path fill-rule="evenodd" clip-rule="evenodd" d="M94.791 81.2168C94.791 81.2168 114.648 81.7045 127.245 103.16C127.245 103.16 128.193 107.928 123.669 105.056C123.642 105.083 103.785 81.1626 94.791 81.2168Z" fill="#F03636"/>
<path fill-rule="evenodd" clip-rule="evenodd" d="M116.598 84.3052C116.598 84.3052 124.264 87.0685 122.666 89.8317C122.666 89.8317 120.499 92.5949 116.598 84.3052Z" fill="#FFA216"/>
<path d="M174.49 88.1519C175.492 88.179 175.844 89.8315 175.329 90.7255C174.869 91.6195 174.11 91.5924 173.081 91.5653C172.079 91.5382 171.726 89.8857 172.241 88.9917C172.675 88.0706 173.46 88.0977 174.49 88.1519Z" fill="#ADF058"/>
<path d="M175.165 100.18C175.68 99.6926 176.872 100.018 177.035 101.372C177.116 102.645 176.303 103.133 175.572 103.025C174.813 102.889 174.326 102.104 174.271 101.724C174.299 101.426 174.542 100.722 175.165 100.18Z" fill="#ADF058"/>
<path d="M178.526 106.276C179.664 107.305 180.152 108.605 179.881 109.581C179.583 110.664 178.255 111.748 176.847 111.477C175.438 111.206 174.409 109.824 174.896 107.955C175.465 105.978 177.47 105.3 178.526 106.276Z" fill="#ADF058"/>
<path d="M176.143 115.947C176.847 116.082 177.308 116.76 177.199 117.518C177.091 118.25 176.414 118.764 175.736 118.629C175.032 118.493 174.571 117.816 174.68 117.058C174.815 116.326 175.465 115.812 176.143 115.947Z" fill="#ADF058"/>
<path d="M156.907 79.5103C158.071 79.727 158.83 80.8919 158.64 82.111C158.451 83.3301 157.367 84.1699 156.202 83.9802C155.037 83.7635 154.279 82.5986 154.468 81.3796C154.658 80.1334 155.742 79.3207 156.907 79.5103Z" fill="#ADF058"/>
<path d="M158.019 88.8834C158.75 88.8293 159.102 90.2921 158.073 91.159C156.989 91.9447 155.797 91.1049 156.068 90.3734C156.339 89.5878 156.393 88.9918 156.556 88.8834C156.664 88.748 157.233 88.8834 158.019 88.8834Z" fill="#ADF058"/>
<path d="M19.4241 94.8435C18.5301 94.3288 18.9364 92.6762 19.7762 92.1344C20.5619 91.5385 21.2391 91.9448 22.1331 92.4866C23.0271 93.0013 22.6207 94.6538 21.7809 95.1956C20.9953 95.7645 20.291 95.3582 19.4241 94.8435Z" fill="#ADF058"/>
<path d="M25.1145 88.775C24.4372 88.9647 23.5162 88.0978 23.9496 86.8245C24.4102 85.6597 25.3583 85.6055 25.9543 86.066C26.5774 86.5536 26.6587 87.5018 26.5503 87.8269C26.4148 88.0707 25.9001 88.5854 25.1145 88.775Z" fill="#ADF058"/>
<path d="M29.5019 84.2239C28.933 82.761 29.0414 81.3523 29.6916 80.6209C30.423 79.7811 32.0484 79.456 33.2133 80.3771C34.3511 81.2981 34.6762 83.0319 33.4571 84.4677C32.1026 85.9577 30.0438 85.6055 29.5019 84.2239Z" fill="#ADF058"/>
<path d="M37.0872 79.0768C36.5183 78.6433 36.41 77.7764 36.8163 77.1804C37.2227 76.5845 38.0354 76.449 38.6043 76.8824C39.1732 77.3159 39.2815 78.1828 38.8752 78.7788C38.4417 79.3748 37.6561 79.5102 37.0872 79.0768Z" fill="#ADF058"/>
<path d="M45.2156 95.1141C44.2675 94.3827 44.0778 92.9469 44.7551 91.9446C45.4595 90.9422 46.7869 90.7255 47.708 91.4569C48.6561 92.1884 48.8458 93.6242 48.1685 94.6265C47.4912 95.6289 46.1638 95.8456 45.2156 95.1141Z" fill="#ADF058"/>
<path d="M48.2208 86.2012C47.5435 85.9032 47.8415 84.4133 49.1418 84.1695C50.4422 84.0069 51.1465 85.3344 50.6047 85.822C50.0358 86.3909 49.7378 86.9056 49.5482 86.9056C49.3585 86.9598 48.898 86.5805 48.2208 86.2012Z" fill="#ADF058"/>
<path d="M97.281 5.06606C97.9853 4.30753 99.3669 5.14734 99.6378 6.14968C99.9629 7.12493 99.394 7.69383 98.6897 8.47945C97.9853 9.23798 96.6037 8.39818 96.3328 7.39583C96.0077 6.42058 96.5495 5.82459 97.281 5.06606Z" fill="#ADF058"/>
<path d="M106.031 12.6783C106.058 11.9198 107.061 11.2154 108.117 12.0011C109.038 12.7867 108.849 13.7619 108.253 14.2496C107.657 14.7643 106.763 14.6017 106.492 14.385C106.302 14.1954 105.977 13.5452 106.031 12.6783Z" fill="#ADF058"/>
<path d="M112.534 14.1955C114.024 14.0058 115.243 14.4935 115.731 15.3604C116.3 16.3356 116.137 18.0965 114.972 19.0176C113.834 19.9386 112.182 19.8032 111.207 18.1507C110.258 16.3898 111.125 14.358 112.534 14.1955Z" fill="#ADF058"/>
<path d="M117.572 22.6207C118.114 22.1602 118.927 22.2685 119.36 22.8645C119.793 23.4605 119.685 24.3003 119.143 24.7608C118.574 25.2214 117.789 25.113 117.355 24.517C116.922 23.921 117.03 23.0812 117.572 22.6207Z" fill="#ADF058"/>
<path d="M79.3746 12.9489C80.2957 12.1904 81.6231 12.353 82.3546 13.3553C83.086 14.3306 82.8964 15.7664 81.9753 16.5249C81.0542 17.2834 79.7268 17.1209 78.9954 16.1185C78.291 15.1433 78.4536 13.7346 79.3746 12.9489Z" fill="#ADF058"/>
<path d="M86.6092 18.4484C87.0697 17.8524 88.3159 18.5568 88.2075 19.9384C88.0179 21.32 86.6092 21.6722 86.3112 20.9678C85.959 20.2364 85.5797 19.7758 85.6068 19.5862C85.6068 19.3966 86.0674 19.0715 86.6092 18.4484Z" fill="#ADF058"/>
<path d="M22.3504 65.9652C21.1855 65.586 20.5083 64.2856 20.8334 63.0395C21.1855 61.7933 22.4046 61.0619 23.5966 61.4411C24.7615 61.8204 25.4387 63.1207 25.1137 64.3669C24.7615 65.6131 23.5424 66.3445 22.3504 65.9652Z" fill="#F03636"/>
<path d="M26.2518 52.5823L26.008 54.3974L27.2 55.7519L25.6829 56.7001L25.4391 58.5151L23.8137 57.865L22.3237 58.786L21.809 57.0252L20.1836 56.3479L21.1588 54.8038L20.6441 53.0429L22.3779 52.9074L23.3532 51.3633L24.5181 52.7178L26.2518 52.5823Z" fill="#F03636"/>
<path d="M33.2935 58.8132L33.1039 60.249L34.025 61.3055L32.8601 62.0369L32.6705 63.4456L31.3972 62.9309L30.2323 63.6623L29.826 62.2807L28.5527 61.766L29.3113 60.574L28.9049 59.1924L30.2594 59.0841L31.018 57.8921L31.939 58.9215L33.2935 58.8132Z" fill="#F03636"/>
<path d="M92.2429 23.5145C92.2159 22.5392 92.9202 21.7265 93.8413 21.6994C94.7353 21.6723 95.4938 22.4309 95.548 23.379C95.5751 24.3543 94.8707 25.167 93.9496 25.1941C93.0286 25.2483 92.27 24.4897 92.2429 23.5145Z" fill="#F03636"/>
<path d="M101.969 23.325L100.723 23.5688L100.1 24.7608L99.1245 23.8668L97.8784 24.0836L97.9325 22.729L96.9844 21.835L98.0138 21.0223L98.068 19.6678L99.3141 20.02L100.371 19.2344L100.858 20.4805L102.104 20.8598L101.481 22.0518L101.969 23.325Z" fill="#F03636"/>
<path d="M99.5045 30.0433L98.5022 30.233L98.0416 31.1541L97.2831 30.4497L96.2808 30.6393L96.335 29.5828L95.6035 28.8785L96.4162 28.2554L96.4433 27.1718L97.4186 27.4698L98.2313 26.8467L98.6105 27.8219L99.5858 28.1199L99.0982 29.0681L99.5045 30.0433Z" fill="#F03636"/>
<path d="M130.495 101.779C130.468 100.803 131.172 99.9907 132.093 99.9636C132.987 99.9365 133.746 100.695 133.8 101.643C133.827 102.618 133.123 103.431 132.202 103.458C131.281 103.512 130.522 102.754 130.495 101.779Z" fill="#F03636"/>
<path d="M140.248 101.589L138.975 101.833L138.352 103.025L137.404 102.131L136.13 102.375L136.212 100.993L135.236 100.099L136.266 99.2865L136.347 97.932L137.593 98.2842L138.623 97.4985L139.137 98.7447L140.356 99.124L139.733 100.343L140.248 101.589Z" fill="#F03636"/>
<path d="M137.756 108.308L136.781 108.497L136.294 109.418L135.535 108.714L134.56 108.903L134.614 107.847L133.855 107.143L134.668 106.52L134.722 105.436L135.698 105.734L136.51 105.111L136.89 106.086L137.838 106.384L137.377 107.332L137.756 108.308Z" fill="#F03636"/>
<path d="M6.69132 60.7095L5.3639 63.0122L7.85621 63.6624L5.3639 64.2854L6.69132 66.6152L4.52409 65.2065L3.9281 67.8343L3.33212 65.2065L1.16489 66.6152L2.46522 64.2854L0 63.6624L2.46522 63.0122L1.16489 60.7095L3.33212 62.1182L3.9281 59.4904L4.52409 62.1182L6.69132 60.7095Z" fill="#58C930"/>
<path d="M48.4394 13.9245L47.1119 16.2542L49.6043 16.8773L47.1119 17.5275L48.4394 19.8302L46.2721 18.4215L45.6762 21.0492L45.0802 18.4215L42.9129 19.8302L44.2133 17.5275L41.748 16.8773L44.2133 16.2542L42.9129 13.9245L45.0802 15.3331L45.6762 12.7054L46.2721 15.3331L48.4394 13.9245Z" fill="#58C930"/>
<path d="M62.932 2.35686L67.1581 0L66.3454 5.01172L69.7859 8.56056L65.045 9.29199L62.932 13.8703L60.8189 9.29199L56.0781 8.56056L59.5186 5.01172L58.7059 0L62.932 2.35686Z" fill="#58C930"/>
</svg>
