<svg width="80" height="100" viewBox="0 0 80 100" fill="none" xmlns="http://www.w3.org/2000/svg">
<path d="M27.4005 9.11206C28.166 7.10254 29.2186 5.25251 30.7816 3.75335C37.0334 -2.33899 47.3681 -0.80793 51.6104 6.84737C54.8001 12.6526 58.1812 18.3303 61.4666 24.0718C66.9529 33.609 72.503 43.1462 77.9255 52.7154C82.4868 60.7215 77.5427 70.8329 68.4839 72.2045C62.9339 73.0338 57.7346 70.482 54.8639 65.5061C50.0474 57.1172 45.1991 48.7282 40.3826 40.3712C40.2869 40.1798 40.1593 40.0203 40.0318 39.8608C39.5214 39.4462 39.2981 38.8401 38.9791 38.2979C36.842 34.534 34.6411 30.8021 32.504 27.0701C31.1325 24.6459 29.6971 22.2537 28.3255 19.8295C27.0815 17.6605 26.5074 15.3001 26.5712 12.8121C26.6669 11.5362 26.8264 10.2604 27.4005 9.11206Z" fill="#3C8BD9"/>
<path d="M27.4 9.11206C27.113 10.2604 26.8578 11.4086 26.794 12.6207C26.6983 15.3001 27.3681 17.7881 28.7078 20.1166C32.2165 26.1451 35.7252 32.2055 39.202 38.266C39.5209 38.8082 39.7761 39.3505 40.0951 39.8608C38.1813 43.1781 36.2674 46.4635 34.3217 49.7808C31.6424 54.4059 28.963 59.0629 26.2517 63.688C26.1242 63.688 26.0923 63.6242 26.0604 63.5285C26.0285 63.2733 26.1242 63.05 26.188 62.7948C27.4957 58.0103 26.4112 53.768 23.1258 50.1317C21.1163 47.9308 18.5646 46.6868 15.63 46.2722C11.8024 45.7299 8.42128 46.7187 5.39106 49.111C4.84881 49.5257 4.49794 50.1317 3.86 50.4507C3.73241 50.4507 3.66862 50.3869 3.63672 50.2912C5.16778 47.6437 6.66694 44.9963 8.198 42.3488C14.5136 31.3762 20.8292 20.4036 27.1768 9.46293C27.2406 9.33534 27.3362 9.23965 27.4 9.11206Z" fill="#FABC04"/>
<path d="M3.76386 50.387C4.3699 49.8448 4.94405 49.2706 5.58199 48.7603C13.333 42.636 24.9754 47.0697 26.666 56.7664C27.0806 59.0949 26.8573 61.3277 26.1556 63.5605C26.1237 63.7519 26.0918 63.9114 26.028 64.1028C25.7409 64.6131 25.4858 65.1554 25.1668 65.6657C22.328 70.3546 18.1494 72.6831 12.6631 72.3322C6.37942 71.8856 1.43537 67.1649 0.574148 60.9131C0.159486 57.8828 0.76553 55.044 2.32849 52.4284C2.64746 51.8543 3.03022 51.3439 3.38109 50.7698C3.54058 50.6422 3.47678 50.387 3.76386 50.387Z" fill="#34A852"/>
<path d="M3.76391 50.3868C3.63637 50.5144 3.63637 50.7376 3.41316 50.7695C3.38127 50.5463 3.50882 50.4187 3.63637 50.2593L3.76391 50.3868Z" fill="#FABC04"/>
<path d="M26.0274 64.1026C25.8999 63.8794 26.0274 63.72 26.155 63.5605C26.1869 63.5924 26.2506 63.6562 26.2825 63.6881L26.0274 64.1026Z" fill="#E1C025"/>
<path d="M6.60269 83.0493C2.99833 83.0493 0 85.952 0 89.5244C0 93.0969 2.99833 95.9676 6.60269 95.9676C8.54842 95.9676 9.98378 95.3297 11.1321 94.1495C12.3123 92.9693 12.6631 91.3426 12.6631 90.0348C12.6631 89.6201 12.6312 89.2373 12.5674 88.9184H6.60269V90.6727H10.845C10.7174 91.6615 10.3984 92.3952 9.88809 92.9055C9.28205 93.5116 8.29324 94.2133 6.60269 94.2133C3.98713 94.2133 1.94572 92.1081 1.94572 89.5244C1.94572 86.9408 3.98713 84.8356 6.60269 84.8356C8.00617 84.8356 9.05877 85.3778 9.7924 86.1114L11.0364 84.8675C9.98378 83.8467 8.58031 83.0493 6.60269 83.0493ZM17.4158 87.6744C15.1511 87.6744 13.2692 89.4287 13.2692 91.8848C13.2692 94.309 15.1192 96.0952 17.4158 96.0952C19.7124 96.0952 21.5624 94.309 21.5624 91.8848C21.5624 89.4606 19.6805 87.6744 17.4158 87.6744ZM17.4158 94.4366C16.1718 94.4366 15.0873 93.384 15.0873 91.8848C15.0873 90.3856 16.1718 89.333 17.4158 89.333C18.6598 89.333 19.7443 90.3538 19.7443 91.8848C19.7443 93.384 18.6598 94.4366 17.4158 94.4366ZM26.4108 87.6744C24.1142 87.6744 22.2642 89.4287 22.2642 91.8848C22.2642 94.309 24.1142 96.0952 26.4108 96.0952C28.6755 96.0952 30.5574 94.309 30.5574 91.8848C30.5574 89.4606 28.7074 87.6744 26.4108 87.6744ZM26.4108 94.4366C25.1668 94.4366 24.0823 93.384 24.0823 91.8848C24.0823 90.3856 25.1668 89.333 26.4108 89.333C27.6548 89.333 28.7393 90.3538 28.7393 91.8848C28.7393 93.384 27.6867 94.4366 26.4108 94.4366ZM35.3739 87.6744C33.3005 87.6744 31.4186 89.4925 31.4186 91.8529C31.4186 94.1814 33.3005 95.9995 35.3739 95.9995C36.3627 95.9995 37.1282 95.553 37.5429 95.0426H37.6067V95.6487C37.6067 97.2435 36.7773 98.1047 35.4058 98.1047C34.2894 98.1047 33.6195 97.3073 33.3324 96.6375L31.7376 97.3073C32.1841 98.4237 33.3962 99.7634 35.4058 99.7634C37.5429 99.7634 39.3291 98.4875 39.3291 95.4254V87.9615H37.6067V88.6313H37.5429C37.1282 88.121 36.3627 87.6744 35.3739 87.6744ZM35.5333 94.3728C34.2894 94.3728 33.2368 93.3202 33.2368 91.8529C33.2368 90.3856 34.2894 89.3011 35.5333 89.3011C36.7773 89.3011 37.7342 90.3856 37.7342 91.8529C37.7342 93.3202 36.7773 94.3728 35.5333 94.3728ZM40.6688 83.5597H42.4869V95.8719H40.6688V83.5597V83.5597ZM47.3672 87.6744C45.1982 87.6744 43.38 89.3649 43.38 91.8848C43.38 94.2452 45.1663 96.0952 47.5585 96.0952C49.5043 96.0952 50.6207 94.915 51.0672 94.2452L49.6318 93.2883C49.1534 93.99 48.4836 94.4366 47.5585 94.4366C46.6016 94.4366 45.9318 94.0219 45.5171 93.1607L51.1629 90.8322L50.9715 90.3537C50.6207 89.4287 49.5362 87.6744 47.3672 87.6744ZM45.1982 91.7572C45.1344 90.1305 46.474 89.3011 47.3991 89.3011C48.1327 89.3011 48.7706 89.652 48.962 90.1943L45.1982 91.7572Z" fill="#757575"/>
<path d="M54.3516 95.6807L58.562 84.4849H60.1887L64.3991 95.6807H62.8043L61.7198 92.6505H57.0309L55.9464 95.6807H54.3516ZM57.5094 91.3108H61.2413L59.4232 86.2711H59.3594L57.5094 91.3108Z" fill="#757575"/>
<path d="M65.8671 94.7557C65.1653 93.9583 64.8145 93.0014 64.8145 91.8531C64.8145 90.7367 65.1653 89.7798 65.8671 88.9505C66.6007 88.153 67.43 87.7703 68.4507 87.7703C69.0249 87.7703 69.5352 87.8978 69.9818 88.1211C70.4602 88.3763 70.8111 88.6634 71.0663 89.078H71.1301L71.0663 88.0254V84.4849H72.5017V95.6807H71.1301V94.6281H71.0663C70.8111 95.0109 70.4602 95.3299 69.9818 95.5851C69.5033 95.8402 68.993 95.9359 68.4507 95.9359C67.43 95.9359 66.5688 95.5532 65.8671 94.7557ZM70.3964 93.8626C70.8749 93.3522 71.0982 92.6824 71.0982 91.8531C71.0982 91.0557 70.8749 90.3858 70.3964 89.8755C69.9499 89.3651 69.3757 89.1099 68.674 89.1099C67.9723 89.1099 67.3981 89.3651 66.9516 89.8755C66.4731 90.3858 66.2498 91.0557 66.2498 91.8531C66.2498 92.6505 66.4731 93.3204 66.9516 93.8307C67.43 94.3411 68.0042 94.5962 68.674 94.5962C69.3757 94.6281 69.9499 94.373 70.3964 93.8626Z" fill="#757575"/>
<path d="M79.1367 95.2342C78.5625 95.6807 77.8289 95.9359 76.9358 95.9359C76.1703 95.9359 75.5004 95.7445 74.8944 95.3299C74.3202 94.9152 73.9056 94.4048 73.6504 93.735L74.9263 93.1928C75.1177 93.6393 75.3728 94.0221 75.7556 94.2773C76.1065 94.5324 76.5211 94.66 76.9358 94.66C77.3823 94.66 77.7651 94.5643 78.0841 94.373C78.4031 94.1816 78.5306 93.9264 78.5306 93.6712C78.5306 93.1928 78.1479 92.81 77.4142 92.5867L76.1065 92.2677C74.6073 91.885 73.8737 91.1832 73.8737 90.0987C73.8737 89.397 74.1607 88.8548 74.7349 88.4082C75.309 87.9935 76.0427 87.7703 76.9039 87.7703C77.5737 87.7703 78.1798 87.9297 78.7539 88.2487C79.2962 88.5677 79.6789 89.0142 79.9022 89.5565L78.6263 90.0987C78.4669 89.7798 78.2436 89.5246 77.9246 89.3332C77.6056 89.1418 77.2229 89.0461 76.8082 89.0461C76.4254 89.0461 76.1065 89.1418 75.7875 89.3332C75.5004 89.5246 75.3409 89.7479 75.3409 90.0349C75.3409 90.4815 75.7556 90.8005 76.5849 90.96L77.7332 91.247C79.2643 91.6298 79.9979 92.3953 79.9979 93.5436C80.0298 94.2135 79.7108 94.7876 79.1367 95.2342Z" fill="#757575"/>
</svg>
