<svg width="18" height="15" viewBox="0 0 18 15" fill="none" xmlns="http://www.w3.org/2000/svg">
<path d="M13.4376 8.74986H12.8125C12.7212 8.74986 12.6463 8.77911 12.588 8.83787C12.5292 8.89629 12.5 8.97116 12.5 9.06235V12.1873C12.5 12.617 12.3471 12.9848 12.0411 13.2908C11.7352 13.5968 11.3673 13.7497 10.9376 13.7497H2.81245C2.38277 13.7497 2.0149 13.5968 1.70887 13.2908C1.40291 12.9848 1.24994 12.6171 1.24994 12.1873V4.06231C1.24994 3.63263 1.40287 3.2649 1.70887 2.9589C2.0149 2.65287 2.38277 2.49994 2.81245 2.49994H9.68739C9.77868 2.49994 9.85359 2.47056 9.91211 2.41204C9.97064 2.35344 9.99988 2.27864 9.99988 2.18741V1.56232C9.99988 1.47127 9.97064 1.39633 9.91211 1.33784C9.85359 1.27925 9.77868 1.25 9.68739 1.25H2.81245C2.03778 1.25 1.3753 1.52507 0.825086 2.07519C0.275074 2.62527 0 3.28775 0 4.06241V12.1875C0 12.9621 0.275074 13.6247 0.82512 14.1746C1.37534 14.7247 2.03781 14.9999 2.81248 14.9999H10.9376C11.7122 14.9999 12.3747 14.7247 12.9249 14.1746C13.4751 13.6247 13.7502 12.9621 13.7502 12.1875V9.06259C13.7502 8.9713 13.7209 8.89639 13.6621 8.83787C13.6035 8.77911 13.5286 8.74986 13.4376 8.74986Z" fill="#848484"/>
<path d="M17.3145 0.185526C17.1908 0.0618079 17.0441 0 16.875 0H11.875C11.7057 0 11.5592 0.0618079 11.4356 0.185526C11.3118 0.309176 11.2499 0.455675 11.2499 0.624954C11.2499 0.794233 11.3118 0.940766 11.4356 1.06448L13.1542 2.7832L6.78714 9.15044C6.72195 9.21553 6.68945 9.29044 6.68945 9.37493C6.68945 9.45972 6.72205 9.53459 6.78714 9.59969L7.90044 10.7128C7.96553 10.7779 8.04044 10.8104 8.12506 10.8104C8.20968 10.8104 8.28462 10.778 8.34968 10.7128L14.7168 4.34571L16.4356 6.06442C16.5593 6.18814 16.7058 6.25002 16.8751 6.25002C17.0443 6.25002 17.1909 6.18814 17.3146 6.06442C17.4383 5.94074 17.5002 5.79428 17.5002 5.625V0.624954C17.5001 0.455572 17.4381 0.309176 17.3145 0.185526Z" fill="#848484"/>
</svg>
