<svg width="160" height="53" viewBox="0 0 160 53" fill="none" xmlns="http://www.w3.org/2000/svg">
<path fill-rule="evenodd" clip-rule="evenodd" d="M7.99602 34.8657L8.29013 34.8925L13.1296 39.9726C13.1296 39.9726 13.9318 40.7747 13.9318 40.8549C11.1778 42.4325 5.16184 46.0153 5.16184 46.0153L6.01744 43.3415L3.15652 43.9832L4.30623 41.0421L1.44531 41.4699L7.99602 34.8657Z" fill="#E9A734"/>
<path fill-rule="evenodd" clip-rule="evenodd" d="M12.8372 41.7642L13.1313 41.7909L17.9708 46.871C17.9708 46.871 18.7729 47.6732 18.7729 47.7534C16.019 49.3309 10.003 52.9137 10.003 52.9137L10.8586 50.24L7.97097 50.8817L9.12069 47.9405L6.25977 48.3683L12.8372 41.7642Z" fill="#E9A734"/>
<path fill-rule="evenodd" clip-rule="evenodd" d="M20.2694 0.133688C19.7881 2.59354 19.7881 5.10688 19.1731 7.56673C18.2106 7.37957 17.3283 6.41702 16.4727 5.18709C16.9272 3.44915 18.3978 1.20319 20.1892 0C20.2159 0.0534751 20.2427 0.10695 20.2694 0.133688Z" fill="#272425"/>
<path fill-rule="evenodd" clip-rule="evenodd" d="M33.9857 30.1599C33.9857 40.3202 27.943 48.5821 20.4832 48.5821C14.3069 48.5821 9.09302 42.9138 7.48877 35.1866L11.3657 31.2027C12.4085 30.1065 12.462 28.4487 11.4727 27.4862C10.4834 26.5236 10.4032 26.1226 7.99678 27.4595C5.5904 28.7963 3.50487 30.561 0.00224713 28.529C-0.158178 26.0691 8.31763 18.8767 10.5101 20.4809C13.6384 22.7536 14.8416 24.4916 14.8416 24.4916C15.8844 25.5878 17.5421 25.6948 18.5047 24.7322C19.4939 23.7697 19.4137 22.1387 18.371 21.0424L9.44061 11.818C9.3604 11.7378 9.28019 11.6575 9.17324 11.5773L8.85239 11.2297C7.43529 9.75918 8.10373 6.84478 10.323 4.67904C11.7133 3.31542 13.3978 2.59351 14.7881 2.59351C15.617 2.59351 16.3924 2.86088 16.9004 3.39563L27.943 14.7858C31.6061 18.128 33.9857 23.7697 33.9857 30.1599Z" fill="black"/>
<path fill-rule="evenodd" clip-rule="evenodd" d="M24.5466 19.4916C23.2632 20.7483 21.3649 20.882 20.2954 19.7857L11.365 10.5613C10.3223 9.46502 10.5094 7.59339 11.7928 6.33673C13.0762 5.08006 14.9746 4.94637 16.0441 6.04262L24.9744 15.2671C26.044 16.3366 25.8568 18.2349 24.5466 19.4916Z" fill="white"/>
<path fill-rule="evenodd" clip-rule="evenodd" d="M17.5956 8.76971C17.5956 10.6681 16.0448 12.2189 14.1464 12.2189C12.248 12.2189 10.6973 10.6681 10.6973 8.76971C10.6973 6.87134 12.248 5.32056 14.1464 5.32056C16.0448 5.32056 17.5956 6.87134 17.5956 8.76971Z" fill="#E9A734"/>
<path fill-rule="evenodd" clip-rule="evenodd" d="M15.3759 8.68968C15.3759 9.4918 14.7342 10.1335 13.9321 10.1335C13.13 10.1335 12.4883 9.4918 12.4883 8.68968C12.4883 7.88755 13.13 7.24585 13.9321 7.24585C14.7342 7.24585 15.3759 7.88755 15.3759 8.68968Z" fill="white"/>
<path fill-rule="evenodd" clip-rule="evenodd" d="M15.0289 8.68974C15.0289 9.27796 14.5743 9.7325 13.9861 9.7325C13.3979 9.7325 12.9434 9.25123 12.9434 8.68974C12.9434 8.10151 13.3979 7.64697 13.9861 7.64697C14.5476 7.64697 15.0289 8.12825 15.0289 8.68974Z" fill="black"/>
<path d="M43.6104 12.1924H42.6211V48.9031H43.6104V12.1924Z" fill="#E9A734"/>
<path d="M49.0117 13.5826C49.0117 13.3687 49.0652 13.2083 49.1721 13.0746C49.2791 12.9409 49.4663 12.8875 49.6802 12.8875H56.6052C57.4341 12.8875 58.2094 13.0479 58.9046 13.3687C59.5998 13.6896 60.2148 14.1174 60.7228 14.6789C61.2308 15.2136 61.6319 15.8553 61.926 16.5772C62.2201 17.2992 62.3538 18.0478 62.3538 18.8232C62.3538 19.5718 62.2201 20.3205 61.926 21.0157C61.6586 21.7109 61.2575 22.3526 60.7495 22.8873C60.2415 23.4221 59.6533 23.8766 58.9581 24.1974C58.2629 24.5183 57.5143 24.6787 56.6854 24.6787H52.6748V30.5877C52.6748 31.0155 52.4609 31.2294 52.0063 31.2294H49.6802C49.4663 31.2294 49.3058 31.176 49.1989 31.069C49.0919 30.9621 49.0385 30.8016 49.0385 30.5877V13.5826H49.0117ZM58.664 18.7697C58.664 18.4221 58.6105 18.1013 58.4768 17.7804C58.3431 17.4596 58.1827 17.1655 57.9421 16.9248C57.7014 16.6842 57.4341 16.4703 57.1399 16.3099C56.8191 16.1494 56.4715 16.0692 56.0972 16.0692H52.6748V21.4167H56.0972C56.4715 21.4167 56.8191 21.3365 57.1399 21.2028C57.4608 21.0424 57.7282 20.8553 57.9688 20.6146C58.2094 20.374 58.3699 20.0799 58.5036 19.759C58.6105 19.4649 58.664 19.1173 58.664 18.7697Z" fill="black"/>
<path d="M64.5469 13.4757C64.5469 13.0746 64.734 12.8875 65.0816 12.8875H76.9798C77.1937 12.8875 77.3542 12.9409 77.4344 13.0746C77.5146 13.1816 77.5681 13.342 77.5681 13.5292V15.6949C77.5681 15.8553 77.5146 15.9623 77.4076 16.096C77.3007 16.2029 77.1403 16.2564 76.9531 16.2564H68.1832V19.9996H74.9478C75.1082 19.9729 75.2419 20.0264 75.3489 20.1066C75.4558 20.1868 75.5093 20.3472 75.5093 20.5344V22.7804C75.5093 22.9408 75.4558 23.0477 75.3756 23.1814C75.2954 23.2884 75.1617 23.3418 74.9745 23.3418H68.1832V27.8338H77.274C77.5146 27.8338 77.6483 27.8872 77.7285 27.9942C77.8087 28.1011 77.8354 28.2348 77.8354 28.4487V30.6947C77.8354 31.0423 77.6483 31.2027 77.3007 31.2027H65.0816C64.9212 31.2027 64.8143 31.1492 64.7073 31.069C64.6004 30.9888 64.5469 30.8551 64.5469 30.6679V13.4757Z" fill="black"/>
<path d="M80.4023 13.4222C80.4023 13.2618 80.4558 13.1548 80.536 13.0479C80.6162 12.9409 80.7499 12.8875 80.9371 12.8875H83.8515C83.9852 12.8875 84.1189 12.9142 84.2526 12.9944C84.3862 13.0479 84.4932 13.1548 84.5734 13.2885L92.6749 24.7322V13.2885C92.7284 13.1281 92.8086 13.0479 92.9155 12.9944C93.0225 12.9409 93.1294 12.9142 93.2096 12.9142H95.6962C95.8299 12.9142 95.9636 12.9677 96.0973 13.0746C96.231 13.1816 96.3112 13.3153 96.3112 13.4757V30.7214C96.3112 31.0957 96.0973 31.2562 95.6962 31.2562H93.076C92.9957 31.2562 92.8888 31.2294 92.8353 31.1492C92.7551 31.069 92.6749 30.9621 92.5679 30.8551L83.9852 18.5023V30.7214C84.0119 31.0957 83.8248 31.2562 83.4504 31.2562H80.9638C80.5895 31.2562 80.4291 31.069 80.4291 30.7214V13.4222H80.4023Z" fill="black"/>
<path d="M111.979 17.2187C111.471 16.8444 110.91 16.5503 110.322 16.3631C109.733 16.1492 109.092 16.0423 108.423 16.0423C107.594 16.0423 106.819 16.2027 106.124 16.5236C105.429 16.8444 104.814 17.2722 104.306 17.807C103.798 18.3417 103.397 18.9834 103.103 19.7321C102.808 20.454 102.675 21.2561 102.675 22.085C102.675 22.9138 102.808 23.6892 103.103 24.4379C103.397 25.1598 103.771 25.8015 104.306 26.3363C104.814 26.871 105.429 27.2988 106.124 27.6197C106.819 27.9405 107.594 28.1009 108.423 28.1009C108.771 28.1009 109.145 28.0742 109.546 28.0207C109.947 27.9672 110.348 27.9138 110.75 27.8336V23.7427C110.75 23.5823 110.803 23.4486 110.883 23.3416C110.963 23.2347 111.097 23.1812 111.284 23.1812H113.503C113.637 23.1812 113.771 23.2347 113.905 23.3416C114.038 23.4486 114.118 23.5823 114.118 23.7427V29.4646C114.118 29.7052 114.012 29.8656 113.771 29.9993C112.995 30.5073 112.167 30.9084 111.258 31.149C110.348 31.3897 109.413 31.5233 108.423 31.5233C107.541 31.5233 106.712 31.4164 105.91 31.2025C105.108 30.9886 104.359 30.6677 103.664 30.2399C102.969 29.8389 102.327 29.3309 101.766 28.7694C101.204 28.2079 100.696 27.5662 100.295 26.871C99.8941 26.1758 99.5732 25.4272 99.3326 24.625C99.1187 23.8229 99.0117 22.9941 99.0117 22.1117C99.0117 21.2294 99.1187 20.4005 99.3326 19.5984C99.5465 18.7963 99.8673 18.0476 100.295 17.3257C100.696 16.6305 101.204 15.9888 101.766 15.4006C102.327 14.8124 102.969 14.3311 103.664 13.93C104.359 13.529 105.108 13.2081 105.91 12.9675C106.712 12.7536 107.541 12.6199 108.423 12.6199C109.413 12.6199 110.322 12.7536 111.204 13.0209C112.086 13.2883 112.915 13.6894 113.691 14.2241C113.824 14.3043 113.931 14.4113 114.011 14.545C114.065 14.6787 114.065 14.8391 113.985 15.0263L112.782 17.0583C112.648 17.2187 112.541 17.3257 112.407 17.3524C112.3 17.3524 112.167 17.3257 111.979 17.2187Z" fill="black"/>
<path d="M121.229 23.9834C121.229 24.5716 121.336 25.1064 121.524 25.6144C121.711 26.1224 121.978 26.577 122.326 26.9513C122.673 27.3256 123.074 27.6465 123.556 27.8604C124.037 28.0743 124.572 28.1812 125.133 28.1812C125.721 28.1812 126.229 28.0743 126.711 27.8604C127.192 27.6465 127.593 27.3256 127.941 26.9513C128.288 26.577 128.556 26.1224 128.743 25.6144C128.93 25.1064 129.037 24.5716 129.037 23.9834V13.4488C129.037 13.2884 129.09 13.1814 129.197 13.0745C129.304 12.9675 129.438 12.9141 129.598 12.9141H132.031C132.192 12.9141 132.326 12.9675 132.459 13.0745C132.593 13.1814 132.646 13.3151 132.646 13.4755V24.0102C132.646 25.0529 132.459 26.0155 132.058 26.9246C131.657 27.8336 131.122 28.6358 130.427 29.3309C129.732 30.0261 128.93 30.5609 128.021 30.9619C127.112 31.363 126.122 31.5502 125.106 31.5502C124.411 31.5502 123.743 31.4699 123.101 31.2828C122.459 31.0956 121.844 30.855 121.31 30.5074C120.748 30.1865 120.24 29.7855 119.786 29.3309C119.331 28.8764 118.93 28.3684 118.609 27.8069C118.288 27.2454 118.021 26.6572 117.834 26.0155C117.647 25.3738 117.566 24.7053 117.566 24.0102V13.4755C117.566 13.3419 117.62 13.2349 117.727 13.1012C117.834 12.9943 117.941 12.9141 118.101 12.9141H120.668C120.775 12.9141 120.909 12.9675 121.042 13.0745C121.176 13.1814 121.229 13.3151 121.229 13.4488V23.9834V23.9834Z" fill="black"/>
<path d="M136.443 13.4222C136.443 13.2618 136.497 13.1548 136.577 13.0479C136.657 12.9409 136.791 12.8875 136.978 12.8875H139.465C139.598 12.8875 139.732 12.9409 139.866 13.0479C139.999 13.1548 140.08 13.2885 140.08 13.4489V30.6947C140.08 31.069 139.866 31.2294 139.465 31.2294H136.978C136.604 31.2294 136.443 31.0423 136.443 30.6947V13.4222Z" fill="black"/>
<path d="M144.09 13.4222C144.09 13.2618 144.143 13.1548 144.224 13.0479C144.304 12.9409 144.437 12.8875 144.625 12.8875H147.539C147.673 12.8875 147.806 12.9142 147.94 12.9944C148.074 13.0479 148.181 13.1548 148.261 13.2885L156.362 24.7322V13.2885C156.416 13.1281 156.496 13.0479 156.603 12.9944C156.71 12.9409 156.817 12.9142 156.897 12.9142H159.384C159.517 12.9142 159.651 12.9677 159.785 13.0746C159.918 13.1816 159.999 13.3153 159.999 13.4757V30.7214C159.999 31.0957 159.785 31.2562 159.384 31.2562H156.763C156.683 31.2562 156.576 31.2294 156.523 31.1492C156.443 31.069 156.362 30.9621 156.255 30.8551L147.673 18.5023V30.7214C147.699 31.0957 147.512 31.2562 147.138 31.2562H144.651C144.277 31.2562 144.117 31.069 144.117 30.7214V13.4222H144.09Z" fill="black"/>
<path d="M78.1036 38.5558C78.1036 38.6627 78.1036 38.7429 78.0769 38.8231C78.0769 38.9033 78.0502 38.9568 78.0234 39.0103C77.9967 39.0638 77.97 39.0905 77.9432 39.1172C77.9165 39.144 77.863 39.144 77.8363 39.144H74.8684V48.2882C74.8684 48.3417 74.8684 48.3684 74.8417 48.3952C74.8149 48.4219 74.7882 48.4487 74.7347 48.4754C74.6812 48.5021 74.601 48.5021 74.5208 48.5289C74.4406 48.5556 74.3069 48.5556 74.1732 48.5556C74.0395 48.5556 73.9326 48.5556 73.8524 48.5289C73.7722 48.5021 73.6919 48.5021 73.6385 48.4754C73.585 48.4487 73.5583 48.4219 73.5315 48.3952C73.5048 48.3684 73.5048 48.315 73.5048 48.2882V39.144H70.5369C70.4834 39.144 70.4567 39.144 70.43 39.1172C70.4032 39.0905 70.3765 39.0638 70.3497 39.0103C70.323 38.9568 70.323 38.9033 70.2963 38.8231C70.2695 38.7429 70.2695 38.6627 70.2695 38.5558C70.2695 38.4488 70.2695 38.3686 70.2963 38.2884C70.323 38.2082 70.323 38.1547 70.3497 38.1012C70.3765 38.0477 70.4032 38.021 70.43 37.9943C70.4567 37.9675 70.5102 37.9675 70.5369 37.9675H77.863C77.9165 37.9675 77.9432 37.9675 77.9699 37.9943C77.9967 38.021 78.0234 38.0477 78.0502 38.1012C78.0769 38.1547 78.1036 38.2082 78.1036 38.2884C78.1036 38.3686 78.1036 38.4755 78.1036 38.5558Z" fill="#E9A734"/>
<path d="M74.1724 48.7694C74.0387 48.7694 73.905 48.7694 73.7981 48.7427C73.6911 48.7159 73.6109 48.7159 73.5307 48.6892C73.4238 48.6625 73.3435 48.609 73.3168 48.5288C73.2633 48.4486 73.2366 48.3684 73.2366 48.2881V39.3578H70.4826C70.4024 39.3578 70.3222 39.3311 70.242 39.3043C70.1618 39.2508 70.1083 39.1974 70.0816 39.1172C70.0548 39.0637 70.0281 38.9835 70.0013 38.8765C69.9746 38.7963 69.9746 38.6894 69.9746 38.5557C69.9746 38.4487 69.9746 38.3418 70.0013 38.2348C70.0281 38.1279 70.0281 38.0477 70.0816 37.9942C70.135 37.914 70.1885 37.8338 70.242 37.7803C70.3222 37.7268 70.4024 37.7268 70.4826 37.7268H77.8087C77.8889 37.7268 77.9691 37.7535 78.0494 37.7803C78.1296 37.8338 78.1831 37.8872 78.2098 37.9674C78.2365 38.0477 78.2633 38.1279 78.29 38.2348C78.29 38.315 78.3167 38.422 78.3167 38.5289C78.3167 38.6359 78.3167 38.7428 78.29 38.823C78.2633 38.93 78.2633 39.0102 78.2098 39.0904C78.1563 39.1706 78.1028 39.2241 78.0494 39.2776C77.9691 39.3311 77.8889 39.3311 77.8087 39.3311H75.0815V48.2614C75.0815 48.3416 75.0548 48.4218 75.0013 48.502C74.9478 48.5823 74.8676 48.6357 74.7606 48.6625C74.7072 48.6892 74.6002 48.716 74.4933 48.716C74.4398 48.7694 74.3061 48.7694 74.1724 48.7694ZM73.6911 48.2881C73.7446 48.3149 73.7713 48.3149 73.8783 48.3149C74.0387 48.3416 74.3328 48.3416 74.4933 48.3149C74.6002 48.2881 74.6537 48.2881 74.6804 48.2881V38.93H77.8622C77.8622 38.93 77.8622 38.93 77.8622 38.9033C77.8622 38.9033 77.8889 38.8498 77.8889 38.7963C77.8889 38.7428 77.9157 38.6626 77.9157 38.5557C77.9157 38.4755 77.9157 38.3685 77.8889 38.315C77.8889 38.2348 77.8622 38.2081 77.8622 38.1813C77.8622 38.1546 77.8622 38.1546 77.8622 38.1546H70.5361C70.5361 38.1813 70.5094 38.2348 70.5094 38.2883C70.5094 38.3685 70.4826 38.422 70.4826 38.5289C70.4826 38.6091 70.4826 38.6894 70.5094 38.7696C70.5094 38.8498 70.5361 38.8765 70.5361 38.9033H73.7179V48.2881H73.6911Z" fill="#E9A734"/>
<path d="M95.5098 47.9408C95.5098 48.0477 95.5098 48.1279 95.4831 48.2081C95.4831 48.2884 95.4564 48.3418 95.4296 48.3953C95.4029 48.4488 95.3761 48.4755 95.3227 48.5023C95.2959 48.529 95.2424 48.529 95.2157 48.529H90.1623C90.0286 48.529 89.9217 48.4755 89.8147 48.3953C89.7078 48.3151 89.6543 48.1547 89.6543 47.9408V38.5291C89.6543 38.3152 89.7078 38.1816 89.8147 38.0746C89.9217 37.9944 90.0554 37.9409 90.1623 37.9409H95.1622C95.2157 37.9409 95.2424 37.9409 95.2692 37.9677C95.2959 37.9944 95.3227 38.0211 95.3494 38.0746C95.3761 38.1281 95.3761 38.1816 95.4029 38.2618C95.4296 38.342 95.4296 38.4222 95.4296 38.5291C95.4296 38.6361 95.4296 38.7163 95.4029 38.7965C95.3761 38.8767 95.3761 38.9302 95.3494 38.9837C95.3227 39.0372 95.2959 39.0639 95.2692 39.0906C95.2424 39.1174 95.189 39.1174 95.1622 39.1174H91.0447V42.4328H94.6007C94.6542 42.4328 94.681 42.4328 94.7077 42.4596C94.7344 42.4863 94.7612 42.513 94.7879 42.5665C94.8147 42.62 94.8414 42.6735 94.8414 42.7537C94.8414 42.8339 94.8681 42.9141 94.8681 43.0211C94.8681 43.128 94.8681 43.2082 94.8414 43.2617C94.8414 43.3419 94.8147 43.3954 94.7879 43.4221C94.7612 43.4756 94.7344 43.5023 94.7077 43.5291C94.681 43.5558 94.6275 43.5558 94.6007 43.5558H91.0714V47.3258H95.2424C95.2959 47.3258 95.3227 47.3258 95.3494 47.3525C95.3761 47.3793 95.4029 47.406 95.4564 47.4595C95.4831 47.513 95.5098 47.5664 95.5098 47.6467C95.5098 47.7269 95.5098 47.8338 95.5098 47.9408Z" fill="#E9A734"/>
<path d="M95.2415 48.7429H90.1881C90.0009 48.7429 89.8405 48.6895 89.7068 48.5825C89.5464 48.4488 89.4395 48.2349 89.4395 47.9675V38.5559C89.4395 38.2618 89.5197 38.0746 89.7068 37.9409C89.8673 37.834 90.0277 37.7805 90.1881 37.7805H95.188C95.2682 37.7805 95.3485 37.8073 95.4287 37.834C95.5089 37.8875 95.5624 37.9409 95.5891 38.0479C95.6158 38.1014 95.6426 38.1816 95.6693 38.2885C95.696 38.3688 95.696 38.4757 95.696 38.6094C95.696 38.7163 95.696 38.8233 95.6693 38.9035C95.6426 38.9837 95.6426 39.0639 95.5891 39.1441C95.5356 39.2243 95.4821 39.3046 95.4287 39.3313C95.3485 39.3848 95.2682 39.3848 95.188 39.3848H91.2843V42.2457H94.5998C94.68 42.2457 94.7602 42.2724 94.8404 42.3259C94.8939 42.3794 94.9474 42.4329 95.0009 42.5131C95.0276 42.5933 95.0543 42.6735 95.0811 42.7804C95.0811 42.8607 95.1078 42.9676 95.1078 43.0746C95.1078 43.1815 95.1078 43.2885 95.0811 43.3687C95.0543 43.4756 95.0276 43.5558 95.0009 43.6093C94.9474 43.6895 94.8939 43.743 94.8137 43.7965C94.7335 43.8232 94.68 43.85 94.5998 43.85H91.2843V47.1921H95.2415C95.3217 47.1921 95.4019 47.2189 95.4821 47.2456C95.5624 47.2991 95.6158 47.3526 95.6426 47.4328C95.696 47.513 95.7228 47.5932 95.7228 47.7002C95.7228 47.7804 95.7495 47.8873 95.7495 47.9943C95.7495 48.1012 95.7495 48.2082 95.7228 48.2884C95.696 48.3953 95.6693 48.4756 95.6426 48.5558C95.5891 48.636 95.5356 48.6894 95.4821 48.7429C95.4019 48.7162 95.3217 48.7429 95.2415 48.7429ZM90.1614 38.1816C90.0812 38.1816 90.0009 38.2083 89.9475 38.2618C89.894 38.3153 89.8672 38.4222 89.8672 38.5292V47.9408C89.8672 48.0477 89.894 48.1547 89.9475 48.2082C90.0277 48.2616 90.0812 48.2884 90.1614 48.2884H95.2148C95.2148 48.2884 95.2148 48.2884 95.2415 48.2616C95.2415 48.2349 95.2682 48.2082 95.2682 48.1547C95.2682 48.1012 95.295 48.021 95.295 47.9408C95.295 47.8338 95.295 47.7536 95.2682 47.7002C95.2682 47.6467 95.2415 47.6199 95.2415 47.5932C95.2415 47.5665 95.2148 47.5665 95.2148 47.5665H90.8031V43.3419H94.5998C94.6265 43.3152 94.6265 43.2885 94.6533 43.235C94.6533 43.1815 94.68 43.1013 94.68 43.0211C94.68 42.9409 94.68 42.8607 94.6533 42.7804C94.6533 42.7002 94.6265 42.6735 94.6265 42.6735C94.6265 42.6468 94.5998 42.6468 94.5998 42.6468H90.8565V38.9035H95.2148C95.2148 38.8768 95.2415 38.85 95.2415 38.7698C95.2415 38.7163 95.2682 38.6361 95.2682 38.5559C95.2682 38.449 95.2682 38.3955 95.2415 38.3153C95.2415 38.2351 95.2148 38.2083 95.2148 38.1816H90.1614Z" fill="#E9A734"/>
<path d="M115.535 48.0207C115.589 48.1277 115.589 48.2346 115.615 48.3149C115.615 48.3951 115.589 48.4485 115.562 48.4753C115.508 48.502 115.455 48.5288 115.348 48.5555C115.241 48.5555 115.107 48.5822 114.947 48.5822C114.787 48.5822 114.653 48.5822 114.546 48.5822C114.439 48.5822 114.359 48.5555 114.305 48.5288C114.252 48.502 114.225 48.4753 114.198 48.4485C114.172 48.4218 114.145 48.3683 114.118 48.3149L113.209 45.748H108.824L107.968 48.2614C107.942 48.3149 107.942 48.3416 107.915 48.3951C107.888 48.4218 107.862 48.4485 107.808 48.4753C107.755 48.502 107.674 48.5288 107.594 48.5288C107.487 48.5288 107.38 48.5555 107.22 48.5555C107.059 48.5555 106.926 48.5555 106.846 48.5288C106.739 48.502 106.685 48.502 106.632 48.4485C106.578 48.4218 106.578 48.3416 106.578 48.2881C106.578 48.2079 106.605 48.1277 106.658 47.994L110.188 38.208C110.214 38.1546 110.241 38.1011 110.268 38.0744C110.295 38.0476 110.348 37.9942 110.428 37.9942C110.509 37.9674 110.589 37.9674 110.696 37.9407C110.803 37.9407 110.936 37.9407 111.097 37.9407C111.257 37.9407 111.418 37.9407 111.525 37.9407C111.632 37.9407 111.738 37.9674 111.792 37.9942C111.872 38.0209 111.926 38.0476 111.952 38.1011C111.979 38.1546 112.033 38.1813 112.033 38.2615L115.535 48.0207ZM110.99 39.3578L109.172 44.6251H112.835L110.99 39.3578Z" fill="#E9A734"/>
<path d="M114.921 48.7694C114.76 48.7694 114.6 48.7694 114.493 48.7694C114.359 48.7694 114.279 48.7427 114.199 48.716C114.119 48.6892 114.038 48.6357 113.985 48.5555C113.958 48.502 113.931 48.4486 113.878 48.3951L113.022 45.962H108.958L108.156 48.3416C108.129 48.4218 108.103 48.4753 108.049 48.5288C107.996 48.5823 107.942 48.6357 107.862 48.6892C107.782 48.7159 107.702 48.7427 107.568 48.7694C107.461 48.7694 107.327 48.7962 107.167 48.7962C107.006 48.7962 106.873 48.7962 106.739 48.7694C106.579 48.7427 106.472 48.7159 106.392 48.6357C106.338 48.5823 106.258 48.4753 106.258 48.2881C106.258 48.1812 106.285 48.0742 106.338 47.9406L109.867 38.1546C109.894 38.0744 109.948 37.9942 110.001 37.9407C110.055 37.8872 110.135 37.8338 110.242 37.7803C110.322 37.7535 110.429 37.7268 110.563 37.7268C110.67 37.7268 110.83 37.7268 110.99 37.7268C111.178 37.7268 111.311 37.7268 111.445 37.7268C111.579 37.7268 111.686 37.7535 111.766 37.7803C111.873 37.807 111.953 37.8605 112.033 37.9407C112.087 37.9942 112.14 38.0744 112.167 38.1546L115.696 47.9406C115.75 48.0742 115.776 48.2079 115.776 48.2881C115.776 48.4753 115.696 48.5823 115.643 48.6357C115.562 48.7159 115.456 48.7427 115.295 48.7694C115.242 48.7694 115.108 48.7694 114.921 48.7694ZM108.664 45.5074H113.37L114.333 48.2347C114.333 48.2614 114.359 48.2881 114.359 48.2881C114.386 48.2881 114.44 48.3149 114.546 48.3149C114.653 48.3149 114.76 48.3149 114.921 48.3149C115.081 48.3149 115.215 48.3149 115.295 48.2881C115.322 48.2881 115.349 48.2881 115.375 48.2614C115.375 48.2079 115.349 48.1545 115.322 48.0475L111.792 38.2616C111.792 38.2348 111.766 38.2081 111.739 38.1813C111.739 38.1813 111.712 38.1546 111.686 38.1546C111.659 38.1546 111.579 38.1279 111.445 38.1279C111.338 38.1279 111.204 38.1279 111.017 38.1279C110.857 38.1279 110.723 38.1279 110.643 38.1279C110.563 38.1279 110.482 38.1546 110.429 38.1546C110.375 38.1813 110.375 38.1813 110.375 38.1813C110.349 38.2081 110.349 38.2348 110.349 38.2616L106.819 48.0475C106.766 48.1812 106.766 48.2347 106.766 48.2614C106.793 48.2614 106.793 48.2614 106.846 48.2881C106.926 48.2881 107.06 48.3149 107.194 48.3149C107.327 48.3149 107.461 48.3149 107.541 48.2881C107.648 48.2881 107.675 48.2614 107.702 48.2614C107.728 48.2347 107.728 48.2347 107.728 48.2347C107.728 48.2079 107.755 48.2079 107.755 48.1812L108.664 45.5074ZM113.156 44.839H108.851L110.83 39.1439H111.151L113.156 44.839ZM109.493 44.4112H112.514L110.99 40.053L109.493 44.4112Z" fill="#E9A734"/>
<path d="M138.769 48.2884C138.769 48.3418 138.769 48.3686 138.742 48.3953C138.715 48.422 138.688 48.4488 138.635 48.4755C138.581 48.5022 138.501 48.5022 138.421 48.529C138.341 48.5557 138.234 48.5557 138.073 48.5557C137.94 48.5557 137.833 48.5557 137.753 48.529C137.672 48.5022 137.592 48.5022 137.539 48.4755C137.485 48.4488 137.458 48.422 137.432 48.3953C137.405 48.3686 137.405 48.3151 137.405 48.2884V39.0906H137.378L133.635 48.3418C133.608 48.3686 133.608 48.422 133.555 48.4488C133.528 48.4755 133.475 48.5022 133.421 48.529C133.368 48.5557 133.287 48.5557 133.207 48.5825C133.127 48.5825 133.047 48.5825 132.913 48.5825C132.806 48.5825 132.699 48.5825 132.619 48.5557C132.539 48.5557 132.459 48.529 132.405 48.5022C132.352 48.4755 132.298 48.4488 132.271 48.422C132.245 48.3953 132.218 48.3686 132.218 48.3418L128.662 39.1174V48.3151C128.662 48.3686 128.662 48.3953 128.635 48.422C128.608 48.4488 128.582 48.4755 128.528 48.5022C128.475 48.529 128.394 48.529 128.314 48.5557C128.234 48.5825 128.1 48.5825 127.967 48.5825C127.833 48.5825 127.726 48.5825 127.619 48.5557C127.539 48.529 127.459 48.529 127.405 48.5022C127.352 48.4755 127.325 48.4488 127.298 48.422C127.271 48.3953 127.271 48.3418 127.271 48.3151V38.6093C127.271 38.3687 127.325 38.2083 127.459 38.1281C127.592 38.0211 127.726 37.9944 127.86 37.9944H128.715C128.902 37.9944 129.036 38.0211 129.17 38.0479C129.304 38.0746 129.41 38.1281 129.517 38.2083C129.624 38.2885 129.705 38.3687 129.758 38.4757C129.812 38.5826 129.892 38.7163 129.945 38.85L132.967 46.4969H133.02L136.148 38.8767C136.202 38.7163 136.282 38.5826 136.336 38.4489C136.416 38.342 136.496 38.235 136.576 38.1815C136.656 38.1013 136.763 38.0746 136.87 38.0479C136.977 38.0211 137.084 37.9944 137.245 37.9944H138.154C138.234 37.9944 138.314 37.9944 138.394 38.0211C138.475 38.0479 138.528 38.0746 138.581 38.1281C138.635 38.1815 138.688 38.235 138.715 38.3152C138.742 38.3954 138.769 38.5024 138.769 38.6093V48.2884V48.2884Z" fill="#E9A734"/>
<path d="M138.074 48.7694C137.94 48.7694 137.806 48.7694 137.7 48.7427C137.593 48.7159 137.512 48.7159 137.432 48.6892C137.325 48.6625 137.272 48.609 137.218 48.5288C137.165 48.4486 137.138 48.3684 137.138 48.2881V40.2134L133.823 48.4218C133.796 48.502 133.742 48.5555 133.689 48.609C133.635 48.6625 133.555 48.6892 133.475 48.716C133.395 48.7427 133.315 48.7694 133.234 48.7694C133.154 48.7694 133.047 48.7694 132.94 48.7694C132.807 48.7694 132.7 48.7694 132.619 48.7427C132.512 48.7427 132.432 48.7159 132.379 48.6892C132.299 48.6625 132.218 48.609 132.165 48.5823C132.111 48.5288 132.058 48.4753 132.031 48.3951L128.903 40.2669V48.2881C128.903 48.3684 128.876 48.4486 128.823 48.5288C128.769 48.609 128.689 48.6625 128.582 48.6892C128.502 48.7159 128.422 48.7427 128.315 48.7427C128.208 48.7694 128.101 48.7694 127.94 48.7694C127.807 48.7694 127.673 48.7694 127.566 48.7427C127.459 48.7159 127.379 48.7159 127.299 48.6892C127.192 48.6625 127.111 48.5823 127.085 48.5288C127.031 48.4486 127.031 48.3951 127.031 48.2881V38.5824C127.031 38.2883 127.111 38.0744 127.299 37.914C127.459 37.7803 127.646 37.7268 127.833 37.7268H128.689C128.876 37.7268 129.063 37.7535 129.197 37.7803C129.357 37.807 129.491 37.8872 129.625 37.9674C129.758 38.0477 129.865 38.1546 129.946 38.315C130.026 38.4487 130.079 38.5824 130.133 38.7428L132.967 45.9085L135.908 38.7428C135.962 38.5824 136.042 38.422 136.122 38.2883C136.202 38.1546 136.309 38.0477 136.416 37.9674C136.523 37.8872 136.657 37.807 136.79 37.7803C136.924 37.7535 137.058 37.7268 137.218 37.7268H138.127C138.234 37.7268 138.341 37.7535 138.421 37.7803C138.528 37.807 138.609 37.8605 138.689 37.9407C138.769 38.0209 138.823 38.1011 138.876 38.2081C138.929 38.315 138.956 38.4487 138.956 38.5824V48.2881C138.956 48.3684 138.929 48.4486 138.876 48.5288C138.823 48.609 138.742 48.6625 138.635 48.6892C138.582 48.7159 138.475 48.7427 138.395 48.7427C138.341 48.7694 138.234 48.7694 138.074 48.7694ZM137.593 48.2881C137.646 48.3149 137.673 48.3149 137.78 48.3149C137.86 48.3149 137.967 48.3416 138.074 48.3416C138.208 48.3416 138.315 48.3416 138.368 48.3149C138.448 48.3149 138.502 48.2881 138.555 48.2881V38.6091C138.555 38.5289 138.555 38.4487 138.528 38.3952C138.502 38.3418 138.475 38.315 138.448 38.2616C138.421 38.2348 138.395 38.2081 138.341 38.2081C138.288 38.1813 138.234 38.1813 138.181 38.1813H137.272C137.165 38.1813 137.058 38.1813 136.978 38.2081C136.897 38.2348 136.844 38.2616 136.764 38.315C136.71 38.3685 136.63 38.4487 136.577 38.5289C136.523 38.6359 136.443 38.7696 136.389 38.9033L133.181 46.6572H132.833L129.785 38.9033C129.732 38.7696 129.678 38.6359 129.625 38.5557C129.571 38.4755 129.518 38.3952 129.438 38.3418C129.357 38.2883 129.277 38.2348 129.17 38.2348C129.063 38.2081 128.93 38.1813 128.769 38.1813H127.914C127.807 38.1813 127.726 38.2081 127.646 38.2883C127.593 38.3418 127.539 38.4487 127.539 38.6091V48.2881C127.566 48.2881 127.619 48.3149 127.7 48.3149C127.78 48.3149 127.887 48.3416 127.994 48.3416C128.128 48.3416 128.234 48.3416 128.315 48.3149C128.395 48.3149 128.448 48.2881 128.502 48.2881V38.9033H128.876L128.93 39.0369L132.486 48.2614C132.486 48.2614 132.512 48.2881 132.539 48.2881C132.566 48.3149 132.646 48.3149 132.7 48.3149C132.833 48.3416 133.074 48.3416 133.234 48.3149C133.288 48.3149 133.341 48.2881 133.395 48.2881C133.422 48.2881 133.448 48.2614 133.448 48.2614C133.448 48.2614 133.448 48.2614 133.475 48.2347L137.245 38.8765H137.619L137.646 39.0904V48.2881H137.593Z" fill="#E9A734"/>
</svg>
