<svg width="170" height="32" viewBox="0 0 170 32" fill="none" xmlns="http://www.w3.org/2000/svg">
<path fill-rule="evenodd" clip-rule="evenodd" d="M4.77289 20.8086L4.94842 20.8246L7.83674 23.8565C7.83674 23.8565 8.31546 24.3352 8.31546 24.3831C6.67184 25.3246 3.08138 27.4629 3.08138 27.4629L3.59202 25.8671L1.88457 26.2501L2.57074 24.4948L0.863281 24.7501L4.77289 20.8086Z" fill="#E9A734"/>
<path fill-rule="evenodd" clip-rule="evenodd" d="M7.66189 24.9258L7.83742 24.9417L10.7257 27.9737C10.7257 27.9737 11.2045 28.4524 11.2045 28.5003C9.56084 29.4418 5.97039 31.5801 5.97039 31.5801L6.48103 29.9843L4.75761 30.3673L5.44379 28.612L3.73633 28.8673L7.66189 24.9258Z" fill="#E9A734"/>
<path fill-rule="evenodd" clip-rule="evenodd" d="M12.098 0.0797878C11.8108 1.54788 11.8108 3.0479 11.4437 4.51599C10.8693 4.40429 10.3427 3.82981 9.83203 3.09577C10.1033 2.05852 10.981 0.71809 12.0501 0C12.0661 0.0319151 12.082 0.0638303 12.098 0.0797878Z" fill="#272425"/>
<path fill-rule="evenodd" clip-rule="evenodd" d="M20.2834 18.0001C20.2834 24.064 16.677 28.9949 12.2248 28.9949C8.53864 28.9949 5.42691 25.6119 4.46946 21.0001L6.78331 18.6224C7.40565 17.9682 7.43757 16.9788 6.84714 16.4043C6.25671 15.8299 6.20884 15.5905 4.77265 16.3884C3.33647 17.1863 2.09178 18.2395 0.00134114 17.0267C-0.0944043 15.5586 4.96414 11.266 6.27266 12.2235C8.1397 13.5799 8.85779 14.6171 8.85779 14.6171C9.48014 15.2714 10.4695 15.3352 11.044 14.7607C11.6344 14.1862 11.5865 13.2128 10.9642 12.5586L5.63436 7.05321C5.58649 7.00534 5.53862 6.95747 5.47479 6.90959L5.2833 6.70215C4.43755 5.82448 4.83648 4.08511 6.16096 2.79254C6.99076 1.97871 7.99608 1.54785 8.82588 1.54785C9.32056 1.54785 9.78333 1.70743 10.0865 2.02658L16.677 8.8245C18.8632 10.8192 20.2834 14.1862 20.2834 18.0001Z" fill="black"/>
<path fill-rule="evenodd" clip-rule="evenodd" d="M14.65 11.6329C13.884 12.3829 12.751 12.4627 12.1127 11.8085L6.78289 6.30309C6.16054 5.64883 6.27225 4.5318 7.03821 3.7818C7.80417 3.03179 8.93716 2.95201 9.57546 3.60627L14.9053 9.11163C15.5436 9.74993 15.4319 10.8829 14.65 11.6329Z" fill="white"/>
<path fill-rule="evenodd" clip-rule="evenodd" d="M10.5018 5.23382C10.5018 6.36681 9.57628 7.29234 8.44329 7.29234C7.31031 7.29234 6.38477 6.36681 6.38477 5.23382C6.38477 4.10083 7.31031 3.17529 8.44329 3.17529C9.57628 3.17529 10.5018 4.10083 10.5018 5.23382Z" fill="#E9A734"/>
<path fill-rule="evenodd" clip-rule="evenodd" d="M9.17654 5.18641C9.17654 5.66514 8.79356 6.04812 8.31484 6.04812C7.83611 6.04812 7.45312 5.66514 7.45312 5.18641C7.45312 4.70769 7.83611 4.32471 8.31484 4.32471C8.79356 4.32471 9.17654 4.70769 9.17654 5.18641Z" fill="white"/>
<path fill-rule="evenodd" clip-rule="evenodd" d="M8.9693 5.18631C8.9693 5.53738 8.69802 5.80865 8.34695 5.80865C7.99589 5.80865 7.72461 5.52142 7.72461 5.18631C7.72461 4.83524 7.99589 4.56396 8.34695 4.56396C8.68206 4.56396 8.9693 4.8512 8.9693 5.18631Z" fill="black"/>
<path d="M27.4903 22.0824C27.3709 22.0824 27.2694 22.0407 27.1859 21.9571C27.1023 21.8736 27.0605 21.7721 27.0605 21.6527V9.99681C27.0605 9.86551 27.0964 9.75808 27.168 9.67453C27.2515 9.59097 27.359 9.54919 27.4903 9.54919H29.1196C29.2509 9.54919 29.3523 9.59097 29.424 9.67453C29.5075 9.75808 29.5493 9.86551 29.5493 9.99681V14.6162H34.8312V9.99681C34.8312 9.86551 34.867 9.75808 34.9386 9.67453C35.0221 9.59097 35.1296 9.54919 35.2609 9.54919H36.8723C37.0036 9.54919 37.111 9.59097 37.1946 9.67453C37.2781 9.75808 37.3199 9.86551 37.3199 9.99681V21.6527C37.3199 21.784 37.2781 21.8915 37.1946 21.975C37.111 22.0466 37.0036 22.0824 36.8723 22.0824H35.2609C35.1415 22.0824 35.0401 22.0407 34.9565 21.9571C34.8729 21.8736 34.8312 21.7721 34.8312 21.6527V16.8543H29.5493V21.6527C29.5493 21.7721 29.5075 21.8736 29.424 21.9571C29.3523 22.0407 29.2509 22.0824 29.1196 22.0824H27.4903Z" fill="black"/>
<path d="M43.3451 22.2615C42.247 22.2615 41.3816 21.9034 40.7489 21.1872C40.1163 20.4591 39.8 19.4743 39.8 18.2329V13.2017C39.8 13.0824 39.8418 12.9809 39.9253 12.8974C40.0089 12.8138 40.1103 12.772 40.2297 12.772H41.8053C41.9366 12.772 42.0381 12.8138 42.1097 12.8974C42.1932 12.969 42.235 13.0704 42.235 13.2017V18.1255C42.235 19.6056 42.8856 20.3457 44.1866 20.3457C44.8073 20.3457 45.2967 20.1487 45.6548 19.7548C46.0248 19.3609 46.2099 18.8178 46.2099 18.1255V13.2017C46.2099 13.0824 46.2516 12.9809 46.3352 12.8974C46.4187 12.8138 46.5202 12.772 46.6396 12.772H48.2152C48.3465 12.772 48.4479 12.8138 48.5196 12.8974C48.6031 12.969 48.6449 13.0704 48.6449 13.2017V21.6527C48.6449 21.7721 48.6031 21.8736 48.5196 21.9571C48.4479 22.0407 48.3465 22.0824 48.2152 22.0824H46.7649C46.6455 22.0824 46.5441 22.0407 46.4605 21.9571C46.377 21.8736 46.3352 21.7721 46.3352 21.6527V20.9186C45.6667 21.8139 44.6701 22.2615 43.3451 22.2615Z" fill="black"/>
<path d="M56.1665 22.2615C54.9371 22.2615 53.9821 21.8378 53.3018 20.9903V21.6527C53.3018 21.7721 53.26 21.8736 53.1764 21.9571C53.1048 22.0407 53.0034 22.0824 52.8721 22.0824H51.4576C51.3382 22.0824 51.2368 22.0407 51.1532 21.9571C51.0697 21.8736 51.0279 21.7721 51.0279 21.6527V9.79986C51.0279 9.66856 51.0697 9.5671 51.1532 9.49548C51.2368 9.41192 51.3382 9.37015 51.4576 9.37015H52.9795C53.1108 9.37015 53.2122 9.41192 53.2839 9.49548C53.3674 9.5671 53.4092 9.66856 53.4092 9.79986V13.7747C54.0896 12.9869 55.0087 12.593 56.1665 12.593C57.3721 12.593 58.2972 12.9869 58.9417 13.7747C59.5863 14.5625 59.9325 15.5831 59.9802 16.8364C59.9921 16.9796 59.9981 17.1706 59.9981 17.4093C59.9981 17.66 59.9921 17.857 59.9802 18.0002C59.9325 19.2893 59.5863 20.3218 58.9417 21.0977C58.2972 21.8736 57.3721 22.2615 56.1665 22.2615ZM55.504 20.3457C56.7932 20.3457 57.4795 19.5519 57.5631 17.9644C57.575 17.845 57.581 17.666 57.581 17.4272C57.581 17.1885 57.575 17.0095 57.5631 16.8901C57.4795 15.3026 56.7932 14.5088 55.504 14.5088C54.8356 14.5088 54.3223 14.7236 53.9642 15.1533C53.6181 15.5711 53.4331 16.0784 53.4092 16.6752L53.3913 17.3556L53.4092 18.0539C53.445 18.6985 53.63 19.2416 53.9642 19.6832C54.2985 20.1249 54.8117 20.3457 55.504 20.3457Z" fill="black"/>
<path d="M70.2001 22.2615C68.8036 22.2615 67.7233 21.9034 66.9594 21.1872C66.1955 20.4591 65.7836 19.4684 65.724 18.215L65.7061 17.4272L65.724 16.6394C65.7836 15.398 66.2014 14.4133 66.9773 13.6852C67.7532 12.957 68.8274 12.593 70.2001 12.593C71.5728 12.593 72.6471 12.957 73.423 13.6852C74.1988 14.4133 74.6166 15.398 74.6763 16.6394C74.6882 16.7827 74.6942 17.0453 74.6942 17.4272C74.6942 17.8092 74.6882 18.0718 74.6763 18.215C74.6166 19.4684 74.2048 20.4591 73.4409 21.1872C72.6769 21.9034 71.5967 22.2615 70.2001 22.2615ZM70.2001 20.4889C70.8328 20.4889 71.3222 20.292 71.6683 19.8981C72.0145 19.4922 72.2055 18.9014 72.2413 18.1255C72.2532 18.0062 72.2592 17.7734 72.2592 17.4272C72.2592 17.0811 72.2532 16.8483 72.2413 16.729C72.2055 15.9531 72.0145 15.3682 71.6683 14.9743C71.3222 14.5685 70.8328 14.3655 70.2001 14.3655C69.5675 14.3655 69.0781 14.5685 68.7319 14.9743C68.3858 15.3682 68.1948 15.9531 68.159 16.729L68.1411 17.4272L68.159 18.1255C68.1948 18.9014 68.3858 19.4922 68.7319 19.8981C69.0781 20.292 69.5675 20.4889 70.2001 20.4889Z" fill="black"/>
<path d="M78.0054 22.0824C77.8861 22.0824 77.7846 22.0407 77.7011 21.9571C77.6175 21.8736 77.5757 21.7721 77.5757 21.6527V14.6699H76.1254C76.0061 14.6699 75.9046 14.6281 75.8211 14.5446C75.7375 14.4491 75.6957 14.3417 75.6957 14.2223V13.2017C75.6957 13.0824 75.7375 12.9809 75.8211 12.8974C75.9046 12.8138 76.0061 12.772 76.1254 12.772H77.5757V12.0379C77.5757 9.90132 78.7455 8.83301 81.085 8.83301H82.3026C82.4339 8.83301 82.5353 8.87479 82.6069 8.95834C82.6905 9.02996 82.7323 9.13142 82.7323 9.26272V10.2833C82.7323 10.4146 82.6905 10.522 82.6069 10.6056C82.5234 10.6891 82.4219 10.7309 82.3026 10.7309H81.1567C80.6911 10.7309 80.3629 10.8443 80.1719 11.0711C79.9929 11.2979 79.9033 11.65 79.9033 12.1275V12.772H82.1235C82.2548 12.772 82.3563 12.8138 82.4279 12.8974C82.5114 12.969 82.5532 13.0704 82.5532 13.2017V14.2223C82.5532 14.3536 82.5114 14.461 82.4279 14.5446C82.3443 14.6281 82.2429 14.6699 82.1235 14.6699H79.9033V21.6527C79.9033 21.7721 79.8615 21.8736 79.778 21.9571C79.6944 22.0407 79.593 22.0824 79.4736 22.0824H78.0054Z" fill="black"/>
<path d="M88.3381 22.0824C88.2187 22.0824 88.1173 22.0407 88.0337 21.9571C87.9502 21.8736 87.9084 21.7721 87.9084 21.6527V9.99681C87.9084 9.86551 87.9442 9.75808 88.0158 9.67453C88.0994 9.59097 88.2068 9.54919 88.3381 9.54919H93.1365C94.5689 9.54919 95.6969 9.88938 96.5205 10.5698C97.3441 11.2382 97.7559 12.223 97.7559 13.524C97.7559 14.8251 97.3441 15.8099 96.5205 16.4783C95.7089 17.1348 94.5809 17.463 93.1365 17.463H90.4687V21.6527C90.4687 21.7721 90.427 21.8736 90.3434 21.9571C90.2718 22.0407 90.1703 22.0824 90.039 22.0824H88.3381ZM93.047 15.4756C93.7393 15.4756 94.2705 15.3145 94.6405 14.9922C95.0106 14.658 95.1956 14.1686 95.1956 13.524C95.1956 12.9033 95.0165 12.4199 94.6584 12.0737C94.3003 11.7157 93.7632 11.5366 93.047 11.5366H90.4329V15.4756H93.047Z" fill="black"/>
<path d="M100.14 22.0824C100.021 22.0824 99.9197 22.0407 99.8361 21.9571C99.7526 21.8736 99.7108 21.7721 99.7108 21.6527V9.99681C99.7108 9.86551 99.7466 9.75808 99.8182 9.67453C99.9017 9.59097 100.009 9.54919 100.14 9.54919H104.939C106.371 9.54919 107.499 9.88938 108.323 10.5698C109.147 11.2382 109.558 12.223 109.558 13.524C109.558 14.8251 109.147 15.8099 108.323 16.4783C107.511 17.1348 106.383 17.463 104.939 17.463H102.271V21.6527C102.271 21.7721 102.229 21.8736 102.146 21.9571C102.074 22.0407 101.973 22.0824 101.841 22.0824H100.14ZM104.849 15.4756C105.542 15.4756 106.073 15.3145 106.443 14.9922C106.813 14.658 106.998 14.1686 106.998 13.524C106.998 12.9033 106.819 12.4199 106.461 12.0737C106.103 11.7157 105.566 11.5366 104.849 11.5366H102.235V15.4756H104.849Z" fill="black"/>
<path d="M116.347 22.2615C114.7 22.2615 113.423 21.8378 112.516 20.9903C111.621 20.1428 111.143 18.9491 111.083 17.4093C111.072 17.0871 111.066 16.5618 111.066 15.8337C111.066 15.0937 111.072 14.5565 111.083 14.2223C111.143 12.6944 111.627 11.5068 112.534 10.6593C113.453 9.79986 114.724 9.37015 116.347 9.37015C117.41 9.37015 118.335 9.55516 119.123 9.92519C119.91 10.2833 120.519 10.7786 120.949 11.4113C121.379 12.032 121.605 12.7362 121.629 13.524V13.5598C121.629 13.6553 121.588 13.7389 121.504 13.8105C121.432 13.8702 121.349 13.9 121.253 13.9H119.552C119.409 13.9 119.302 13.8702 119.23 13.8105C119.158 13.7508 119.099 13.6374 119.051 13.4703C118.86 12.7183 118.544 12.1931 118.102 11.8947C117.66 11.5844 117.07 11.4292 116.33 11.4292C114.611 11.4292 113.715 12.3901 113.644 14.3118C113.632 14.6341 113.626 15.1295 113.626 15.7979C113.626 16.4664 113.632 16.9737 113.644 17.3198C113.715 19.2416 114.611 20.2025 116.33 20.2025C117.07 20.2025 117.66 20.0473 118.102 19.7369C118.556 19.4266 118.872 18.9014 119.051 18.1613C119.087 17.9942 119.141 17.8808 119.212 17.8211C119.296 17.7615 119.409 17.7316 119.552 17.7316H121.253C121.361 17.7316 121.45 17.7674 121.522 17.839C121.605 17.9107 121.641 18.0002 121.629 18.1076C121.605 18.8954 121.379 19.6056 120.949 20.2383C120.519 20.859 119.91 21.3543 119.123 21.7244C118.335 22.0825 117.41 22.2615 116.347 22.2615Z" fill="black"/>
<path d="M130.594 22.0824C130.475 22.0824 130.373 22.0407 130.29 21.9571C130.206 21.8736 130.164 21.7721 130.164 21.6527V11.7515H126.852C126.733 11.7515 126.631 11.7097 126.548 11.6261C126.464 11.5426 126.422 11.4411 126.422 11.3218V9.99681C126.422 9.86551 126.458 9.75808 126.53 9.67453C126.613 9.59097 126.721 9.54919 126.852 9.54919H135.983C136.115 9.54919 136.222 9.59097 136.306 9.67453C136.389 9.75808 136.431 9.86551 136.431 9.99681V11.3218C136.431 11.4411 136.389 11.5426 136.306 11.6261C136.222 11.7097 136.115 11.7515 135.983 11.7515H132.689V21.6527C132.689 21.7721 132.647 21.8736 132.564 21.9571C132.48 22.0407 132.373 22.0824 132.241 22.0824H130.594Z" fill="black"/>
<path d="M140.507 22.2615C139.111 22.2615 138.031 21.9034 137.267 21.1872C136.503 20.4591 136.091 19.4684 136.031 18.215L136.013 17.4272L136.031 16.6394C136.091 15.398 136.509 14.4133 137.285 13.6852C138.06 12.957 139.135 12.593 140.507 12.593C141.88 12.593 142.954 12.957 143.73 13.6852C144.506 14.4133 144.924 15.398 144.984 16.6394C144.995 16.7827 145.001 17.0453 145.001 17.4272C145.001 17.8092 144.995 18.0718 144.984 18.215C144.924 19.4684 144.512 20.4591 143.748 21.1872C142.984 21.9034 141.904 22.2615 140.507 22.2615ZM140.507 20.4889C141.14 20.4889 141.629 20.292 141.976 19.8981C142.322 19.4922 142.513 18.9014 142.548 18.1255C142.56 18.0062 142.566 17.7734 142.566 17.4272C142.566 17.0811 142.56 16.8483 142.548 16.729C142.513 15.9531 142.322 15.3682 141.976 14.9743C141.629 14.5685 141.14 14.3655 140.507 14.3655C139.875 14.3655 139.385 14.5685 139.039 14.9743C138.693 15.3682 138.502 15.9531 138.466 16.729L138.448 17.4272L138.466 18.1255C138.502 18.9014 138.693 19.4922 139.039 19.8981C139.385 20.292 139.875 20.4889 140.507 20.4889Z" fill="black"/>
<path d="M151.103 22.2615C149.707 22.2615 148.626 21.9034 147.863 21.1872C147.099 20.4591 146.687 19.4684 146.627 18.215L146.609 17.4272L146.627 16.6394C146.687 15.398 147.105 14.4133 147.88 13.6852C148.656 12.957 149.731 12.593 151.103 12.593C152.476 12.593 153.55 12.957 154.326 13.6852C155.102 14.4133 155.52 15.398 155.579 16.6394C155.591 16.7827 155.597 17.0453 155.597 17.4272C155.597 17.8092 155.591 18.0718 155.579 18.215C155.52 19.4684 155.108 20.4591 154.344 21.1872C153.58 21.9034 152.5 22.2615 151.103 22.2615ZM151.103 20.4889C151.736 20.4889 152.225 20.292 152.571 19.8981C152.918 19.4922 153.109 18.9014 153.144 18.1255C153.156 18.0062 153.162 17.7734 153.162 17.4272C153.162 17.0811 153.156 16.8483 153.144 16.729C153.109 15.9531 152.918 15.3682 152.571 14.9743C152.225 14.5685 151.736 14.3655 151.103 14.3655C150.471 14.3655 149.981 14.5685 149.635 14.9743C149.289 15.3682 149.098 15.9531 149.062 16.729L149.044 17.4272L149.062 18.1255C149.098 18.9014 149.289 19.4922 149.635 19.8981C149.981 20.292 150.471 20.4889 151.103 20.4889Z" fill="black"/>
<path d="M158.029 22.0824C157.909 22.0824 157.808 22.0407 157.724 21.9571C157.641 21.8736 157.599 21.7721 157.599 21.6527V9.79986C157.599 9.66856 157.641 9.5671 157.724 9.49548C157.808 9.41192 157.909 9.37015 158.029 9.37015H159.515C159.646 9.37015 159.748 9.41192 159.819 9.49548C159.903 9.5671 159.945 9.66856 159.945 9.79986V21.6527C159.945 21.7721 159.903 21.8736 159.819 21.9571C159.748 22.0407 159.646 22.0824 159.515 22.0824H158.029Z" fill="black"/>
<path d="M165.847 22.2615C164.952 22.2615 164.2 22.1302 163.591 21.8676C162.982 21.5931 162.528 21.2767 162.23 20.9186C161.944 20.5486 161.8 20.2323 161.8 19.9697C161.8 19.8503 161.842 19.7548 161.926 19.6832C162.009 19.6116 162.105 19.5758 162.212 19.5758H163.627C163.734 19.5758 163.824 19.6176 163.895 19.7011C163.943 19.7369 164.068 19.8444 164.271 20.0234C164.474 20.2144 164.713 20.3636 164.987 20.471C165.262 20.5785 165.566 20.6322 165.9 20.6322C166.378 20.6322 166.772 20.5367 167.082 20.3457C167.393 20.1547 167.548 19.8921 167.548 19.5579C167.548 19.3072 167.476 19.1043 167.333 18.9491C167.202 18.794 166.957 18.6567 166.599 18.5373C166.241 18.406 165.71 18.2688 165.005 18.1255C163.991 17.9107 163.239 17.5824 162.749 17.1408C162.272 16.6991 162.033 16.1142 162.033 15.3861C162.033 14.9087 162.176 14.461 162.463 14.0433C162.749 13.6135 163.173 13.2674 163.734 13.0048C164.307 12.7303 164.987 12.593 165.775 12.593C166.575 12.593 167.267 12.7243 167.852 12.9869C168.437 13.2376 168.879 13.5419 169.177 13.9C169.487 14.2462 169.643 14.5565 169.643 14.8311C169.643 14.9385 169.601 15.034 169.517 15.1175C169.446 15.1892 169.356 15.225 169.249 15.225H167.924C167.828 15.225 167.727 15.1832 167.619 15.0996C167.536 15.04 167.404 14.9266 167.225 14.7594C167.046 14.5923 166.837 14.461 166.599 14.3655C166.36 14.2701 166.08 14.2223 165.757 14.2223C165.316 14.2223 164.969 14.3178 164.719 14.5088C164.48 14.6998 164.361 14.9504 164.361 15.2608C164.361 15.4876 164.42 15.6726 164.54 15.8158C164.659 15.9591 164.892 16.0963 165.238 16.2276C165.584 16.3589 166.103 16.4902 166.796 16.6215C167.942 16.8483 168.759 17.2004 169.249 17.6779C169.75 18.1554 170.001 18.7402 170.001 19.4326C170.001 20.2681 169.637 20.9485 168.908 21.4737C168.18 21.9989 167.16 22.2615 165.847 22.2615Z" fill="black"/>
</svg>
