<svg width="80" height="80" viewBox="0 0 80 80" fill="none" xmlns="http://www.w3.org/2000/svg">
<path fill-rule="evenodd" clip-rule="evenodd" d="M21.8182 0H9.09091C4.07818 0 0 4.07818 0 9.09091V52.7273C0 57.74 4.07818 61.8182 9.09091 61.8182H26.5673L24.1436 69.0909H18.1818C15.1745 69.0909 12.7273 71.5382 12.7273 74.5455V80H67.2727V74.5455C67.2727 71.5382 64.8255 69.0909 61.8182 69.0909H55.8564L53.4327 61.8182H70.9091C75.9218 61.8182 80 57.74 80 52.7273V50.9091V47.2727V43.6364V40V14.5455V10.9091V9.09091C80 4.07818 75.9218 0 70.9091 0H25.4545H21.8182ZM70.9091 3.63636H9.09091C6.08364 3.63636 3.63636 6.08364 3.63636 9.09091V43.6364H76.3636V9.09091C76.3636 6.08364 73.9164 3.63636 70.9091 3.63636ZM63.6364 76.3636V74.5455C63.6364 73.5436 62.82 72.7273 61.8182 72.7273H18.1818C17.18 72.7273 16.3636 73.5436 16.3636 74.5455V76.3636H63.6364ZM27.9782 69.0909H52.0218L49.5982 61.8182H30.4018L27.9782 69.0909ZM9.09091 58.1818H70.9091C73.9164 58.1818 76.3636 55.7345 76.3636 52.7273V47.2727H3.63636V52.7273C3.63636 55.7345 6.08364 58.1818 9.09091 58.1818Z" fill="#009AD4"/>
<path d="M30.9082 50.9091H34.5446V54.5454H30.9082V50.9091Z" fill="#009AD4"/>
<path d="M38.1816 50.9091H41.818V54.5454H38.1816V50.9091Z" fill="#009AD4"/>
<path d="M45.4551 50.9091H49.0914V54.5454H45.4551V50.9091Z" fill="#009AD4"/>
<path d="M21.8178 40H58.1815C61.1887 40 63.636 37.5527 63.636 34.5454V12.7273C63.636 9.71998 61.1887 7.27271 58.1815 7.27271H21.8178C18.8106 7.27271 16.3633 9.71998 16.3633 12.7273V34.5454C16.3633 37.5527 18.8106 40 21.8178 40ZM19.9996 12.7273C19.9996 11.7254 20.816 10.9091 21.8178 10.9091H58.1815C59.1833 10.9091 59.9996 11.7254 59.9996 12.7273V34.5454C59.9996 35.5472 59.1833 36.3636 58.1815 36.3636H21.8178C20.816 36.3636 19.9996 35.5472 19.9996 34.5454V12.7273Z" fill="#009AD4"/>
<path d="M34.6504 33.9408L41.9178 12.1155L45.3687 13.2646L38.1013 35.0899L34.6504 33.9408Z" fill="#009AD4"/>
<path d="M48.5572 32.1945L57.1154 23.6363L48.5572 15.0781L45.9863 17.649L51.9736 23.6363L45.9863 29.6236L48.5572 32.1945Z" fill="#009AD4"/>
<path d="M34.0119 29.6236L28.0246 23.6363L34.0119 17.649L31.441 15.0781L22.8828 23.6363L31.441 32.1945L34.0119 29.6236Z" fill="#009AD4"/>
</svg>
