<svg width="80" height="112" viewBox="0 0 80 112" fill="none" xmlns="http://www.w3.org/2000/svg">
<path d="M77.1697 100.361L73.0863 98.319C73.0478 98.2998 73.0238 98.2611 73.0238 98.2185V95.747C75.1386 94.177 76.5118 91.6622 76.5118 88.8322V85.3442C76.5118 81.5595 73.4329 78.4803 69.6481 78.4803H66.1602C66.1225 78.4803 66.0853 78.4825 66.0477 78.4831V77.0357C66.0477 75.0839 64.9634 73.3293 63.2176 72.4564L59.1338 70.4142C59.0955 70.395 59.0718 70.3565 59.0718 70.3139V67.8426C61.1865 66.2727 62.5597 63.7578 62.5597 60.9276V57.4396C62.5597 54.2173 60.3271 51.508 57.3278 50.7735V45.1192H57.44C60.2631 45.1192 62.5597 42.8224 62.5597 39.9996C62.5597 37.1767 60.2629 34.8799 57.44 34.8799H57.328V6.75141H75.7277L73.4207 11.3659C73.1909 11.8254 73.1909 12.366 73.4207 12.8255L75.7279 17.44H62.672C61.7706 17.44 61.0403 18.1704 61.0403 19.0718C61.0403 19.9731 61.7706 20.7035 62.672 20.7035H78.3681C78.9337 20.7035 79.4589 20.4106 79.7561 19.9296C80.0533 19.4484 80.0805 18.8477 79.8275 18.3418L76.7044 12.0956L79.8275 5.84939C80.0805 5.34356 80.0533 4.74287 79.7561 4.26162C79.4589 3.78059 78.9337 3.48775 78.3681 3.48775H57.328V1.63172C57.328 0.730358 56.5976 0 55.6963 0C54.7949 0 54.0646 0.730358 54.0646 1.63172V35.1483C52.0393 35.8313 50.5764 37.7474 50.5764 40C50.5764 42.2526 52.0393 44.1685 54.0643 44.8516V50.5766H52.2081C52.1705 50.5766 52.1333 50.5788 52.0956 50.5794V49.132C52.0956 47.1802 51.0113 45.4256 49.2656 44.5527L45.1817 42.5105C45.1438 42.4917 45.1197 42.4521 45.1197 42.4102V39.9386C47.2344 38.3687 48.6077 35.8539 48.6077 33.0238V29.5359C48.6077 25.7512 45.5287 22.6722 41.744 22.6722H38.2558C34.4711 22.6722 31.3921 25.7512 31.3921 29.5359V33.0238C31.3921 35.8539 32.7654 38.3687 34.8801 39.9386V42.4102C34.8801 42.453 34.8564 42.4915 34.8181 42.5107L30.7342 44.5527C28.9885 45.4256 27.9042 47.1802 27.9042 49.132V50.5794C27.8667 50.5788 27.8295 50.5766 27.7919 50.5766H24.3039C20.5192 50.5766 17.4403 53.6555 17.4403 57.4403V60.9282C17.4403 63.7583 18.8135 66.2733 20.9282 67.8432V70.3145C20.9282 70.3572 20.9045 70.3957 20.866 70.415L16.7821 72.4571C15.0364 73.33 13.9519 75.0846 13.9519 77.0364V78.4838C13.9144 78.4831 13.8772 78.481 13.8396 78.481H10.3516C6.56691 78.481 3.48797 81.5599 3.48797 85.3449V88.8328C3.48797 91.6629 4.86122 94.1777 6.97593 95.7476V98.2191C6.97593 98.262 6.952 98.3005 6.91393 98.3196L2.83006 100.361C1.08455 101.234 0 102.989 0 104.941V109.76C0 110.662 0.730576 111.392 1.63172 111.392C2.53287 111.392 3.26344 110.662 3.26344 109.76V104.94C3.26344 104.232 3.65658 103.596 4.28947 103.28L7.12279 101.863L9.70852 104.449C10.3462 105.087 11.1938 105.438 12.0956 105.438C12.9974 105.438 13.845 105.087 14.4825 104.449L17.0685 101.863L19.9018 103.28C20.5347 103.596 20.928 104.232 20.928 104.94V109.76C20.928 110.662 21.6586 111.392 22.5597 111.392C23.4609 111.392 24.1915 110.662 24.1915 109.76V104.94C24.1915 102.988 23.1069 101.234 21.3612 100.361L17.2775 98.319C17.239 98.2998 17.2151 98.2611 17.2151 98.2185V95.7472C19.3298 94.1773 20.7033 91.6624 20.7033 88.8324V85.3444C20.7033 82.7863 19.2956 80.5522 17.2151 79.3717V77.0361C17.2151 76.3284 17.6084 75.6922 18.2413 75.3757L21.0744 73.9591L23.6606 76.5451C24.3185 77.203 25.1831 77.532 26.0475 77.532C26.9119 77.532 27.7765 77.203 28.4346 76.5451L31.0205 73.9591L33.8536 75.3757C34.4867 75.6922 34.8799 76.3284 34.8799 77.0361V79.3717C32.7995 80.5522 31.3919 82.7863 31.3919 85.3444V88.8324C31.3919 91.6624 32.7652 94.1773 34.8799 95.7472V98.2187C34.8799 98.2616 34.8559 98.3001 34.8179 98.3192L30.734 100.361C28.9883 101.234 27.9039 102.989 27.9039 104.94V109.76C27.9039 110.662 28.6345 111.392 29.5357 111.392C30.4368 111.392 31.1674 110.662 31.1674 109.76V104.94C31.1674 104.232 31.5605 103.596 32.1934 103.28L35.0267 101.863L37.6127 104.449C38.2504 105.087 39.098 105.438 39.9998 105.438C40.9018 105.438 41.7494 105.087 42.3869 104.449L44.9728 101.863L47.8059 103.28C48.4388 103.596 48.8322 104.232 48.8322 104.94V109.76C48.8322 110.662 49.5625 111.392 50.4639 111.392C51.3653 111.392 52.0956 110.662 52.0956 109.76V104.94C52.0956 102.988 51.0113 101.234 49.2653 100.361L45.1819 98.319C45.1434 98.2998 45.1195 98.2611 45.1195 98.2185V95.747C47.2342 94.177 48.6074 91.6622 48.6074 88.8322V85.3442C48.6074 82.7861 47.1998 80.552 45.1195 79.3715V77.0359C45.1195 76.3282 45.5128 75.692 46.1457 75.3755L48.9788 73.9589L51.5648 76.5449C52.2229 77.2028 53.0873 77.532 53.9519 77.532C54.8165 77.532 55.6806 77.2028 56.339 76.5449L58.9249 73.9589L61.758 75.3755C62.3909 75.692 62.7843 76.3282 62.7843 77.0359V79.3715C60.7039 80.552 59.2963 82.7861 59.2963 85.3442V88.8322C59.2963 91.6622 60.6695 94.177 62.7843 95.747V98.2185C62.7843 98.2613 62.7605 98.2998 62.7225 98.319L58.6384 100.361C56.8929 101.234 55.8083 102.988 55.8083 104.94V109.76C55.8083 110.662 56.5387 111.392 57.44 111.392C58.3414 111.392 59.0718 110.662 59.0718 109.76V104.94C59.0718 104.232 59.4651 103.596 60.0978 103.28L62.9313 101.863L65.5171 104.449C66.1752 105.107 67.0398 105.436 67.9042 105.436C68.7688 105.436 69.6331 105.107 70.2915 104.449L72.8774 101.863L75.7103 103.28C76.3432 103.596 76.7366 104.232 76.7366 104.94V109.76C76.7366 110.662 77.4669 111.392 78.3683 111.392C79.2696 111.392 80 110.662 80 109.76V104.94C80 102.988 78.9154 101.234 77.1697 100.361ZM12.175 102.141C12.167 102.149 12.1422 102.174 12.0958 102.174C12.0493 102.174 12.0245 102.149 12.0164 102.141L9.78597 99.9109C10.0773 99.4077 10.2394 98.8281 10.2394 98.2185V97.44H13.9521V98.2185C13.9521 98.8281 14.1142 99.4077 14.4055 99.9109L12.175 102.141ZM17.4403 85.3444V88.8324C17.4403 91.7793 15.0427 94.1766 12.0958 94.1766C9.14895 94.1766 6.75163 91.7791 6.75163 88.8324V85.3444C6.75163 83.3592 8.36659 81.744 10.3519 81.744H13.8398C15.8251 81.744 17.4403 83.3592 17.4403 85.3444ZM53.84 39.9998C53.84 38.9761 54.6726 38.1435 55.6963 38.1435H57.4403C58.4639 38.1435 59.2965 38.9761 59.2965 39.9998C59.2965 41.0234 58.4639 41.856 57.4403 41.856H55.6963C54.6726 41.856 53.84 41.0234 53.84 39.9998ZM34.656 33.0238V29.5359C34.656 27.5508 36.2708 25.9357 38.256 25.9357H41.7442C43.7292 25.9357 45.3444 27.5508 45.3444 29.5359V33.0238C45.3444 35.9707 42.9469 38.3681 40.0002 38.3681C37.0533 38.3681 34.656 35.9705 34.656 33.0238ZM42.3096 44.1026L40.079 46.3328C40.0709 46.3409 40.0463 46.3657 39.9998 46.3657C39.9532 46.3657 39.9284 46.3409 39.9204 46.3326L37.6901 44.1026C37.9815 43.5994 38.1435 43.0198 38.1435 42.4099V41.6315H41.8562V42.4099C41.8562 43.0198 42.0183 43.5991 42.3096 44.1026ZM26.1273 74.2372C26.0836 74.2807 26.0125 74.2811 25.9685 74.2372L23.7383 72.007C24.0296 71.5037 24.1917 70.9242 24.1917 70.3143V69.5361H27.9042V70.3143C27.9042 70.9239 28.0662 71.5035 28.3576 72.007L26.1273 74.2372ZM26.0479 66.2724C23.1012 66.2724 20.7037 63.8749 20.7037 60.928V57.44C20.7037 55.4548 22.3187 53.8398 24.3039 53.8398H27.7919C29.7772 53.8398 31.3921 55.4548 31.3921 57.44V60.928C31.3921 63.8751 28.9946 66.2724 26.0479 66.2724ZM40.079 102.141C40.0709 102.149 40.0463 102.174 39.9998 102.174C39.9532 102.174 39.9284 102.149 39.9204 102.141L37.6901 99.9109C37.9815 99.4077 38.1435 98.8281 38.1435 98.2185V97.44H41.8562V98.2185C41.8562 98.8281 42.0183 99.4075 42.3096 99.9107L40.079 102.141ZM45.3446 85.3444V88.8324C45.3446 91.7793 42.9469 94.1766 40.0002 94.1766C37.0533 94.1766 34.656 91.7791 34.656 88.8324V85.3444C34.656 83.3592 36.271 81.744 38.2562 81.744H41.7444C43.7295 81.744 45.3446 83.3592 45.3446 85.3444ZM48.8326 70.3141C48.8326 70.357 48.8089 70.3955 48.7706 70.4146L44.6863 72.4567C42.9408 73.3295 41.8562 75.0842 41.8562 77.0359V78.4834C41.8188 78.4827 41.7816 78.4805 41.744 78.4805H38.2558C38.2182 78.4805 38.181 78.4827 38.1435 78.4834V77.0359C38.1435 75.0842 37.0592 73.3295 35.3135 72.4567L31.2294 70.4144C31.1913 70.3955 31.1676 70.357 31.1676 70.3141V67.8428C33.2823 66.2729 34.6556 63.7581 34.6556 60.9278V57.4398C34.6556 54.8817 33.2479 52.6478 31.1676 51.4673V49.1318C31.1676 48.424 31.5607 47.7879 32.1936 47.4713L35.027 46.0548L37.6129 48.6405C38.2506 49.2782 39.0982 49.6293 40 49.6293C40.902 49.6293 41.7496 49.278 42.3869 48.6405L44.973 46.0546L47.8064 47.4713C48.4393 47.7879 48.8326 48.424 48.8326 49.1318V51.4673C46.7523 52.6478 45.3446 54.8819 45.3446 57.4398V60.9278C45.3446 63.7578 46.7179 66.2729 48.8326 67.8428V70.3141ZM54.0313 74.237C53.9875 74.2809 53.9166 74.2809 53.8729 74.2372L51.6424 72.0067C51.9337 71.5033 52.0958 70.9239 52.0958 70.3141V69.5359H55.8083V70.3141C55.8083 70.9237 55.9704 71.5033 56.2617 72.0065L54.0313 74.237ZM53.9523 66.2724C51.0056 66.2724 48.6081 63.8749 48.6081 60.928V57.44C48.6081 55.4548 50.2233 53.8398 52.2085 53.8398H55.6963C57.6813 53.8398 59.2965 55.4548 59.2965 57.44V60.928C59.2965 63.8751 56.899 66.2724 53.9523 66.2724ZM67.9836 102.141C67.9403 102.186 67.8691 102.186 67.825 102.141L65.5945 99.9107C65.8858 99.4075 66.0479 98.8279 66.0479 98.2183V97.4398H69.7604V98.2183C69.7604 98.8279 69.9225 99.4072 70.2138 99.9107L67.9836 102.141ZM67.9044 94.1764C64.9577 94.1764 62.5602 91.7788 62.5602 88.8322V85.3442C62.5602 83.3589 64.1751 81.7438 66.1604 81.7438H69.6484C71.6334 81.7438 73.2486 83.3589 73.2486 85.3442V88.8322C73.2486 91.7791 70.8511 94.1764 67.9044 94.1764Z" fill="#009AD4"/>
</svg>
