<svg xmlns="http://www.w3.org/2000/svg" viewBox="-7278 23 116 40">
  <defs>
    <style>
      .cls-1, .cls-5 {
        fill: #ffaa1f;
      }

      .cls-1, .cls-2, .cls-3, .cls-4 {
        fill-rule: evenodd;
      }

      .cls-2 {
        fill: #231f20;
      }

      .cls-4 {
        fill: #fff;
      }
    </style>
  </defs>
  <g id="Group_369" data-name="Group 369" transform="translate(-7277.99 23)">
    <g id="Group_1" data-name="Group 1" transform="translate(-0.01)">
      <path id="Path_1" data-name="Path 1" class="cls-1" d="M10.949,156.6l.224.017,3.47,3.82a4.621,4.621,0,0,1,.56.673c-1.983,1.195-6.3,3.9-6.3,3.9l.608-2.019-2.063.488.816-2.221-2.063.32Z" transform="translate(-5.207 -130.247)"/>
      <path id="Path_2" data-name="Path 2" class="cls-1" d="M32.817,187.6l.224.017,3.486,3.837a4.621,4.621,0,0,1,.56.673c-1.983,1.195-6.284,3.9-6.284,3.9l.608-2.019-2.063.488.816-2.221-2.063.32Z" transform="translate(-23.605 -156.031)"/>
      <path id="Path_3" data-name="Path 3" class="cls-2" d="M76.734.1c-.352,1.868-.336,3.769-.8,5.621-.7-.151-1.327-.875-1.935-1.8A7.44,7.44,0,0,1,76.655,0C76.686.034,76.7.067,76.734.1Z" transform="translate(-62.165)"/>
      <path id="Path_4" data-name="Path 4" class="cls-3" d="M24.41,32.616c0,7.69-4.35,13.917-9.707,13.917-4.445,0-8.187-4.291-9.339-10.13L8.147,33.39a2.085,2.085,0,0,0,.08-2.81c-.72-.724-.768-1.027-2.495-.017s-3.23,2.356-5.741.808C-.12,29.5,5.957,24.084,7.54,25.3a15.049,15.049,0,0,1,3.118,3.046,1.8,1.8,0,0,0,2.639.185,2.043,2.043,0,0,0-.1-2.777L6.788,18.767a1.956,1.956,0,0,0-.192-.185l-.24-.252c-1.023-1.094-.544-3.315,1.055-4.964A4.751,4.751,0,0,1,10.626,11.8a2.031,2.031,0,0,1,1.519.606l7.932,8.616C22.683,23.512,24.41,27.77,24.41,32.616Z" transform="translate(0.01 -9.814)"/>
      <path id="Path_5" data-name="Path 5" class="cls-4" d="M57.952,34.489a2.124,2.124,0,0,1-3.054.236l-6.428-6.984a2.379,2.379,0,0,1,.32-3.2h0a2.124,2.124,0,0,1,3.054-.236l6.412,6.967a2.4,2.4,0,0,1-.3,3.214Z" transform="translate(-40.312 -19.765)"/>
      <path id="Path_6" data-name="Path 6" class="cls-1" d="M52.957,26.507A2.482,2.482,0,1,1,50.479,23.9,2.548,2.548,0,0,1,52.957,26.507Z" transform="translate(-40.323 -19.877)"/>
      <path id="Path_7" data-name="Path 7" class="cls-4" d="M58.179,33.577a1.041,1.041,0,1,1-2.079,0A1.051,1.051,0,0,1,57.139,32.5,1.061,1.061,0,0,1,58.179,33.577Z" transform="translate(-47.128 -27.031)"/>
      <ellipse id="Ellipse_1" data-name="Ellipse 1" cx="0.752" cy="0.791" rx="0.752" ry="0.791" transform="translate(9.276 5.772)"/>
    </g>
    <g id="Group_2" data-name="Group 2" transform="translate(37.267 27.547)">
      <path id="Path_8" data-name="Path 8" class="cls-5" d="M238.377,165.7c-.1-.084-.208-.185-.352-.3a3.5,3.5,0,0,0-.48-.32,3.023,3.023,0,0,0-.576-.252,2.2,2.2,0,0,0-.688-.1,2.577,2.577,0,0,0-.848.135,1.622,1.622,0,0,0-.576.337,1.333,1.333,0,0,0-.336.471,1.529,1.529,0,0,0-.112.522.9.9,0,0,0,.176.538,1.43,1.43,0,0,0,.48.387,6.053,6.053,0,0,0,.656.286c.24.084.5.151.736.236.224.067.464.135.7.2a5.03,5.03,0,0,1,.7.252,3.844,3.844,0,0,1,.64.32,2.267,2.267,0,0,1,.528.438,1.873,1.873,0,0,1,.352.572,2.194,2.194,0,0,1,.128.757,2.586,2.586,0,0,1-.256,1.178,2.625,2.625,0,0,1-.688.892,3.054,3.054,0,0,1-1.023.555,3.908,3.908,0,0,1-1.263.2,3.815,3.815,0,0,1-.88-.1,4.88,4.88,0,0,1-.832-.286,3.637,3.637,0,0,1-.752-.488,3.046,3.046,0,0,1-.624-.673.371.371,0,0,1-.1-.219.3.3,0,0,1,.1-.2l.368-.32.1-.05a.194.194,0,0,1,.1-.017.138.138,0,0,1,.08.017c.032.017.048.034.08.05l.064.067.048.05a2.744,2.744,0,0,0,.576.488,5.858,5.858,0,0,0,.624.353,3.308,3.308,0,0,0,.608.219,2,2,0,0,0,.5.067,2.479,2.479,0,0,0,.5-.05,4.312,4.312,0,0,0,.5-.135,2.427,2.427,0,0,0,.464-.236,1.879,1.879,0,0,0,.384-.337,1.477,1.477,0,0,0,.256-.438,1.46,1.46,0,0,0,.1-.538.988.988,0,0,0-.192-.623,1.688,1.688,0,0,0-.512-.438,3.973,3.973,0,0,0-.752-.3c-.288-.084-.576-.168-.879-.252a10.132,10.132,0,0,1-1.247-.421,3.589,3.589,0,0,1-.9-.522,1.774,1.774,0,0,1-.528-.639,1.884,1.884,0,0,1-.176-.825,2.319,2.319,0,0,1,.208-1.01,2.349,2.349,0,0,1,.592-.791,3.156,3.156,0,0,1,.927-.522,3.969,3.969,0,0,1,1.231-.185,3.56,3.56,0,0,1,1.407.32,3.653,3.653,0,0,1,.656.37,4.08,4.08,0,0,1,.56.471,1.5,1.5,0,0,1,.144.168.321.321,0,0,1,.08.168.263.263,0,0,1-.1.185l-.352.353a.25.25,0,0,1-.16.084C238.521,165.837,238.457,165.787,238.377,165.7Z" transform="translate(-233.1 -163.7)"/>
      <path id="Path_9" data-name="Path 9" class="cls-5" d="M327.3,164.5a.3.3,0,0,1,.192.067.391.391,0,0,1,.1.2v.5a.286.286,0,0,1-.08.2.269.269,0,0,1-.208.084h-2.463v7.69a.3.3,0,0,1-.064.2.259.259,0,0,1-.192.084h-.464a.259.259,0,0,1-.192-.084.286.286,0,0,1-.08-.2v-7.69h-2.479a.247.247,0,0,1-.192-.067.3.3,0,0,1-.08-.219v-.5a.232.232,0,0,1,.08-.2.247.247,0,0,1,.192-.067Z" transform="translate(-307.028 -164.365)"/>
      <path id="Path_10" data-name="Path 10" class="cls-5" d="M413.291,169.834a3.66,3.66,0,0,0,.176,1.111,2.8,2.8,0,0,0,.5.892,2.138,2.138,0,0,0,.784.589,2.335,2.335,0,0,0,1.055.219,2.476,2.476,0,0,0,1.087-.219,2.449,2.449,0,0,0,.8-.606,2.771,2.771,0,0,0,.48-.892,3.471,3.471,0,0,0,.16-1.094v-5.065a.277.277,0,0,1,.08-.185.258.258,0,0,1,.192-.084h.432a.311.311,0,0,1,.208.067.244.244,0,0,1,.1.2v5.183a4.164,4.164,0,0,1-.272,1.514,3.564,3.564,0,0,1-.752,1.161,3.714,3.714,0,0,1-1.119.757,3.545,3.545,0,0,1-2.75-.017,3.361,3.361,0,0,1-1.119-.791,3.739,3.739,0,0,1-.752-1.178,3.632,3.632,0,0,1-.272-1.447v-5.183a.29.29,0,0,1,.064-.185.224.224,0,0,1,.176-.084h.5a.285.285,0,0,1,.176.084.236.236,0,0,1,.1.185v5.065Z" transform="translate(-383.644 -164.365)"/>
      <path id="Path_11" data-name="Path 11" class="cls-5" d="M510.5,164.786c0-.2.1-.286.272-.286h2.591a3.923,3.923,0,0,1,1.167.168,3.557,3.557,0,0,1,1.023.454,4.366,4.366,0,0,1,.863.707,4.671,4.671,0,0,1,.672.909,5.755,5.755,0,0,1,.432,1.077,5.018,5.018,0,0,1,.144,1.212,4.776,4.776,0,0,1-.592,2.272,4.671,4.671,0,0,1-.672.909,4.5,4.5,0,0,1-.863.707,3.762,3.762,0,0,1-1.023.454,4.337,4.337,0,0,1-1.151.168h-2.591a.365.365,0,0,1-.192-.05.235.235,0,0,1-.08-.2Zm2.926,7.707a3.044,3.044,0,0,0,1.679-.5,3.645,3.645,0,0,0,.656-.572,3.78,3.78,0,0,0,.5-.724,3.741,3.741,0,0,0,.3-.841,3.45,3.45,0,0,0,.112-.909,3.548,3.548,0,0,0-.272-1.4,3.287,3.287,0,0,0-.72-1.077,3.247,3.247,0,0,0-2.319-.926h-1.855v6.95Z" transform="translate(-466.141 -164.365)"/>
      <path id="Path_12" data-name="Path 12" class="cls-5" d="M608.691,173.251a.277.277,0,0,1-.064.2.247.247,0,0,1-.192.067h-.48c-.176,0-.256-.084-.256-.269v-8.481a.277.277,0,0,1,.064-.2.247.247,0,0,1,.192-.067h.48a.247.247,0,0,1,.192.067.286.286,0,0,1,.08.2v8.481Z" transform="translate(-547.798 -164.365)"/>
      <path id="Path_13" data-name="Path 13" class="cls-5" d="M670.63,163.8a3.849,3.849,0,0,1,1.167.168,4.971,4.971,0,0,1,1.055.471,4.639,4.639,0,0,1,.9.724,4.371,4.371,0,0,1,.688.942,5.527,5.527,0,0,1,.448,1.111,4.577,4.577,0,0,1,.16,1.245,4.456,4.456,0,0,1-.16,1.228,4.725,4.725,0,0,1-.448,1.111,4.825,4.825,0,0,1-.688.942,4.2,4.2,0,0,1-.9.724,4.345,4.345,0,0,1-1.055.471,3.953,3.953,0,0,1-1.183.168,3.777,3.777,0,0,1-1.167-.168,4.25,4.25,0,0,1-1.055-.471,4.638,4.638,0,0,1-.9-.724,4.37,4.37,0,0,1-.688-.942,4.829,4.829,0,0,1-.448-1.111,5.16,5.16,0,0,1-.16-1.228,4.456,4.456,0,0,1,.16-1.228,5.527,5.527,0,0,1,.448-1.111,4.825,4.825,0,0,1,.688-.942,4.2,4.2,0,0,1,.9-.724,4.639,4.639,0,0,1,1.055-.471A3.964,3.964,0,0,1,670.63,163.8Zm-3.422,4.628a3.671,3.671,0,0,0,.272,1.4,3.544,3.544,0,0,0,.736,1.144,3.434,3.434,0,0,0,1.087.774,3.252,3.252,0,0,0,1.327.286,3.123,3.123,0,0,0,1.311-.286,3.351,3.351,0,0,0,1.087-.774,3.593,3.593,0,0,0,.72-1.144,3.736,3.736,0,0,0,.272-1.4,3.614,3.614,0,0,0-.128-.942,3.955,3.955,0,0,0-.336-.858,3.3,3.3,0,0,0-.528-.724,3.171,3.171,0,0,0-.688-.555,3.551,3.551,0,0,0-.815-.353,3.15,3.15,0,0,0-2.223.151,3.572,3.572,0,0,0-1.087.757,3.373,3.373,0,0,0-.736,1.144A3.65,3.65,0,0,0,667.208,168.428Z" transform="translate(-596.943 -163.783)"/>
    </g>
    <rect id="Rectangle_1" data-name="Rectangle 1" class="cls-5" width="0.704" height="27.749" transform="translate(30.599 9.205)"/>
    <g id="Group_3" data-name="Group 3" transform="translate(36.259 9.558)">
      <path id="Path_14" data-name="Path 14" d="M226.8,58.338a.586.586,0,0,1,.128-.387.447.447,0,0,1,.368-.151h4.973a3.6,3.6,0,0,1,1.647.37,4.121,4.121,0,0,1,1.311.993,4.544,4.544,0,0,1,.864,1.43,4.669,4.669,0,0,1,.3,1.683,4.67,4.67,0,0,1-1.151,3.063,4.52,4.52,0,0,1-1.3.993,3.536,3.536,0,0,1-1.631.37h-2.878v4.476c0,.337-.16.488-.48.488H227.3a.525.525,0,0,1-.352-.118.511.511,0,0,1-.128-.37V58.338Zm6.94,3.921a1.965,1.965,0,0,0-.144-.74,2.682,2.682,0,0,0-.384-.656,2.026,2.026,0,0,0-.592-.454,1.6,1.6,0,0,0-.752-.168h-2.463v4.039h2.463a1.535,1.535,0,0,0,.736-.168,2.026,2.026,0,0,0,.592-.454,2.309,2.309,0,0,0,.384-.639A1.736,1.736,0,0,0,233.74,62.259Z" transform="translate(-226.8 -57.632)"/>
      <path id="Path_15" data-name="Path 15" d="M296.6,58.254q0-.454.384-.454h8.555a.422.422,0,0,1,.336.135.554.554,0,0,1,.1.337V59.92a.417.417,0,0,1-.112.3.446.446,0,0,1-.336.135h-6.3V63.2h4.861a.351.351,0,0,1,.288.084.4.4,0,0,1,.112.337v1.683a.486.486,0,0,1-.1.3.344.344,0,0,1-.288.135h-4.877v3.4h6.54a.4.4,0,0,1,.336.118.627.627,0,0,1,.08.353v1.7a.336.336,0,0,1-.384.387h-8.779a.392.392,0,0,1-.272-.1.37.37,0,0,1-.112-.3V58.254Z" transform="translate(-285.438 -57.632)"/>
      <path id="Path_16" data-name="Path 16" d="M367.9,58.221a.438.438,0,0,1,.1-.286.334.334,0,0,1,.288-.118h2.079a.6.6,0,0,1,.288.067.482.482,0,0,1,.224.219l5.837,8.65V58.1a.446.446,0,0,1,.176-.236.588.588,0,0,1,.208-.067h1.791a.457.457,0,0,1,.288.118.346.346,0,0,1,.144.3V71.262q0,.4-.432.4H377a.251.251,0,0,1-.176-.084c-.064-.067-.112-.135-.192-.219l-6.157-9.339v9.239a.336.336,0,0,1-.384.4H368.3q-.384,0-.384-.4V58.221Z" transform="translate(-345.337 -57.632)"/>
      <path id="Path_17" data-name="Path 17" d="M460.823,60.25a4.215,4.215,0,0,0-1.2-.656,4.059,4.059,0,0,0-1.359-.236,3.894,3.894,0,0,0-1.663.353,4.253,4.253,0,0,0-1.311.976,4.444,4.444,0,0,0-.864,1.447,5.339,5.339,0,0,0,0,3.551,4.627,4.627,0,0,0,.864,1.447,4.073,4.073,0,0,0,1.311.976,3.843,3.843,0,0,0,1.663.353,7.041,7.041,0,0,0,.816-.05,7.737,7.737,0,0,0,.864-.151v-3.1a.408.408,0,0,1,.1-.286.334.334,0,0,1,.288-.118h1.6a.457.457,0,0,1,.288.118.345.345,0,0,1,.144.3v4.325a.429.429,0,0,1-.256.4,5.967,5.967,0,0,1-1.791.875,7.415,7.415,0,0,1-2.031.286,6.435,6.435,0,0,1-1.807-.252,6.141,6.141,0,0,1-1.615-.724,7.37,7.37,0,0,1-1.375-1.111,6.919,6.919,0,0,1-1.055-1.43,6.825,6.825,0,0,1-.688-1.7,7.658,7.658,0,0,1,0-3.8,7.327,7.327,0,0,1,1.743-3.164,6.344,6.344,0,0,1,1.375-1.111,6.741,6.741,0,0,1,1.615-.724,6.435,6.435,0,0,1,1.807-.252,6.015,6.015,0,0,1,2,.32,6.257,6.257,0,0,1,1.791.909.767.767,0,0,1,.224.236.407.407,0,0,1-.032.353l-.864,1.548c-.1.118-.176.2-.272.219C461.063,60.351,460.951,60.317,460.823,60.25Z" transform="translate(-415.568 -56.8)"/>
      <path id="Path_18" data-name="Path 18" d="M537.622,66.28a3.469,3.469,0,0,0,.208,1.228,3.4,3.4,0,0,0,.576,1.01,2.833,2.833,0,0,0,.9.69,2.563,2.563,0,0,0,1.135.252,2.515,2.515,0,0,0,1.135-.252,2.771,2.771,0,0,0,.88-.69,2.825,2.825,0,0,0,.576-1.01,3.469,3.469,0,0,0,.208-1.228V58.3a.379.379,0,0,1,.112-.286.387.387,0,0,1,.3-.118h1.759a.435.435,0,0,1,.3.118.346.346,0,0,1,.144.3V66.3a5.773,5.773,0,0,1-.432,2.221,5.9,5.9,0,0,1-1.167,1.817,5.577,5.577,0,0,1-1.727,1.228,4.972,4.972,0,0,1-2.111.454,5.136,5.136,0,0,1-1.439-.2,5.388,5.388,0,0,1-2.4-1.464,5.443,5.443,0,0,1-.847-1.161,5.869,5.869,0,0,1-.544-1.363A5.948,5.948,0,0,1,535,66.314V58.3a.368.368,0,0,1,.112-.269.335.335,0,0,1,.272-.135h1.839a.42.42,0,0,1,.272.118.383.383,0,0,1,.144.286V66.28Z" transform="translate(-485.716 -57.715)"/>
      <path id="Path_19" data-name="Path 19" d="M619.7,58.3a.439.439,0,0,1,.1-.286.334.334,0,0,1,.288-.118h1.791a.457.457,0,0,1,.288.118.346.346,0,0,1,.144.3V71.362q0,.4-.432.4h-1.791q-.384,0-.384-.4Z" transform="translate(-556.871 -57.715)"/>
      <path id="Path_20" data-name="Path 20" d="M654,58.221a.439.439,0,0,1,.1-.286.334.334,0,0,1,.288-.118h2.079a.6.6,0,0,1,.288.067.482.482,0,0,1,.224.219l5.837,8.65V58.1a.447.447,0,0,1,.176-.236.589.589,0,0,1,.208-.067h1.791a.457.457,0,0,1,.288.118.346.346,0,0,1,.144.3V71.262q0,.4-.432.4h-1.871a.251.251,0,0,1-.176-.084c-.064-.067-.112-.135-.192-.219l-6.172-9.339v9.239a.336.336,0,0,1-.384.4H654.4q-.384,0-.384-.4V58.221Z" transform="translate(-585.687 -57.632)"/>
    </g>
  </g>
</svg>
