<svg width="32" height="31" viewBox="0 0 32 31" fill="none" xmlns="http://www.w3.org/2000/svg">
<path fill-rule="evenodd" clip-rule="evenodd" d="M25 0.8H7C5.23269 0.8 3.8 2.59741 3.8 4C3.8 4.5 3 4.55321 3 4C3 2.09237 4.79086 0 7 0H25C27.2091 0 29 1.79086 29 4V16C29 18.2091 27.2091 20 25 20H7C4.79086 20 3 18.2091 3 16C3 16 3 9.56646 3 9C3 8.43354 3.8 8.42201 3.8 9C3.8 9.57799 3.8 16 3.8 16C3.8 17.7673 5.23269 19.2 7 19.2H25C26.7673 19.2 28.2 17.7673 28.2 16V4C28.2 2.23269 26.7673 0.8 25 0.8ZM3.8 7C3.8 6.5 3.8 5.75648 3.8 5.32618C3.8 4.89588 3 4.82618 3 5.32618C3 5.82618 3 6.5 3 7C3 7.5 3.8 7.5 3.8 7Z" fill="#FF9404"/>
<path d="M29.592 15.3215C28.589 16.4389 24.2711 17.8545 23.7143 17.8545C23.1574 17.8545 20.0414 17.8545 18.9821 17.8545C17.9246 17.8545 16.1416 18.1338 16.1416 18.8031C16.1416 18.8031 16.1416 26.9589 16.1416 27.3376C16.1416 28.1176 17.2253 29.9999 20.512 29.9999C23.7986 29.9999 24.6592 26.1096 24.6592 25.4421C24.6592 24.7728 24.6592 22.4292 24.6592 20.7005C26.9972 19.4725 29.3914 18.8031 30.537 16.6077C31.615 14.5397 30.5932 14.2059 29.592 15.3215Z" fill="white" stroke="#FF9404" stroke-width="0.8"/>
<path d="M15.1965 22.5939C15.1965 24.3807 15.1965 26.5555 15.1965 27.3355C15.1965 28.1173 13.9722 29.2329 12.3579 29.2329C10.7436 29.2329 7.62569 26.9474 7.62569 25.44C7.62569 23.9344 7.62569 20.3065 7.62569 20.3065C7.62569 20.3065 3.30408 18.6135 2.30102 17.3855C1.29796 16.1574 0.797361 15.655 1.07672 14.9331C1.34483 14.2319 4.58463 16.9411 6.47826 17.3873C8.37376 17.8336 11.6567 18.0567 13.0497 18.0023C14.4409 17.9442 15.2208 18.501 15.9989 19.2247C15.9989 19.2247 16.8501 20.3272 19.0118 20.3065C21.1736 20.2859 21.499 19.5 22.2951 19.2247C22.9123 19.0113 23.4122 18.9266 23.4122 19.521C23.4122 20.1153 20.7649 22.3445 19.0118 22.7626C18.1925 22.9576 15.9989 23.1376 15.1965 22.5939Z" fill="white" stroke="#FF9404" stroke-width="0.8"/>
<path d="M20.561 16.3036C22.3906 16.3036 23.8739 14.8178 23.8739 12.985C23.8739 11.1523 22.3906 9.6665 20.561 9.6665C18.7313 9.6665 17.248 11.1523 17.248 12.985C17.248 14.8178 18.7313 16.3036 20.561 16.3036Z" stroke="#FF9404" stroke-width="0.8"/>
<path d="M11.8315 16.3036C13.6611 16.3036 15.1444 14.8178 15.1444 12.985C15.1444 11.1523 13.6611 9.6665 11.8315 9.6665C10.0018 9.6665 8.51855 11.1523 8.51855 12.985C8.51855 14.8178 10.0018 16.3036 11.8315 16.3036Z" stroke="#FF9404" stroke-width="0.8"/>
</svg>
