<svg width="31" height="30" viewBox="0 0 31 30" fill="none" xmlns="http://www.w3.org/2000/svg">
<path fill-rule="evenodd" clip-rule="evenodd" d="M8.12751 1.68334C10.2006 0.607591 12.5556 0 15.0514 0C23.3649 0 30.1028 6.73789 30.1028 15.0514C30.1028 22.5657 24.5995 28.7917 17.4026 29.9206L16.8963 30V18.8371H20.3634L20.8768 15.4898H16.8963V12.3115C16.8963 11.67 17.0524 10.9825 17.5124 10.4498C17.9827 9.90519 18.7121 9.5898 19.715 9.5898H21.1204V6.80834C20.9505 6.78405 20.7291 6.75444 20.4724 6.7248C19.8631 6.65445 19.0638 6.58499 18.288 6.58499C16.7069 6.58499 15.4485 7.0624 14.586 7.92593C13.7238 8.78903 13.2065 10.0885 13.2065 11.832V15.4898H9.49618V18.8371H13.2065V30L12.7002 29.9206C5.50335 28.7917 0 22.5657 0 15.0514C0 11.0988 1.52362 7.50157 4.01488 4.81639C4.17956 4.6389 4.45694 4.62851 4.63443 4.79318C4.81192 4.95785 4.82231 5.23523 4.65764 5.41272C2.31089 7.94214 0.876781 11.3286 0.876781 15.0514C0.876781 21.95 5.80276 27.6967 12.3297 28.9655V19.7139H8.6194V14.613H12.3297V11.832C12.3297 9.91363 12.9027 8.37043 13.9656 7.30629C15.0282 6.24259 16.5297 5.70821 18.288 5.70821C19.1105 5.70821 19.9465 5.78146 20.573 5.85381C20.8872 5.89009 21.1508 5.92639 21.3363 5.9537C21.4291 5.96736 21.5025 5.97878 21.5529 5.98685C21.5782 5.99088 21.5977 5.99408 21.6111 5.99629L21.6266 5.99887L21.6319 5.99977C21.632 5.99978 21.6325 5.99987 21.5588 6.43201L21.6319 5.99977L21.9972 6.0621V10.4666H19.715C18.9028 10.4666 18.442 10.7149 18.1759 11.0229C17.8996 11.3429 17.7731 11.797 17.7731 12.3115V14.613H21.8983L21.1159 19.7139H17.7731V28.9655C24.3001 27.6967 29.226 21.95 29.226 15.0514C29.226 7.22212 22.8807 0.876781 15.0514 0.876781C12.6995 0.876781 10.4826 1.44906 8.53134 2.46159C8.31643 2.5731 8.05181 2.48928 7.9403 2.27438C7.82878 2.05947 7.9126 1.79485 8.12751 1.68334ZM7.27034 2.67182C7.40544 2.87273 7.3521 3.14513 7.15118 3.28024C6.84666 3.48502 6.5505 3.70132 6.26334 3.9285C6.07346 4.07873 5.79776 4.04658 5.64753 3.8567C5.49731 3.66682 5.52946 3.39112 5.71934 3.24089C6.02418 2.99972 6.33859 2.77009 6.66192 2.55266C6.86283 2.41756 7.13523 2.4709 7.27034 2.67182Z" fill="#FF9404"/>
</svg>
