<svg width="30" height="30" viewBox="0 0 30 30" fill="none" xmlns="http://www.w3.org/2000/svg">
<path fill-rule="evenodd" clip-rule="evenodd" d="M0 2.61049C0 1.16876 1.16876 0 2.61049 0H27.3895C28.8312 0 30 1.16876 30 2.61049V27.3895C30 28.8312 28.8312 30 27.3895 30H2.61049C1.16876 30 0 28.8312 0 27.3895V8.8835C0 8.64221 0.195604 8.4466 0.436893 8.4466C0.678183 8.4466 0.873786 8.64221 0.873786 8.8835V27.3895C0.873786 28.3487 1.65134 29.1262 2.61049 29.1262H27.3895C28.3487 29.1262 29.1262 28.3487 29.1262 27.3895V2.61049C29.1262 1.65134 28.3487 0.873786 27.3895 0.873786H2.61049C1.65134 0.873786 0.873786 1.65134 0.873786 2.61049V3.93204C0.873786 4.17333 0.678183 4.36893 0.436893 4.36893C0.195604 4.36893 0 4.17333 0 3.93204V2.61049ZM0.436893 4.95146C0.678183 4.95146 0.873786 5.14706 0.873786 5.38835V6.84466C0.873786 7.08595 0.678183 7.28155 0.436893 7.28155C0.195604 7.28155 0 7.08595 0 6.84466V5.38835C0 5.14706 0.195604 4.95146 0.436893 4.95146Z" fill="#FF9404"/>
<path fill-rule="evenodd" clip-rule="evenodd" d="M6.90331 8.52938C7.77123 8.52938 8.47482 7.82579 8.47482 6.95787C8.47482 6.08995 7.77123 5.38636 6.90331 5.38636C6.03538 5.38636 5.33179 6.08995 5.33179 6.95787C5.33179 7.82579 6.03538 8.52938 6.90331 8.52938ZM6.90331 9.40317C8.25381 9.40317 9.3486 8.30837 9.3486 6.95787C9.3486 5.60737 8.25381 4.51257 6.90331 4.51257C5.5528 4.51257 4.45801 5.60737 4.45801 6.95787C4.45801 8.30837 5.5528 9.40317 6.90331 9.40317Z" fill="#FF9404"/>
<path fill-rule="evenodd" clip-rule="evenodd" d="M8.20313 12.233H5.65784V24.3422H8.20313V12.233ZM4.78406 11.3593V25.2159H9.07691V11.3593H4.78406Z" fill="#FF9404"/>
<path fill-rule="evenodd" clip-rule="evenodd" d="M15.1586 14.7892V12.212H12.6133V24.3211H15.1586V17.642C15.1586 17.6167 15.1597 17.5915 15.1619 17.5663C15.1917 17.2226 15.2918 16.3575 15.7374 15.5564C16.2126 14.7021 17.094 13.9154 18.5592 13.9154C19.2166 13.9154 19.7836 14.0552 20.2557 14.3315C20.7294 14.6087 21.0537 14.9919 21.2731 15.3935C21.6764 16.1321 21.7462 16.9873 21.7851 17.4642C21.7863 17.4795 21.7875 17.4944 21.7887 17.5089L21.7937 17.5695C21.7957 17.5936 21.7967 17.6178 21.7967 17.642V24.3211H24.342V17.1529C24.342 17.0909 24.3426 17.0227 24.3431 16.954L24.3431 16.9534C24.3494 16.1723 24.3484 14.9295 23.8413 13.8604C23.5966 13.3445 23.2387 12.8822 22.7062 12.5324C22.1723 12.1816 21.4118 11.9105 20.3109 11.8582C18.524 11.7732 16.1232 13.231 15.1586 14.7892ZM16.9061 12.0988C16.4562 12.3786 16.0324 12.8405 16.0324 12.8405V11.3382H11.7395V25.1949H16.0324V17.642C16.0867 17.0168 16.3856 14.7892 18.5592 14.7892C20.6881 14.7892 20.8361 16.5873 20.9179 17.5806L20.923 17.642V25.1949H25.2158V17.1529C25.2158 17.0949 25.2163 17.0303 25.2169 16.9605C25.2292 15.4284 25.2631 11.2189 20.3524 10.9854C18.7925 10.9112 17.7306 11.5862 16.9061 12.0988Z" fill="#FF9404"/>
</svg>
