<svg width="30" height="30" viewBox="0 0 30 30" fill="none" xmlns="http://www.w3.org/2000/svg">
<path fill-rule="evenodd" clip-rule="evenodd" d="M8.97579 0.0880915C10.539 0.0167633 11.0428 0 15 0C18.9573 0 19.461 0.0167632 21.0242 0.0881501C22.6157 0.160798 23.7217 0.415046 24.6976 0.794304C25.7076 1.18684 26.5722 1.71687 27.4277 2.57233C28.2831 3.42779 28.8132 4.29234 29.2057 5.30241C29.585 6.2782 29.8392 7.38424 29.9118 8.97579L29.4754 8.99571L29.9119 8.97579C29.9832 10.539 29.9999 11.0428 29.9999 15C29.9999 18.9572 29.9832 19.461 29.9119 21.0243L29.4754 21.0044L29.9118 21.0243C29.8392 22.6158 29.585 23.7218 29.2057 24.6977C28.8132 25.7077 28.2831 26.5723 27.4277 27.4277C26.5722 28.2832 25.7077 28.8132 24.6976 29.2058L24.5393 28.7985L24.6976 29.2057C24.6976 29.2057 24.6976 29.2058 24.6976 29.2058C23.7218 29.585 22.6158 29.8393 21.0242 29.9119L21.0043 29.4755L21.0242 29.9119C19.461 29.9832 18.9572 30 15 30C11.0428 30 10.539 29.9832 8.97574 29.9119L8.99565 29.4755L8.97573 29.9119C7.38424 29.8393 6.2782 29.585 5.30235 29.2058L5.46061 28.7985L5.30235 29.2058C4.29235 28.8132 3.42774 28.2832 2.57227 27.4277C1.71681 26.5723 1.18678 25.7077 0.794249 24.6977C0.414988 23.7219 0.16074 22.6158 0.0880919 21.0243L0.524531 21.0044L0.0880915 21.0243C0.0167633 19.461 0 18.9573 0 15C0 11.0428 0.0167632 10.539 0.0881501 8.97572C0.160798 7.38423 0.415046 6.2782 0.794304 5.30235L1.20152 5.46061L0.794305 5.30235C1.18684 4.29235 1.71687 3.42774 2.57233 2.57227C3.06621 2.07839 3.5654 1.69064 4.09803 1.37469C4.30555 1.25159 4.57358 1.32003 4.69668 1.52756C4.81978 1.73508 4.75134 2.00311 4.54382 2.12621C4.07773 2.40269 3.63576 2.74457 3.19019 3.19013C2.42645 3.95388 1.96055 4.71369 1.60874 5.61888C1.26794 6.49578 1.02989 7.50692 0.961027 9.01557L0.961027 9.01558C0.890552 10.5589 0.873786 11.047 0.873786 15C0.873786 18.953 0.890552 19.4412 0.96097 20.9844C1.02984 22.4931 1.26788 23.5043 1.60868 24.3811L1.20147 24.5394L1.60869 24.3811C1.96049 25.2864 2.42638 26.0461 3.19013 26.8099C3.95388 27.5736 4.71369 28.0395 5.61888 28.3913C6.49578 28.7321 7.50692 28.9702 9.01557 29.039C10.5589 29.1094 11.047 29.1262 15 29.1262C18.9529 29.1262 19.4411 29.1094 20.9844 29.039C22.4931 28.9702 23.5042 28.7321 24.3811 28.3913L24.3811 28.3913C25.2863 28.0395 26.0461 27.5736 26.8098 26.8099C27.5736 26.0461 28.0395 25.2863 28.3913 24.3811C28.7321 23.5042 28.9701 22.4931 29.039 20.9844C29.1094 19.4411 29.1262 18.953 29.1262 15C29.1262 11.0471 29.1094 10.5589 29.039 9.01563C28.9701 7.50691 28.7321 6.49578 28.3913 5.61894L28.7985 5.46067L28.3913 5.61893C28.0395 4.71369 27.5736 3.95394 26.8098 3.19019C26.0461 2.42645 25.2863 1.96055 24.3811 1.60874C23.5042 1.26794 22.493 1.02989 20.9844 0.961027L21.0043 0.524589L20.9844 0.961027C19.4412 0.890552 18.953 0.873786 15 0.873786C11.047 0.873786 10.5589 0.890552 9.01562 0.96097C8.77458 0.971968 8.57027 0.785484 8.55927 0.544445C8.54827 0.303406 8.73476 0.0990898 8.97579 0.0880915ZM7.8587 0.608597C7.89644 0.846916 7.73385 1.07071 7.49553 1.10846C7.05958 1.1775 6.67253 1.26606 6.31612 1.37083C6.08463 1.43888 5.8418 1.30638 5.77375 1.07489C5.7057 0.843391 5.8382 0.600562 6.0697 0.532513C6.46334 0.4168 6.88709 0.320143 7.35884 0.245427C7.59716 0.207681 7.82095 0.370278 7.8587 0.608597Z" fill="#FF9404"/>
<path fill-rule="evenodd" clip-rule="evenodd" d="M15.0001 8.39576C11.3525 8.39576 8.39551 11.3527 8.39551 15.0003C8.39551 18.648 11.3525 21.6049 15.0001 21.6049C18.6477 21.6049 21.6047 18.6479 21.6047 15.0003C21.6047 11.3528 18.6477 8.39576 15.0001 8.39576ZM15.0001 7.52197C10.8699 7.52197 7.52173 10.8701 7.52173 15.0003C7.52173 19.1306 10.8699 22.4787 15.0001 22.4787C19.1303 22.4787 22.4785 19.1305 22.4785 15.0003C22.4785 10.8702 19.1303 7.52197 15.0001 7.52197Z" fill="#FF9404"/>
<path fill-rule="evenodd" clip-rule="evenodd" d="M22.7738 8.10013C23.2564 8.10013 23.6476 7.70893 23.6476 7.22637C23.6476 6.7438 23.2564 6.35261 22.7738 6.35261C22.2912 6.35261 21.9 6.7438 21.9 7.22637C21.9 7.70893 22.2912 8.10013 22.7738 8.10013ZM24.5213 7.22637C24.5213 8.19151 23.7389 8.97391 22.7738 8.97391C21.8086 8.97391 21.0262 8.19151 21.0262 7.22637C21.0262 6.26122 21.8086 5.47882 22.7738 5.47882C23.7389 5.47882 24.5213 6.26122 24.5213 7.22637Z" fill="#FF9404"/>
</svg>
