<svg width="31" height="30" viewBox="0 0 31 30" fill="none" xmlns="http://www.w3.org/2000/svg">
<path d="M23.5412 30C23.483 30 23.483 30 23.5412 30C19.1154 30 14.049 27.1465 8.45847 21.556C6.07086 19.1684 4.14913 16.839 2.80973 14.6261C2.69326 14.3932 2.7515 14.1602 2.9262 14.0438C3.10091 13.9273 3.39208 13.9855 3.50855 14.1602C4.84794 16.3149 6.71144 18.586 9.04082 20.9154C14.4566 26.3312 19.3483 29.0682 23.483 29.0682C24.24 29.0682 24.9388 28.9518 25.6376 28.7771C26.3947 28.5441 27.0353 28.0783 27.4429 27.3794L28.8988 24.9336C29.2482 24.3513 29.0735 23.5942 28.4911 23.1866L22.6094 19.2266C22.0853 18.8772 21.3283 18.9937 20.9206 19.5178L19.2318 21.7307C18.8824 22.1966 18.2419 22.3131 17.7178 22.0219L17.3683 21.8472C16.2619 21.2648 14.8643 20.5078 12.1272 17.7125C9.39023 14.9755 8.63318 13.5779 7.9926 12.4714L7.8179 12.122C7.52672 11.5979 7.64319 10.9573 8.10907 10.6079L10.322 8.91913C10.8461 8.51149 10.9626 7.75444 10.6131 7.1721L6.71144 1.40689C6.36203 0.824542 5.60499 0.649839 4.96441 0.999245L2.51856 2.51334C1.81975 2.92098 1.35387 3.56156 1.12093 4.31861C0.713293 5.89094 0.771527 7.69621 1.35387 9.61794C1.41211 9.85088 1.29564 10.0838 1.0627 10.1421C0.829762 10.2003 0.596824 10.0838 0.53859 9.85088C-0.101989 7.75444 -0.160224 5.8327 0.305652 4.08567C0.596824 3.09569 1.2374 2.2804 2.11092 1.75629L4.55677 0.300432C5.54675 -0.281913 6.82791 0.00925956 7.46849 0.941011L11.3702 6.82269C12.0108 7.75444 11.7778 9.0356 10.9043 9.73441L8.69141 11.4232C8.57494 11.5397 8.51671 11.6561 8.63318 11.8309L8.80788 12.1803C9.39023 13.2285 10.089 14.5679 12.7678 17.2467C15.4466 19.9254 16.7278 20.6243 17.8342 21.2066L18.1836 21.3813C18.3001 21.4395 18.4748 21.4395 18.5913 21.3231L20.3383 19.1102C21.0371 18.2366 22.3183 18.0037 23.25 18.6443L29.1317 22.6042C30.0635 23.2448 30.3546 24.526 29.7723 25.5159L28.3164 27.9618C27.7923 28.8353 26.977 29.4759 25.987 29.7671C25.1135 29.8835 24.2982 30 23.5412 30ZM2.22739 13.2867C2.05269 13.2867 1.93622 13.2285 1.81975 13.0538C1.52858 12.4714 1.2374 11.8891 1.00447 11.365C0.887996 11.132 1.00447 10.8991 1.2374 10.7826C1.47034 10.6662 1.70328 10.7826 1.81975 11.0156C2.05269 11.5397 2.28562 12.122 2.5768 12.6461C2.69326 12.8791 2.63503 13.112 2.40209 13.2285C2.34386 13.2867 2.28562 13.2867 2.22739 13.2867Z" fill="#FF9404"/>
</svg>
