<svg width="32" height="32" viewBox="0 0 32 32" fill="none" xmlns="http://www.w3.org/2000/svg">
<path d="M4.81287 6C2.4417 8.65115 1 12.1511 1 15.9877C1 22.3405 4.94737 27.7681 10.523 29.9515C10.3873 28.7673 10.2763 26.9416 10.5724 25.6464C10.8438 24.4745 12.324 18.1957 12.324 18.1957C12.324 18.1957 11.8799 17.2952 11.8799 15.9753C11.8799 13.8906 13.0888 12.3363 14.5938 12.3363C15.8766 12.3363 16.4934 13.2985 16.4934 14.4457C16.4934 15.7286 15.6793 17.653 15.2475 19.4416C14.8898 20.9342 16 22.1554 17.4679 22.1554C20.1324 22.1554 22.1801 19.3429 22.1801 15.2969C22.1801 11.7072 19.602 9.20312 15.9137 9.20312C11.6456 9.20312 9.14145 12.398 9.14145 15.7039C9.14145 16.9868 9.63487 18.3684 10.2516 19.1209C10.375 19.2689 10.3873 19.4046 10.3503 19.5526C10.2393 20.0214 9.98026 21.0452 9.93092 21.2549C9.86924 21.5263 9.70888 21.588 9.42517 21.4523C7.55017 20.5765 6.37829 17.8503 6.37829 15.6423C6.37829 10.9178 9.80757 6.57566 16.2837 6.57566C21.477 6.57566 25.523 10.2763 25.523 15.2352C25.523 20.4038 22.2664 24.5609 17.7516 24.5609C16.2344 24.5609 14.8035 23.7714 14.3224 22.8339C14.3224 22.8339 13.5699 25.6957 13.3849 26.3988C13.0518 27.7064 12.139 29.3347 11.5222 30.3339C12.9285 30.7656 14.4087 31 15.963 31C24.2401 31 30.9507 24.2895 30.9507 16.0123C30.9753 7.71053 24.2648 1 15.9877 1C13.5878 1 11.3195 1.56414 9.30843 2.56703M6.72336 4.20561C7.03804 3.95783 7.36289 3.72238 7.69717 3.5" stroke="#FF9404" stroke-width="0.8" stroke-linecap="round" stroke-linejoin="round"/>
</svg>
