<svg width="42" height="30" viewBox="0 0 42 30" fill="none" xmlns="http://www.w3.org/2000/svg">
<path fill-rule="evenodd" clip-rule="evenodd" d="M39.6 0.9H2.4C1.57157 0.9 0.9 1.57157 0.9 2.4V27.6C0.9 28.4284 1.57157 29.1 2.4 29.1H39.6C40.4284 29.1 41.1 28.4284 41.1 27.6V2.4C41.1 1.57157 40.4284 0.9 39.6 0.9ZM2.4 0C1.07452 0 0 1.07452 0 2.4V27.6C0 28.9255 1.07452 30 2.4 30H39.6C40.9255 30 42 28.9255 42 27.6V2.4C42 1.07452 40.9255 0 39.6 0H2.4Z" fill="#FF9404"/>
<path fill-rule="evenodd" clip-rule="evenodd" d="M0.925313 4.09601C-0.642224 2.72944 0.324277 0.150024 2.40387 0.150024H39.5961C41.6757 0.150024 42.6422 2.72944 41.0747 4.09601L22.4785 20.308C21.6312 21.0467 20.3688 21.0467 19.5214 20.308L6.45213 8.91427C6.2648 8.75095 6.24533 8.46669 6.40865 8.27936C6.57196 8.09202 6.85622 8.07256 7.04355 8.23587L20.1129 19.6296C20.6213 20.0728 21.3787 20.0728 21.8871 19.6296L40.4833 3.41762C41.4238 2.59768 40.8439 1.05002 39.5961 1.05002H2.40387C1.15611 1.05002 0.576212 2.59767 1.51673 3.41762L3.36315 5.02732C3.55049 5.19063 3.56995 5.47489 3.40664 5.66222C3.24332 5.84956 2.95906 5.86903 2.77173 5.70571L0.925313 4.09601ZM3.85235 6.05079C4.01567 5.86346 4.29992 5.84399 4.48726 6.00731L5.63289 7.00606C5.82022 7.16937 5.83969 7.45363 5.67637 7.64097C5.51306 7.8283 5.2288 7.84777 5.04146 7.68445L3.89584 6.6857C3.7085 6.52238 3.68903 6.23813 3.85235 6.05079Z" fill="#FF9404"/>
<path fill-rule="evenodd" clip-rule="evenodd" d="M41.8889 26.8387C42.0544 26.6448 42.0324 26.3526 41.8397 26.186L28.6572 14.788C28.4646 14.6215 28.1743 14.6436 28.0088 14.8375C27.8433 15.0314 27.8653 15.3237 28.058 15.4902L41.2404 26.8882C41.4331 27.0548 41.7234 27.0326 41.8889 26.8387ZM0.250844 26.7527C0.416334 26.9466 0.706663 26.9688 0.899314 26.8022L13.6483 15.214C13.841 15.0474 13.863 14.7552 13.6975 14.5613C13.532 14.3674 13.2417 14.3452 13.049 14.5118L0.300024 26.1C0.107374 26.2666 0.0853553 26.5588 0.250844 26.7527Z" fill="#FF9404"/>
</svg>
