<svg width="330" height="386" viewBox="0 0 330 386" fill="none" xmlns="http://www.w3.org/2000/svg">
<path d="M88.8494 286.807L196.878 178.778L191.713 173.613L83.6841 281.642L88.8494 286.807Z" fill="#CCCCCC" fill-opacity="0.15"/>
<path d="M5.16539 164.41L93.7417 75.8342L88.5763 70.6688L6.78396e-06 159.245L5.16539 164.41Z" fill="#CCCCCC" fill-opacity="0.15"/>
<path d="M111.388 212.764L171.023 153.13L165.857 147.964L106.223 207.599L111.388 212.764Z" fill="#CCCCCC" fill-opacity="0.15"/>
<path d="M279.131 199.464L425.675 52.9208L420.509 47.7554L273.966 194.298L279.131 199.464Z" fill="#CCCCCC" fill-opacity="0.15"/>
<path d="M221.545 205.606L432.177 -5.02588L427.012 -10.1912L216.38 200.441L221.545 205.606Z" fill="#CCCCCC" fill-opacity="0.15"/>
<path d="M195.66 179.841L284.236 91.2651L279.071 86.0998L190.494 174.676L195.66 179.841Z" fill="#CCCCCC" fill-opacity="0.15"/>
<path d="M317.918 57.6508L406.495 -30.9257L401.329 -36.091L312.753 52.4854L317.918 57.6508Z" fill="#CCCCCC" fill-opacity="0.15"/>
<path d="M92.9053 76.8967L181.482 -11.6794L176.316 -16.8448L87.74 71.7314L92.9053 76.8967Z" fill="#CCCCCC" fill-opacity="0.15"/>
<path d="M171.155 152.951L313.872 10.2346L308.707 5.06925L165.99 147.786L171.155 152.951Z" fill="#CCCCCC" fill-opacity="0.15"/>
<path d="M77.6441 143.524L296.969 -75.8007L291.804 -80.966L72.4788 138.359L77.6441 143.524Z" fill="#CCCCCC" fill-opacity="0.15"/>
<path d="M68.149 50.0565L277.824 -159.619L272.659 -164.784L62.9836 44.8912L68.149 50.0565Z" fill="#CCCCCC" fill-opacity="0.15"/>
<path d="M133.853 138.647L354.891 -82.391L349.726 -87.5564L128.688 133.482L133.853 138.647Z" fill="#CCCCCC" fill-opacity="0.15"/>
<path d="M314.194 473.243L402.77 384.667L397.605 379.501L309.028 468.078L314.194 473.243Z" fill="#CCCCCC" fill-opacity="0.15"/>
<path d="M248.115 333.241L299.633 281.723L294.468 276.557L242.949 328.076L248.115 333.241Z" fill="#CCCCCC" fill-opacity="0.15"/>
<path d="M298.797 282.785L387.373 194.209L382.208 189.044L293.632 277.62L298.797 282.785Z" fill="#CCCCCC" fill-opacity="0.15"/>
<path d="M325.517 307.433L502.861 130.089L497.695 124.923L320.352 302.267L325.517 307.433Z" fill="#CCCCCC" fill-opacity="0.15"/>
<path d="M274.041 255.948L483.716 46.2726L478.55 41.1072L268.875 250.782L274.041 255.948Z" fill="#CCCCCC" fill-opacity="0.15"/>
</svg>
