<svg width="280" height="1782" viewBox="0 0 280 1782" fill="none" xmlns="http://www.w3.org/2000/svg">
<path d="M151.953 641.958L5.40991 788.501L10.5753 793.666L157.119 647.123L151.953 641.958Z" fill="#CCCCCC" fill-opacity="0.15"/>
<path d="M129.503 715.852L-1.0929 846.447L4.07243 851.612L134.668 721.017L129.503 715.852Z" fill="#CCCCCC" fill-opacity="0.15"/>
<path d="M235.425 661.58L146.848 750.156L152.014 755.321L240.59 666.745L235.425 661.58Z" fill="#CCCCCC" fill-opacity="0.15"/>
<path d="M113.166 783.771L24.5897 872.347L29.755 877.513L118.331 788.936L113.166 783.771Z" fill="#CCCCCC" fill-opacity="0.15"/>
<path d="M85.0734 863.369L50.446 897.996L55.6114 903.161L90.2387 868.534L85.0734 863.369Z" fill="#CCCCCC" fill-opacity="0.15"/>
<path d="M-0.0769249 845.52L-210.709 1056.15L-205.544 1061.32L5.0884 850.685L-0.0769249 845.52Z" fill="#CCCCCC" fill-opacity="0.15"/>
<path d="M25.8085 871.283L-62.7678 959.86L-57.6024 965.025L30.9739 876.449L25.8085 871.283Z" fill="#CCCCCC" fill-opacity="0.15"/>
<path d="M6.49519 1096.23L-82.0812 1184.8L-76.9158 1189.97L11.6606 1101.39L6.49519 1096.23Z" fill="#CCCCCC" fill-opacity="0.15"/>
<path d="M50.3127 898.174L-92.4042 1040.89L-87.2389 1046.06L55.478 903.339L50.3127 898.174Z" fill="#CCCCCC" fill-opacity="0.15"/>
<path d="M191.681 190.361L45.1387 336.905L50.304 342.07L196.847 195.527L191.681 190.361Z" fill="#CCCCCC" fill-opacity="0.15"/>
<path d="M152.891 332.179L64.3141 420.755L69.4794 425.92L158.056 337.344L152.891 332.179Z" fill="#CCCCCC" fill-opacity="0.15"/>
<path d="M256.027 435.123L167.451 523.699L172.616 528.864L261.193 440.288L256.027 435.123Z" fill="#CCCCCC" fill-opacity="0.15"/>
<path d="M124.797 411.777L90.1696 446.404L95.335 451.569L129.962 416.942L124.797 411.777Z" fill="#CCCCCC" fill-opacity="0.15"/>
<path d="M39.6473 393.928L-170.985 604.559L-165.819 609.725L44.8127 399.093L39.6473 393.928Z" fill="#CCCCCC" fill-opacity="0.15"/>
<path d="M65.5328 419.692L-23.0436 508.268L-17.8782 513.434L70.6982 424.857L65.5328 419.692Z" fill="#CCCCCC" fill-opacity="0.15"/>
<path d="M168.287 522.636L79.7108 611.213L84.8762 616.378L173.453 527.802L168.287 522.636Z" fill="#CCCCCC" fill-opacity="0.15"/>
<path d="M46.2198 644.636L-42.3568 733.212L-37.1915 738.377L51.3852 649.801L46.2198 644.636Z" fill="#CCCCCC" fill-opacity="0.15"/>
<path d="M90.0371 446.582L-52.6796 589.298L-47.5143 594.464L95.2025 451.747L90.0371 446.582Z" fill="#CCCCCC" fill-opacity="0.15"/>
<path d="M273.997 365.559L-35.7768 675.333L-30.6114 680.498L279.163 370.724L273.997 365.559Z" fill="#CCCCCC" fill-opacity="0.15"/>
<path d="M193.044 549.474L-16.6318 759.149L-11.4664 764.314L198.209 554.64L193.044 549.474Z" fill="#CCCCCC" fill-opacity="0.15"/>
<path d="M182.631 405.595L-93.6987 681.924L-88.5333 687.09L187.796 410.761L182.631 405.595Z" fill="#CCCCCC" fill-opacity="0.15"/>
<path d="M27.399 45.9582L-19.5101 92.8669L-14.3447 98.0322L32.5644 51.1235L27.399 45.9582Z" fill="#CCCCCC" fill-opacity="0.15"/>
<path d="M50.1357 229.235L-38.4406 317.811L-33.2752 322.977L55.301 234.4L50.1357 229.235Z" fill="#CCCCCC" fill-opacity="0.15"/>
<path d="M93.7612 30.9893L-48.9552 173.707L-43.7899 178.872L98.9265 36.1546L93.7612 30.9893Z" fill="#CCCCCC" fill-opacity="0.15"/>
<path d="M196.77 133.879L-12.9047 343.554L-7.73938 348.72L201.936 139.044L196.77 133.879Z" fill="#CCCCCC" fill-opacity="0.15"/>
<path d="M119.702 56.6572L-89.9739 266.332L-84.8086 271.497L124.867 61.8225L119.702 56.6572Z" fill="#CCCCCC" fill-opacity="0.15"/>
</svg>
