<svg width="126" height="31" viewBox="0 0 126 31" fill="none" xmlns="http://www.w3.org/2000/svg">
<path d="M49.207 10.9541H53.1188V23.4484H49.207V10.9541Z" fill="#E60023"/>
<path d="M53.9766 10.9539H57.7661V12.6688H57.8884C58.8663 11.3214 59.9665 10.5864 61.6779 10.5864C63.3893 10.5864 65.9565 12.5463 65.9565 15.2411V23.3257H62.0447V16.0986C62.0447 14.7512 61.4334 13.8937 60.0888 13.8937C58.7441 13.8937 57.8884 14.9962 57.8884 16.4661V23.3257H53.9766V10.9539Z" fill="#E60023"/>
<path d="M51.1664 9.97406C52.4491 9.97406 53.489 8.93206 53.489 7.6467C53.489 6.36133 52.4491 5.31934 51.1664 5.31934C49.8836 5.31934 48.8438 6.36133 48.8438 7.6467C48.8438 8.93206 49.8836 9.97406 51.1664 9.97406Z" fill="#E60023"/>
<path d="M93.8264 10.8315H93.4596C91.9927 10.8315 90.8925 11.444 90.0368 12.9139H89.9146V10.954H86.125V23.4483H90.0368V17.8136C90.0368 15.2413 91.5037 14.0164 93.7041 14.2613L93.8264 10.8315Z" fill="#E60023"/>
<path d="M113.143 15.6086C111.553 15.3636 110.209 15.2411 110.209 14.2612C110.209 13.2813 110.942 13.1588 111.92 13.1588C112.898 13.1588 113.754 13.5263 113.876 14.6287H117.543C117.299 12.1788 115.465 10.5864 111.92 10.5864C108.375 10.5864 106.541 11.9338 106.541 14.6287C106.541 17.3235 108.864 18.181 110.942 18.5485C113.02 18.9159 114.12 18.9159 114.12 20.0184C114.12 21.1208 113.387 21.2433 112.165 21.2433C110.942 21.2433 110.209 20.7533 109.964 19.7734H106.297C106.541 22.3457 108.864 23.9381 112.287 23.9381C115.71 23.9381 117.91 22.5907 117.91 19.7734C117.91 16.956 115.343 15.9761 113.143 15.6086Z" fill="#E60023"/>
<path d="M100.188 20.8758C98.5991 20.8758 97.6211 19.7734 97.3766 18.181H106.3C106.3 15.6086 105.567 13.5263 104.1 12.1788C102.633 10.8314 101.655 10.5864 99.8215 10.5864C96.032 10.5864 93.4648 13.4038 93.4648 17.201C93.4648 20.9983 96.032 23.8156 100.066 23.8156C101.655 23.8156 102.878 23.4482 103.978 22.7132C105.01 22.0245 105.75 20.9771 106.056 19.7734H102.144C101.9 20.5083 101.166 20.8758 100.188 20.8758ZM99.9438 13.4038C101.288 13.4038 102.144 14.3837 102.266 15.8536H97.3766C97.6211 14.3837 98.3546 13.4038 99.9438 13.4038Z" fill="#E60023"/>
<path d="M124.879 20.5084H124.268C123.412 20.5084 122.923 20.2634 122.923 19.2835V13.4038H125.001V10.9539H122.923V7.03418H119.011V10.9539H117.789V13.4038H119.011V20.1409C119.011 22.8357 120.601 23.5707 122.923 23.5707H124.879V20.5084Z" fill="#E60023"/>
<path d="M73.046 20.5084H72.557C71.7013 20.5084 71.2124 20.2634 71.2124 19.2835V13.4038H73.046V10.9539H71.2124V7.03418H67.3006V10.9539H66.0781V13.4038H67.4228V20.1409C67.4228 22.8357 69.012 23.5707 71.3346 23.5707H73.1683L73.046 20.5084Z" fill="#E60023"/>
<path d="M72.9258 17.201C72.9258 13.5263 75.4929 10.5864 79.2825 10.5864C80.9939 10.5864 82.4608 11.1989 83.561 12.1788C84.6612 13.1588 85.7614 15.7311 85.7614 18.181H76.7153C76.9598 19.8959 77.9378 20.8758 79.5269 20.8758C81.1161 20.8758 81.2384 20.3858 81.6051 19.6509H85.5169C85.2108 20.8546 84.4705 21.902 83.4387 22.5907C82.3386 23.3257 81.1161 23.6931 79.5269 23.6931C75.3707 23.8156 72.9258 20.8758 72.9258 17.201ZM81.7273 15.8536C81.6051 14.3837 80.6271 13.4038 79.4047 13.4038C78.1823 13.4038 77.0821 14.3837 76.8376 15.8536H81.7273Z" fill="#E60023"/>
<path d="M35.2734 6.0542H42.1191C44.1972 6.0542 45.7864 6.66666 46.8866 7.6466C47.9868 8.62655 48.598 10.219 48.598 11.9338C48.598 15.2412 46.2754 17.5685 42.7303 17.5685H39.3075V23.3257H35.2734V6.0542ZM42.2413 14.2612C43.8305 14.2612 44.6862 13.2813 44.6862 11.9338C44.6862 10.5864 43.8305 9.72898 42.2413 9.72898H39.3075V14.2612H42.2413Z" fill="#E60023"/>
<path d="M14.9802 30.1851C23.2168 30.1851 29.8939 23.4944 29.8939 15.241C29.8939 6.98758 23.2168 0.296875 14.9802 0.296875C6.74352 0.296875 0.0664062 6.98758 0.0664062 15.241C0.0664062 23.4944 6.74352 30.1851 14.9802 30.1851Z" fill="white"/>
<path d="M14.9813 0.297028C11.4885 0.281188 8.10105 1.49423 5.40943 3.72466C2.71782 5.95509 0.892825 9.0614 0.252662 12.502C-0.387501 15.9426 0.197775 19.4992 1.90644 22.5517C3.61511 25.6042 6.33878 27.9589 9.60255 29.2053C9.4803 27.9804 9.35806 26.2655 9.60255 24.9181L11.314 17.446C10.9974 16.7539 10.8307 16.0025 10.825 15.2411C10.825 13.1588 12.0474 11.5664 13.5144 11.5664C14.9813 11.5664 15.348 12.5463 15.348 13.6487C15.348 14.7512 14.4923 16.8335 14.1256 18.6709C13.7588 20.5083 14.859 21.3658 16.326 21.3658C17.7929 21.3658 20.9712 18.5484 20.9712 14.5062C20.9712 10.4639 18.4041 8.38155 14.7368 8.38155C11.0695 8.38155 8.13562 11.6888 8.13562 14.9962C8.13562 16.2211 8.6246 17.691 9.23582 18.4259C9.28005 18.4757 9.3137 18.5339 9.33472 18.5971C9.35573 18.6603 9.36368 18.7271 9.35806 18.7934L8.99133 20.5083C8.86908 20.7533 8.74684 20.8758 8.50235 20.7533C6.66869 19.8959 5.44626 17.201 5.44626 14.9962C5.44626 10.3414 8.86908 5.93169 15.348 5.93169C21.8269 5.93169 24.5163 9.60647 24.5163 14.5062C24.5163 19.4059 21.2157 23.8156 16.8149 23.8156C15.348 23.8156 13.8811 23.0807 13.3921 22.1007L12.4142 25.653C12.0474 27.0004 11.1917 28.5928 10.5805 29.5728C12.6245 30.1774 14.7742 30.336 16.8845 30.0379C18.9949 29.7398 21.017 28.9919 22.8146 27.8446C24.6121 26.6974 26.1435 25.1774 27.3053 23.3871C28.4672 21.5967 29.2326 19.5777 29.5501 17.466C29.8675 15.3542 29.7296 13.1988 29.1456 11.145C28.5616 9.09115 27.545 7.18661 26.1645 5.55966C24.7839 3.93271 23.0714 2.62115 21.1423 1.71335C19.2132 0.805555 17.1124 0.3226 14.9813 0.297028Z" fill="#E60023"/>
</svg>
