<svg width="54" height="75" viewBox="0 0 54 75" fill="none" xmlns="http://www.w3.org/2000/svg">
<path d="M49.2426 4.69688H38.4182C37.9584 3.3334 36.6683 2.34844 35.1516 2.34844H31.5667C30.4795 0.885793 28.7567 0 26.9319 0C25.107 0 23.3844 0.885793 22.297 2.34844H18.7122C17.1957 2.34844 15.9056 3.3334 15.4456 4.69688H4.6213C2.07305 4.69688 0 6.76994 0 9.31818V70.3787C0 72.9269 2.07305 75 4.6213 75H49.2424C51.7907 75 53.8637 72.9269 53.8637 70.3787V9.31833C53.8639 6.77008 51.7907 4.69688 49.2426 4.69688ZM17.4624 5.79552C17.4624 5.10631 18.0232 4.54571 18.7122 4.54571H22.8863C23.2774 4.54571 23.6391 4.33785 23.8358 3.99962C24.4928 2.8711 25.6502 2.19727 26.9319 2.19727C28.2137 2.19727 29.3709 2.8711 30.0279 3.99976C30.2248 4.33785 30.5864 4.54586 30.9774 4.54586H35.1516C35.8408 4.54586 36.4014 5.1066 36.4014 5.79567V9.39391H17.4624V5.79552ZM51.6668 70.3788C51.6666 71.7155 50.5793 72.8029 49.2426 72.8029H4.62145C3.28477 72.8029 2.19742 71.7155 2.19742 70.3788V9.31833C2.19742 7.98166 3.28477 6.8943 4.62145 6.8943H15.2653V10.4925C15.2653 11.0993 15.7572 11.5912 16.3639 11.5912H37.5004C38.1073 11.5912 38.599 11.0993 38.599 10.4925V6.89415H49.2427C50.5794 6.89415 51.6668 7.98151 51.6668 9.31818V70.3788Z" fill="#009AD4"/>
<path d="M26.9436 4.69678H26.9319C26.3251 4.69678 25.8391 5.18867 25.8391 5.79541C25.8391 6.40215 26.3369 6.89405 26.9436 6.89405C27.5505 6.89405 28.0422 6.40215 28.0422 5.79541C28.0422 5.18867 27.5505 4.69678 26.9436 4.69678Z" fill="#009AD4"/>
<path d="M48.0682 9.39404H42.197C41.5901 9.39404 41.0983 9.88594 41.0983 10.4927C41.0983 11.0994 41.5901 11.5913 42.197 11.5913H46.9696V65.7575H6.89429V11.5913H11.6666C12.2734 11.5913 12.7653 11.0994 12.7653 10.4927C12.7653 9.88594 12.2734 9.39404 11.6666 9.39404H5.79566C5.18892 9.39404 4.69702 9.88594 4.69702 10.4927V66.8562C4.69702 67.4629 5.18892 67.9548 5.79566 67.9548H48.0682C48.6751 67.9548 49.1668 67.4629 49.1668 66.8562V10.4927C49.1668 9.88594 48.6751 9.39404 48.0682 9.39404Z" fill="#009AD4"/>
<path d="M24.9508 29.9972L22.2012 28.6223C22.1754 28.6094 22.1594 28.5835 22.1594 28.5547V26.8907C23.5833 25.8337 24.5079 24.1405 24.5079 22.235V19.8866C24.5079 17.3383 22.4348 15.2651 19.8866 15.2651H17.5381C14.9899 15.2651 12.9168 17.3383 12.9168 19.8866V22.235C12.9167 24.1406 13.8413 25.8339 15.2651 26.8907V28.5547C15.2651 28.5835 15.2492 28.6094 15.2232 28.6223L12.4736 29.9972C11.2983 30.5849 10.5682 31.7663 10.5682 33.0803V35.1516C10.5682 36.4049 11.5878 37.4245 12.8411 37.4245H24.5835C25.8368 37.4245 26.8563 36.4049 26.8563 35.1516V33.0803C26.8563 31.7662 26.1262 30.5848 24.9508 29.9972ZM15.1139 22.235V19.8866C15.1139 18.5499 16.2013 17.4624 17.538 17.4624H19.8864C21.2231 17.4624 22.3104 18.5499 22.3104 19.8866V22.235C22.3104 24.2192 20.6962 25.8333 18.7122 25.8333C16.7282 25.8333 15.1139 24.219 15.1139 22.235ZM20.2674 29.6943L18.7657 31.1961C18.7602 31.2015 18.7435 31.2182 18.7122 31.2182C18.681 31.2182 18.6643 31.2015 18.6587 31.1961L17.1571 29.6945C17.3533 29.3555 17.4624 28.9654 17.4624 28.5548V27.8936C17.8652 27.9825 18.2831 28.0308 18.7122 28.0308C19.1413 28.0308 19.5592 27.9825 19.962 27.8936V28.5548C19.9622 28.9653 20.0713 29.3555 20.2674 29.6943ZM24.659 35.1517C24.659 35.1935 24.6252 35.2273 24.5835 35.2273H12.8411C12.7993 35.2273 12.7655 35.1935 12.7655 35.1517V33.0805C12.7655 32.6041 13.0302 32.1756 13.4563 31.9626L15.364 31.0087L17.105 32.7497C17.5343 33.179 18.105 33.4155 18.7122 33.4155C19.3194 33.4155 19.8902 33.179 20.3194 32.7497L22.0605 31.0086L23.9682 31.9625C24.3943 32.1756 24.659 32.6039 24.659 33.0805V35.1517Z" fill="#009AD4"/>
<path d="M42.1971 16.4395H30.4547C29.8478 16.4395 29.3561 16.9313 29.3561 17.5381V22.2351C29.3561 22.8419 29.8478 23.3338 30.4547 23.3338H42.1971C42.804 23.3338 43.2957 22.8419 43.2957 22.2351V17.5381C43.2957 16.9313 42.804 16.4395 42.1971 16.4395ZM41.0984 21.1365H31.5533V18.6367H41.0984V21.1365Z" fill="#009AD4"/>
<path d="M42.1971 25.8335H30.4547C29.8478 25.8335 29.3561 26.3254 29.3561 26.9321C29.3561 27.5389 29.8478 28.0308 30.4547 28.0308H42.1971C42.804 28.0308 43.2957 27.5389 43.2957 26.9321C43.2957 26.3254 42.804 25.8335 42.1971 25.8335Z" fill="#009AD4"/>
<path d="M35.1516 30.5303H30.4547C29.8478 30.5303 29.3561 31.0222 29.3561 31.6289C29.3561 32.2356 29.8478 32.7275 30.4547 32.7275H35.1516C35.7585 32.7275 36.2502 32.2356 36.2502 31.6289C36.2502 31.0222 35.7585 30.5303 35.1516 30.5303Z" fill="#009AD4"/>
<path d="M42.1971 39.9243H11.6669C11.0601 39.9243 10.5682 40.4162 10.5682 41.023C10.5682 41.6297 11.0601 42.1216 11.6669 42.1216H42.1971C42.8039 42.1216 43.2957 41.6297 43.2957 41.023C43.2957 40.4162 42.8039 39.9243 42.1971 39.9243Z" fill="#009AD4"/>
<path d="M14.0153 44.6211H11.6669C11.0601 44.6211 10.5682 45.113 10.5682 45.7197C10.5682 46.3265 11.0601 46.8184 11.6669 46.8184H14.0153C14.6221 46.8184 15.1139 46.3265 15.1139 45.7197C15.1139 45.113 14.6221 44.6211 14.0153 44.6211Z" fill="#009AD4"/>
<path d="M14.0153 58.7119H11.6669C11.0601 58.7119 10.5682 59.2038 10.5682 59.8105C10.5682 60.4173 11.0601 60.9092 11.6669 60.9092H14.0153C14.6221 60.9092 15.1139 60.4173 15.1139 59.8105C15.1139 59.2038 14.6221 58.7119 14.0153 58.7119Z" fill="#009AD4"/>
<path d="M14.0153 54.0151H11.6669C11.0601 54.0151 10.5682 54.507 10.5682 55.1138C10.5682 55.7205 11.0601 56.2124 11.6669 56.2124H14.0153C14.6221 56.2124 15.1139 55.7205 15.1139 55.1138C15.1139 54.507 14.6221 54.0151 14.0153 54.0151Z" fill="#009AD4"/>
<path d="M14.0153 49.3179H11.6669C11.0601 49.3179 10.5682 49.8098 10.5682 50.4165C10.5682 51.0232 11.0601 51.5151 11.6669 51.5151H14.0153C14.6221 51.5151 15.1139 51.0232 15.1139 50.4165C15.1139 49.8098 14.6221 49.3179 14.0153 49.3179Z" fill="#009AD4"/>
<path d="M25.7578 44.6211H18.7123C18.1055 44.6211 17.6136 45.113 17.6136 45.7197C17.6136 46.3265 18.1055 46.8184 18.7123 46.8184H25.7578C26.3645 46.8184 26.8564 46.3265 26.8564 45.7197C26.8564 45.113 26.3645 44.6211 25.7578 44.6211Z" fill="#009AD4"/>
<path d="M30.4548 58.7119H18.7123C18.1055 58.7119 17.6136 59.2038 17.6136 59.8105C17.6136 60.4173 18.1055 60.9092 18.7123 60.9092H30.4548C31.0617 60.9092 31.5534 60.4173 31.5534 59.8105C31.5534 59.2038 31.0617 58.7119 30.4548 58.7119Z" fill="#009AD4"/>
<path d="M25.7578 54.0151H18.7123C18.1055 54.0151 17.6136 54.507 17.6136 55.1138C17.6136 55.7205 18.1055 56.2124 18.7123 56.2124H25.7578C26.3645 56.2124 26.8564 55.7205 26.8564 55.1138C26.8564 54.507 26.3645 54.0151 25.7578 54.0151Z" fill="#009AD4"/>
<path d="M30.4548 49.3179H18.7123C18.1055 49.3179 17.6136 49.8098 17.6136 50.4165C17.6136 51.0232 18.1055 51.5151 18.7123 51.5151H30.4548C31.0617 51.5151 31.5534 51.0232 31.5534 50.4165C31.5534 49.8098 31.0617 49.3179 30.4548 49.3179Z" fill="#009AD4"/>
<path d="M42.1971 49.3179H36.3258C35.7189 49.3179 35.2272 49.8098 35.2272 50.4165C35.2272 51.0232 35.7189 51.5151 36.3258 51.5151H42.1971C42.8039 51.5151 43.2957 51.0232 43.2957 50.4165C43.2957 49.8098 42.8039 49.3179 42.1971 49.3179Z" fill="#009AD4"/>
<path d="M42.1971 44.6211H36.3258C35.7189 44.6211 35.2272 45.113 35.2272 45.7197C35.2272 46.3265 35.7189 46.8184 36.3258 46.8184H42.1971C42.8039 46.8184 43.2957 46.3265 43.2957 45.7197C43.2957 45.113 42.8039 44.6211 42.1971 44.6211Z" fill="#009AD4"/>
<path d="M42.1971 54.0151H36.3258C35.7189 54.0151 35.2272 54.507 35.2272 55.1138C35.2272 55.7205 35.7189 56.2124 36.3258 56.2124H42.1971C42.8039 56.2124 43.2957 55.7205 43.2957 55.1138C43.2957 54.507 42.8039 54.0151 42.1971 54.0151Z" fill="#009AD4"/>
<path d="M42.1971 58.7119H36.3258C35.7189 58.7119 35.2272 59.2038 35.2272 59.8105C35.2272 60.4173 35.7189 60.9092 36.3258 60.9092H42.1971C42.8039 60.9092 43.2957 60.4173 43.2957 59.8105C43.2957 59.2038 42.8039 58.7119 42.1971 58.7119Z" fill="#009AD4"/>
</svg>
