<svg width="103" height="75" viewBox="0 0 103 75" fill="none" xmlns="http://www.w3.org/2000/svg">
<path d="M97.5968 55.0677L91.4161 53.3018C91.1493 53.2255 90.9629 52.9785 90.9629 52.701V50.6379C91.4657 50.2895 91.9454 49.8996 92.3938 49.4644C94.5668 47.3557 95.7634 44.5273 95.7634 41.4999V38.653L96.361 37.458C97.0169 36.146 97.3635 34.6772 97.3635 33.2106V25.4984C97.3635 24.672 96.6935 24.0019 95.867 24.0019H81.4657C76.229 24.0019 71.9684 28.2625 71.9684 33.4991V33.5883C71.9684 34.8079 72.2567 36.0293 72.8021 37.12L73.5685 38.6528V41.0972C73.5685 44.971 75.4775 48.4468 78.369 50.5384L78.3694 52.7006C78.3694 53.034 78.3694 53.1721 77.1337 53.5252L74.1178 54.3869L65.3938 51.2146C65.4251 50.8029 65.2863 50.3843 64.986 50.0688L62.1982 47.14V42.2234C62.4929 41.9805 62.7834 41.7311 63.065 41.4673C66.5819 38.1709 68.5988 33.5169 68.5988 28.6987V24.7721C69.6607 22.4613 70.1989 20.0159 70.1989 17.4975V1.49654C70.1989 0.670051 69.5289 0 68.7024 0H46.3004C38.4166 0 32.0028 6.41397 32.0028 14.2975V17.4979C32.0028 20.0163 32.541 22.4617 33.6029 24.7725V28.1509C33.6029 33.7452 36.0904 38.7851 40.0035 42.1078V47.1402L37.2158 50.069C36.9155 50.3845 36.7766 50.8031 36.8079 51.2148L27.6002 54.5628C26.9329 54.8055 26.313 55.1341 25.7501 55.5322L24.3042 54.8093C28.6083 52.9358 29.9717 50.3009 30.0372 50.17C30.2479 49.7488 30.2479 49.2527 30.0372 48.8315C28.9583 46.6737 28.8276 42.7186 28.7226 39.5408C28.6877 38.4828 28.6546 37.4833 28.5913 36.5934C28.0811 29.4152 22.6241 24.0019 15.8976 24.0019C9.1712 24.0019 3.71401 29.415 3.20399 36.5934C3.14074 37.4835 3.10762 38.483 3.0727 39.5412C2.96774 42.7188 2.83684 46.6735 1.75814 48.8313C1.54742 49.2525 1.54742 49.7486 1.75814 50.1698C1.82358 50.3007 3.18424 52.9302 7.49687 54.8059L3.48075 56.8138C1.33372 57.8882 0 60.0462 0 62.4464V73.5027C0 74.3291 0.670051 74.9992 1.49654 74.9992C2.32303 74.9992 2.99308 74.3291 2.99308 73.5027V62.4464C2.99308 61.1869 3.69286 60.0546 4.81926 59.4913L9.8203 56.9908L11.5599 58.644C12.7763 59.7999 14.3367 60.3776 15.8976 60.3776C17.4582 60.3776 19.0194 59.7995 20.2354 58.644L21.9748 56.991L23.6054 57.8063C22.8376 59.0349 22.4018 60.4756 22.4018 61.9847V73.5031C22.4018 74.3295 23.0719 74.9996 23.8983 74.9996C24.7248 74.9996 25.3949 74.3295 25.3949 73.5031V61.9847C25.3949 59.9302 26.6921 58.0781 28.623 57.3759L38.331 53.8459L42.3722 59.9081C42.8888 60.6831 43.7167 61.1801 44.6436 61.2719C44.7469 61.2821 44.8497 61.2871 44.9523 61.2871C45.77 61.2871 46.5532 60.9652 47.1386 60.38L49.6041 57.9145V73.5033C49.6041 74.3298 50.2742 74.9998 51.1007 74.9998C51.9271 74.9998 52.5972 74.3298 52.5972 73.5033V57.9145L55.0627 60.38C55.6479 60.9654 56.4311 61.2873 57.249 61.2873C57.3514 61.2873 57.4544 61.2823 57.5575 61.2721C58.4846 61.1804 59.3125 60.6833 59.8291 59.9083L63.8705 53.8463L73.5783 57.3763C75.509 58.0785 76.8064 59.9306 76.8064 61.9851V73.5035C76.8064 74.3299 77.4765 75 78.303 75C79.1295 75 79.7995 74.3299 79.7995 73.5035V61.9851C79.7995 59.9043 78.9728 57.9528 77.586 56.5095L77.9558 56.404C78.3287 56.2974 78.8375 56.1516 79.3484 55.9011L83.1693 59.7221V73.5035C83.1693 74.3299 83.8394 75 84.6659 75C85.4923 75 86.1624 74.3299 86.1624 73.5035V59.7221L89.9568 55.9277C90.1586 56.0303 90.3705 56.1169 90.5936 56.1805L96.7745 57.9464C98.1852 58.3495 99.1707 59.6559 99.1707 61.1233V73.5035C99.1707 74.3299 99.8408 75 100.667 75C101.494 75 102.164 74.3299 102.164 73.5035V61.1233C102.164 58.3261 100.286 55.8361 97.5968 55.0677ZM9.6008 52.4244C6.80148 51.4171 5.39732 50.0742 4.79791 49.3409C5.20656 48.2726 5.47155 47.049 5.65094 45.7574C6.47623 47.7362 7.85843 49.4255 9.6008 50.6307V52.4244ZM18.174 56.4746C16.8975 57.6874 14.898 57.6872 13.6219 56.4744L12.2301 55.1519C12.465 54.7119 12.5941 54.2131 12.5941 53.6905V52.0954C13.6381 52.4216 14.7479 52.5976 15.898 52.5976C17.0468 52.5976 18.156 52.4208 19.2018 52.0963L19.2016 53.6903C19.2016 54.2131 19.3305 54.7121 19.5656 55.1523L18.174 56.4746ZM15.8984 49.6045C11.4296 49.6045 7.79418 45.9689 7.79418 41.5002C7.79418 40.6738 7.12413 40.0037 6.29764 40.0037C6.21383 40.0037 6.13202 40.0123 6.05201 40.0257C6.0564 39.897 6.06059 39.7681 6.06498 39.6405C6.0983 38.6115 6.13043 37.6396 6.18969 36.8059C6.38085 34.1169 7.45536 31.639 9.21529 29.8284C10.991 28.0015 13.3643 26.9954 15.898 26.9954C18.4318 26.9954 20.8049 28.0015 22.5808 29.8284C24.3407 31.639 25.4152 34.1169 25.6064 36.8059C25.6655 37.6394 25.6978 38.6111 25.7317 39.6399C25.7347 39.7283 25.7377 39.8179 25.7407 39.9069C24.1125 37.3983 21.5979 35.5496 18.3488 34.5056C15.3471 33.5413 12.7655 33.6009 12.6565 33.6037C12.2646 33.6147 11.8927 33.7787 11.6207 34.0609L8.92058 36.8612C8.3469 37.4562 8.36406 38.4036 8.95909 38.9773C9.55411 39.551 10.5015 39.5336 11.0752 38.9388L13.322 36.6088C15.2569 36.7033 21.4819 37.4273 23.9029 42.7583C23.2937 46.6869 19.9172 49.6045 15.8984 49.6045ZM22.1945 52.4294L22.1947 50.6445C23.9357 49.4459 25.3199 47.7598 26.1458 45.766C26.3251 47.0546 26.5899 48.2754 26.9978 49.3413C26.4018 50.0676 24.991 51.4225 22.1945 52.4294ZM36.596 28.1507V24.4377C36.596 24.2124 36.5451 23.9899 36.4471 23.787C35.4842 21.7928 34.9959 19.6769 34.9959 17.4979V14.2977C34.9959 8.06435 40.0672 2.99328 46.3004 2.99328H67.2058V17.4981C67.2058 19.6771 66.7176 21.793 65.7546 23.7872C65.6566 23.9901 65.6057 24.2126 65.6057 24.4379V28.699C65.6057 32.7519 63.9765 36.511 61.0181 39.284C60.6488 39.63 60.2655 39.9544 59.8692 40.2567C59.8604 40.2627 59.852 40.2693 59.8434 40.2755C57.0721 42.3796 53.6775 43.4023 50.1325 43.1726C42.5418 42.6811 36.596 36.0828 36.596 28.1507ZM45.0223 58.2633C45.0119 58.2737 44.9878 58.2982 44.9389 58.293C44.8902 58.2882 44.8711 58.2597 44.8629 58.2473L40.2086 51.2659L41.7064 49.6921L48.7671 54.5183L45.0223 58.2633ZM51.1009 52.488L42.9966 46.9485V44.1549C45.0935 45.2885 47.4415 45.9974 49.9387 46.1591C50.3332 46.1846 50.7253 46.1972 51.1162 46.1972C53.9778 46.1972 56.7318 45.5132 59.2051 44.2148V46.9485L51.1009 52.488ZM57.3388 58.2477C57.3307 58.2601 57.3115 58.2886 57.2628 58.2934C57.2139 58.2996 57.19 58.2739 57.1794 58.2637L53.4347 54.5189L60.4953 49.6925L61.9933 51.2663L57.3388 58.2477ZM84.6659 56.985L81.2697 53.5891C81.329 53.3199 81.3625 53.0252 81.3623 52.7002L81.3621 52.0686C82.3045 52.3779 83.2978 52.5615 84.3256 52.5922C84.441 52.5958 84.5553 52.5974 84.6702 52.5974C85.806 52.5974 86.9147 52.4258 87.9698 52.0983V52.701C87.9698 52.9995 88.0073 53.292 88.078 53.5731L84.6659 56.985ZM90.3094 47.3166C88.7233 48.8558 86.6279 49.6688 84.4156 49.6005C80.0848 49.4706 76.5616 45.656 76.5616 41.0976V38.2998C76.5616 38.0674 76.5075 37.8383 76.4036 37.6306L75.4791 35.7817C75.1405 35.1042 74.9615 34.346 74.9615 33.5885V33.4993C74.9615 29.9128 77.8793 26.9952 81.4657 26.9952H94.3704V33.2108C94.3704 34.2153 94.133 35.2212 93.6838 36.1197L92.9284 37.6306C92.8244 37.8385 92.7703 38.0674 92.7703 38.2998V41.5C92.7703 43.7109 91.8963 45.7766 90.3094 47.3166Z" fill="#009AD4"/>
</svg>
