<svg width="278" height="1136" viewBox="0 0 278 1136" fill="none" xmlns="http://www.w3.org/2000/svg">
<path d="M267.061 351.989L120.518 498.532L125.683 503.698L272.227 357.155L267.061 351.989Z" fill="#CCCCCC" fill-opacity="0.15"/>
<path d="M240.976 429.523L114.015 556.483L119.181 561.648L246.141 434.688L240.976 429.523Z" fill="#CCCCCC" fill-opacity="0.15"/>
<path d="M209.07 513.01L139.698 582.382L144.863 587.548L214.235 518.175L209.07 513.01Z" fill="#CCCCCC" fill-opacity="0.15"/>
<path d="M200.181 573.404L165.554 608.031L170.72 613.197L205.347 578.57L200.181 573.404Z" fill="#CCCCCC" fill-opacity="0.15"/>
<path d="M57.6327 561.502L-88.9103 708.045L-83.7449 713.211L62.7981 566.667L57.6327 561.502Z" fill="#CCCCCC" fill-opacity="0.15"/>
<path d="M115.031 555.555L-95.6011 766.187L-90.4357 771.352L120.196 560.72L115.031 555.555Z" fill="#CCCCCC" fill-opacity="0.15"/>
<path d="M140.917 581.32L52.3403 669.896L57.5057 675.061L146.082 586.485L140.917 581.32Z" fill="#CCCCCC" fill-opacity="0.15"/>
<path d="M18.8489 703.319L-69.7274 791.895L-64.562 797.06L24.0143 708.484L18.8489 703.319Z" fill="#CCCCCC" fill-opacity="0.15"/>
<path d="M121.603 806.263L33.0271 894.84L38.1924 900.005L126.769 811.429L121.603 806.263Z" fill="#CCCCCC" fill-opacity="0.15"/>
<path d="M165.421 608.209L22.704 750.926L27.8694 756.092L170.586 613.375L165.421 608.209Z" fill="#CCCCCC" fill-opacity="0.15"/>
<path d="M72.2795 804.288L39.798 836.77L44.9634 841.935L77.4449 809.454L72.2795 804.288Z" fill="#CCCCCC" fill-opacity="0.15"/>
<path d="M83.5708 741.284L-18.506 843.361L-13.3407 848.526L88.7361 746.45L83.5708 741.284Z" fill="#CCCCCC" fill-opacity="0.15"/>
<path d="M34.246 893.776L-54.3302 982.353L-49.1648 987.518L39.4114 898.942L34.246 893.776Z" fill="#CCCCCC" fill-opacity="0.15"/>
<path d="M7.5237 869.13L-169.82 1046.47L-164.655 1051.64L12.6891 874.295L7.5237 869.13Z" fill="#CCCCCC" fill-opacity="0.15"/>
<path d="M58.9965 920.614L-150.679 1130.29L-145.513 1135.45L64.1619 925.78L58.9965 920.614Z" fill="#CCCCCC" fill-opacity="0.15"/>
<path d="M222.76 190.522L195.026 218.256L200.191 223.422L227.926 195.688L222.76 190.522Z" fill="#CCCCCC" fill-opacity="0.15"/>
<path d="M91.0914 116.176L-85.3734 292.64L-80.208 297.806L96.2568 121.341L91.0914 116.176Z" fill="#CCCCCC" fill-opacity="0.15"/>
<path d="M84.7152 174.004L-91.876 350.595L-86.7106 355.76L89.8806 179.169L84.7152 174.004Z" fill="#CCCCCC" fill-opacity="0.15"/>
<path d="M144.641 165.728L56.0651 254.304L61.2305 259.469L149.807 170.893L144.641 165.728Z" fill="#CCCCCC" fill-opacity="0.15"/>
<path d="M22.3827 287.918L-66.1936 376.495L-61.0282 381.66L27.5481 293.084L22.3827 287.918Z" fill="#CCCCCC" fill-opacity="0.15"/>
<path d="M213.891 302.177L158.82 357.249L163.985 362.414L219.056 307.343L213.891 302.177Z" fill="#CCCCCC" fill-opacity="0.15"/>
<path d="M125.328 390.671L36.7518 479.248L41.9172 484.413L130.493 395.837L125.328 390.671Z" fill="#CCCCCC" fill-opacity="0.15"/>
<path d="M169.146 192.618L26.4291 335.334L31.5944 340.5L174.311 197.783L169.146 192.618Z" fill="#CCCCCC" fill-opacity="0.15"/>
<path d="M187.338 277.362L43.332 421.368L48.4973 426.533L192.503 282.527L187.338 277.362Z" fill="#CCCCCC" fill-opacity="0.15"/>
<path d="M272.152 295.507L62.4768 505.182L67.6421 510.348L277.317 300.672L272.152 295.507Z" fill="#CCCCCC" fill-opacity="0.15"/>
<path d="M195.085 218.285L-14.5899 427.96L-9.42458 433.126L200.251 223.45L195.085 218.285Z" fill="#CCCCCC" fill-opacity="0.15"/>
<path d="M37.7794 478.376L-50.7969 566.952L-45.6315 572.118L42.9447 483.541L37.7794 478.376Z" fill="#CCCCCC" fill-opacity="0.15"/>
<path d="M11.2505 453.537L-166.093 630.881L-160.928 636.046L16.4158 458.702L11.2505 453.537Z" fill="#CCCCCC" fill-opacity="0.15"/>
<path d="M62.7242 505.02L-146.951 714.695L-141.786 719.86L67.8896 510.185L62.7242 505.02Z" fill="#CCCCCC" fill-opacity="0.15"/>
<path d="M103.797 0.717616L40.6681 63.8469L45.8334 69.0123L108.963 5.88297L103.797 0.717616Z" fill="#CCCCCC" fill-opacity="0.15"/>
<path d="M40.5043 63.7841L-48.072 152.36L-42.9066 157.526L45.6697 68.9494L40.5043 63.7841Z" fill="#CCCCCC" fill-opacity="0.15"/>
<path d="M36.8809 16.0384L-162.56 215.479L-157.394 220.644L42.0462 21.2038L36.8809 16.0384Z" fill="#CCCCCC" fill-opacity="0.15"/>
<path d="M66.4519 89.4248L-143.223 299.1L-138.058 304.265L71.6172 94.5902L66.4519 89.4248Z" fill="#CCCCCC" fill-opacity="0.15"/>
</svg>
