<svg width="89" height="75" viewBox="0 0 89 75" fill="none" xmlns="http://www.w3.org/2000/svg">
<path d="M81.6923 6.92308H80.3077V4.15385C80.3077 1.86335 78.4443 0 76.1538 0C73.8633 0 72 1.86335 72 4.15385V6.92308H16.6154V4.15385C16.6154 1.86335 14.752 0 12.4615 0C10.171 0 8.30769 1.86335 8.30769 4.15385V6.92308H6.92308C3.10569 6.92308 0 10.0288 0 13.8462V68.0769C0 71.8943 3.10569 75 6.92308 75H81.6923C85.5097 75 88.6154 71.8943 88.6154 68.0769V13.8462C88.6154 10.0288 85.5097 6.92308 81.6923 6.92308ZM74.7692 4.15385C74.7692 3.3904 75.3904 2.76923 76.1538 2.76923C76.9173 2.76923 77.5385 3.3904 77.5385 4.15385V8.3044L77.5383 8.30769L77.5385 8.31098V12.4615C77.5385 13.225 76.9173 13.8462 76.1538 13.8462C75.3904 13.8462 74.7692 13.225 74.7692 12.4615V4.15385ZM12.4615 2.76923C13.225 2.76923 13.8462 3.3904 13.8462 4.15385V12.4615C13.8462 13.225 13.225 13.8462 12.4615 13.8462C11.6981 13.8462 11.0769 13.225 11.0769 12.4615V8.30942V8.30769V8.30596V4.15385C11.0769 3.3904 11.6981 2.76923 12.4615 2.76923ZM81.6923 72.2308H6.92308C4.63258 72.2308 2.76923 70.3674 2.76923 68.0769V22.1538H69.2308C69.9954 22.1538 70.6154 21.5339 70.6154 20.7692C70.6154 20.0046 69.9954 19.3846 69.2308 19.3846H2.76923V13.8462C2.76923 11.5557 4.63258 9.69231 6.92308 9.69231H8.30769V12.4615C8.30769 14.752 10.171 16.6154 12.4615 16.6154C14.752 16.6154 16.6154 14.752 16.6154 12.4615V9.69231H72V12.4615C72 14.752 73.8633 16.6154 76.1538 16.6154C78.4443 16.6154 80.3077 14.752 80.3077 12.4615V9.69231H81.6923C83.9828 9.69231 85.8462 11.5557 85.8462 13.8462V19.3846H83.0769C82.3123 19.3846 81.6923 20.0046 81.6923 20.7692C81.6923 21.5339 82.3123 22.1538 83.0769 22.1538H85.8462V68.0769C85.8462 70.3674 83.9828 72.2308 81.6923 72.2308Z" fill="#FF9404"/>
<path d="M77.5386 19.3848H74.7694C74.0047 19.3848 73.3848 20.0047 73.3848 20.7694C73.3848 21.534 74.0047 22.154 74.7694 22.154H77.5386C78.3033 22.154 78.9232 21.534 78.9232 20.7694C78.9232 20.0047 78.3033 19.3848 77.5386 19.3848Z" fill="#FF9404"/>
<path d="M45.6924 31.8462H42.9232C42.1585 31.8462 41.5386 32.4662 41.5386 33.2308C41.5386 33.9955 42.1585 34.6154 42.9232 34.6154H45.6924C46.4571 34.6154 47.077 33.9955 47.077 33.2308C47.077 32.4662 46.4571 31.8462 45.6924 31.8462Z" fill="#FF9404"/>
<path d="M45.6924 38.7695H42.9232C42.1585 38.7695 41.5386 39.3895 41.5386 40.1541C41.5386 40.9188 42.1585 41.5388 42.9232 41.5388H45.6924C46.4571 41.5388 47.077 40.9188 47.077 40.1541C47.077 39.3895 46.4571 38.7695 45.6924 38.7695Z" fill="#009AD4"/>
<path d="M45.6924 45.6924H42.9232C42.1585 45.6924 41.5386 46.3123 41.5386 47.077C41.5386 47.8417 42.1585 48.4616 42.9232 48.4616H45.6924C46.4571 48.4616 47.077 47.8417 47.077 47.077C47.077 46.3123 46.4571 45.6924 45.6924 45.6924Z" fill="#009AD4"/>
<path d="M45.6924 52.6152H42.9232C42.1585 52.6152 41.5386 53.2352 41.5386 53.9998C41.5386 54.7645 42.1585 55.3845 42.9232 55.3845H45.6924C46.4571 55.3845 47.077 54.7645 47.077 53.9998C47.077 53.2352 46.4571 52.6152 45.6924 52.6152Z" fill="#FF9404"/>
<path d="M55.3843 31.8462H52.6151C51.8504 31.8462 51.2305 32.4662 51.2305 33.2308C51.2305 33.9955 51.8504 34.6154 52.6151 34.6154H55.3843C56.149 34.6154 56.7689 33.9955 56.7689 33.2308C56.7689 32.4662 56.149 31.8462 55.3843 31.8462Z" fill="#FF9404"/>
<path d="M55.3843 38.7695H52.6151C51.8504 38.7695 51.2305 39.3895 51.2305 40.1541C51.2305 40.9188 51.8504 41.5388 52.6151 41.5388H55.3843C56.149 41.5388 56.7689 40.9188 56.7689 40.1541C56.7689 39.3895 56.149 38.7695 55.3843 38.7695Z" fill="#009AD4"/>
<path d="M55.3843 45.6924H52.6151C51.8504 45.6924 51.2305 46.3123 51.2305 47.077C51.2305 47.8417 51.8504 48.4616 52.6151 48.4616H55.3843C56.149 48.4616 56.7689 47.8417 56.7689 47.077C56.7689 46.3123 56.149 45.6924 55.3843 45.6924Z" fill="#009AD4"/>
<path d="M55.3843 52.6152H52.6151C51.8504 52.6152 51.2305 53.2352 51.2305 53.9998C51.2305 54.7645 51.8504 55.3845 52.6151 55.3845H55.3843C56.149 55.3845 56.7689 54.7645 56.7689 53.9998C56.7689 53.2352 56.149 52.6152 55.3843 52.6152Z" fill="#FF9404"/>
<path d="M36 31.8462H33.2308C32.4662 31.8462 31.8462 32.4662 31.8462 33.2308C31.8462 33.9955 32.4662 34.6154 33.2308 34.6154H36C36.7647 34.6154 37.3847 33.9955 37.3847 33.2308C37.3847 32.4662 36.7647 31.8462 36 31.8462Z" fill="#FF9404"/>
<path d="M36 38.7695H33.2308C32.4662 38.7695 31.8462 39.3895 31.8462 40.1541C31.8462 40.9188 32.4662 41.5388 33.2308 41.5388H36C36.7647 41.5388 37.3847 40.9188 37.3847 40.1541C37.3847 39.3895 36.7647 38.7695 36 38.7695Z" fill="#009AD4"/>
<path d="M36 45.6924H33.2308C32.4662 45.6924 31.8462 46.3123 31.8462 47.077C31.8462 47.8417 32.4662 48.4616 33.2308 48.4616H36C36.7647 48.4616 37.3847 47.8417 37.3847 47.077C37.3847 46.3123 36.7647 45.6924 36 45.6924Z" fill="#009AD4"/>
<path d="M36 52.6152H33.2308C32.4662 52.6152 31.8462 53.2352 31.8462 53.9998C31.8462 54.7645 32.4662 55.3845 33.2308 55.3845H36C36.7647 55.3845 37.3847 54.7645 37.3847 53.9998C37.3847 53.2352 36.7647 52.6152 36 52.6152Z" fill="#FF9404"/>
<path d="M36 59.5386H33.2308C32.4662 59.5386 31.8462 60.1585 31.8462 60.9232C31.8462 61.6878 32.4662 62.3078 33.2308 62.3078H36C36.7647 62.3078 37.3847 61.6878 37.3847 60.9232C37.3847 60.1585 36.7647 59.5386 36 59.5386Z" fill="#FF9404"/>
<path d="M26.3077 31.8462H23.5384C22.7738 31.8462 22.1538 32.4662 22.1538 33.2308C22.1538 33.9955 22.7738 34.6154 23.5384 34.6154H26.3077C27.0723 34.6154 27.6923 33.9955 27.6923 33.2308C27.6923 32.4662 27.0723 31.8462 26.3077 31.8462Z" fill="#FF9404"/>
<path d="M26.3077 38.7695H23.5384C22.7738 38.7695 22.1538 39.3895 22.1538 40.1541C22.1538 40.9188 22.7738 41.5388 23.5384 41.5388H26.3077C27.0723 41.5388 27.6923 40.9188 27.6923 40.1541C27.6923 39.3895 27.0723 38.7695 26.3077 38.7695Z" fill="#009AD4"/>
<path d="M26.3077 45.6924H23.5384C22.7738 45.6924 22.1538 46.3123 22.1538 47.077C22.1538 47.8417 22.7738 48.4616 23.5384 48.4616H26.3077C27.0723 48.4616 27.6923 47.8417 27.6923 47.077C27.6923 46.3123 27.0723 45.6924 26.3077 45.6924Z" fill="#009AD4"/>
<path d="M26.3077 52.6152H23.5384C22.7738 52.6152 22.1538 53.2352 22.1538 53.9998C22.1538 54.7645 22.7738 55.3845 23.5384 55.3845H26.3077C27.0723 55.3845 27.6923 54.7645 27.6923 53.9998C27.6923 53.2352 27.0723 52.6152 26.3077 52.6152Z" fill="#FF9404"/>
<path d="M26.3077 59.5386H23.5384C22.7738 59.5386 22.1538 60.1585 22.1538 60.9232C22.1538 61.6878 22.7738 62.3078 23.5384 62.3078H26.3077C27.0723 62.3078 27.6923 61.6878 27.6923 60.9232C27.6923 60.1585 27.0723 59.5386 26.3077 59.5386Z" fill="#FF9404"/>
<path d="M65.0767 31.8462H62.3075C61.5428 31.8462 60.9229 32.4662 60.9229 33.2308C60.9229 33.9955 61.5428 34.6154 62.3075 34.6154H65.0767C65.8414 34.6154 66.4613 33.9955 66.4613 33.2308C66.4613 32.4662 65.8414 31.8462 65.0767 31.8462Z" fill="#FF9404"/>
<path d="M65.0767 38.7695H62.3075C61.5428 38.7695 60.9229 39.3895 60.9229 40.1541C60.9229 40.9188 61.5428 41.5388 62.3075 41.5388H65.0767C65.8414 41.5388 66.4613 40.9188 66.4613 40.1541C66.4613 39.3895 65.8414 38.7695 65.0767 38.7695Z" fill="#009AD4"/>
<path d="M65.0767 45.6924H62.3075C61.5428 45.6924 60.9229 46.3123 60.9229 47.077C60.9229 47.8417 61.5428 48.4616 62.3075 48.4616H65.0767C65.8414 48.4616 66.4613 47.8417 66.4613 47.077C66.4613 46.3123 65.8414 45.6924 65.0767 45.6924Z" fill="#009AD4"/>
<path d="M65.0767 52.6152H62.3075C61.5428 52.6152 60.9229 53.2352 60.9229 53.9998C60.9229 54.7645 61.5428 55.3845 62.3075 55.3845H65.0767C65.8414 55.3845 66.4613 54.7645 66.4613 53.9998C66.4613 53.2352 65.8414 52.6152 65.0767 52.6152Z" fill="#FF9404"/>
<path d="M74.7691 31.8462H71.9998C71.2352 31.8462 70.6152 32.4662 70.6152 33.2308C70.6152 33.9955 71.2352 34.6154 71.9998 34.6154H74.7691C75.5337 34.6154 76.1537 33.9955 76.1537 33.2308C76.1537 32.4662 75.5337 31.8462 74.7691 31.8462Z" fill="#FF9404"/>
<path d="M74.7691 38.7695H71.9998C71.2352 38.7695 70.6152 39.3895 70.6152 40.1541C70.6152 40.9188 71.2352 41.5388 71.9998 41.5388H74.7691C75.5337 41.5388 76.1537 40.9188 76.1537 40.1541C76.1537 39.3895 75.5337 38.7695 74.7691 38.7695Z" fill="#009AD4"/>
<path d="M74.7691 45.6924H71.9998C71.2352 45.6924 70.6152 46.3123 70.6152 47.077C70.6152 47.8417 71.2352 48.4616 71.9998 48.4616H74.7691C75.5337 48.4616 76.1537 47.8417 76.1537 47.077C76.1537 46.3123 75.5337 45.6924 74.7691 45.6924Z" fill="#009AD4"/>
<path d="M74.7691 52.6152H71.9998C71.2352 52.6152 70.6152 53.2352 70.6152 53.9998C70.6152 54.7645 71.2352 55.3845 71.9998 55.3845H74.7691C75.5337 55.3845 76.1537 54.7645 76.1537 53.9998C76.1537 53.2352 75.5337 52.6152 74.7691 52.6152Z" fill="#FF9404"/>
<path d="M16.6158 31.8462H13.8465C13.0819 31.8462 12.4619 32.4662 12.4619 33.2308C12.4619 33.9955 13.0819 34.6154 13.8465 34.6154H16.6158C17.3804 34.6154 18.0004 33.9955 18.0004 33.2308C18.0004 32.4662 17.3804 31.8462 16.6158 31.8462Z" fill="#FF9404"/>
<path d="M16.6158 38.7695H13.8465C13.0819 38.7695 12.4619 39.3895 12.4619 40.1541C12.4619 40.9188 13.0819 41.5388 13.8465 41.5388H16.6158C17.3804 41.5388 18.0004 40.9188 18.0004 40.1541C18.0004 39.3895 17.3804 38.7695 16.6158 38.7695Z" fill="#009AD4"/>
<path d="M16.6158 45.6924H13.8465C13.0819 45.6924 12.4619 46.3123 12.4619 47.077C12.4619 47.8417 13.0819 48.4616 13.8465 48.4616H16.6158C17.3804 48.4616 18.0004 47.8417 18.0004 47.077C18.0004 46.3123 17.3804 45.6924 16.6158 45.6924Z" fill="#009AD4"/>
<path d="M16.6158 52.6152H13.8465C13.0819 52.6152 12.4619 53.2352 12.4619 53.9998C12.4619 54.7645 13.0819 55.3845 13.8465 55.3845H16.6158C17.3804 55.3845 18.0004 54.7645 18.0004 53.9998C18.0004 53.2352 17.3804 52.6152 16.6158 52.6152Z" fill="#FF9404"/>
<path d="M16.6158 59.5386H13.8465C13.0819 59.5386 12.4619 60.1585 12.4619 60.9232C12.4619 61.6878 13.0819 62.3078 13.8465 62.3078H16.6158C17.3804 62.3078 18.0004 61.6878 18.0004 60.9232C18.0004 60.1585 17.3804 59.5386 16.6158 59.5386Z" fill="#FF9404"/>
</svg>
