<svg width="356" height="429" viewBox="0 0 356 429" fill="none" xmlns="http://www.w3.org/2000/svg">
<g filter="url(#filter0_d)">
<rect x="16" y="16" width="297" height="397" fill="white"/>
</g>
<rect x="115" y="40" width="172" height="9" fill="#C4C4C4"/>
<rect x="115" y="57" width="172" height="6" fill="#C4C4C4"/>
<rect x="115" y="69" width="122.027" height="6" fill="#C4C4C4"/>
<circle cx="68.5" cy="57.5" r="25.5" fill="#C4C4C4"/>
<path d="M68.0654 59.834C67.9365 61.1992 67.4326 62.2656 66.5537 63.0332C65.6748 63.7949 64.5059 64.1758 63.0469 64.1758C62.0273 64.1758 61.1279 63.9355 60.3486 63.4551C59.5752 62.9688 58.9775 62.2803 58.5557 61.3896C58.1338 60.499 57.9141 59.4648 57.8965 58.2871V57.0918C57.8965 55.8848 58.1104 54.8213 58.5381 53.9014C58.9658 52.9814 59.5781 52.2725 60.375 51.7744C61.1777 51.2764 62.1035 51.0273 63.1523 51.0273C64.5645 51.0273 65.7012 51.4111 66.5625 52.1787C67.4238 52.9463 67.9248 54.0303 68.0654 55.4307H65.8506C65.7451 54.5107 65.4756 53.8486 65.042 53.4443C64.6143 53.0342 63.9844 52.8291 63.1523 52.8291C62.1855 52.8291 61.4414 53.1836 60.9199 53.8926C60.4043 54.5957 60.1406 55.6299 60.1289 56.9951V58.1289C60.1289 59.5117 60.375 60.5664 60.8672 61.293C61.3652 62.0195 62.0918 62.3828 63.0469 62.3828C63.9199 62.3828 64.5762 62.1865 65.0156 61.7939C65.4551 61.4014 65.7334 60.748 65.8506 59.834H68.0654Z" fill="white"/>
<path d="M74.5693 61.2139L77.8213 51.2031H80.2646L75.6592 64H73.5059L68.918 51.2031H71.3525L74.5693 61.2139Z" fill="white"/>
<rect x="21" y="108" width="287" height="76" fill="#F0F0F0"/>
<rect x="21" y="204" width="136" height="184" fill="#F0F0F0"/>
<rect x="39" y="118" width="118.045" height="6.96695" fill="#C4C4C4"/>
<rect x="39.2549" y="133.194" width="251.745" height="4.97639" fill="#C4C4C4"/>
<rect x="39.2549" y="145.137" width="251.745" height="4.97639" fill="#C4C4C4"/>
<rect x="39.2549" y="157.08" width="242.034" height="4.97639" fill="#C4C4C4"/>
<rect x="39.2549" y="169.024" width="224.852" height="4.97639" fill="#C4C4C4"/>
<rect x="39" y="227" width="46.843" height="6.96695" fill="#C4C4C4"/>
<rect x="39.1016" y="242.194" width="99.8983" height="4.97639" fill="#C4C4C4"/>
<rect x="39.1016" y="254.137" width="99.8983" height="4.97639" fill="#C4C4C4"/>
<rect x="39.1016" y="266.08" width="96.0446" height="4.97639" fill="#C4C4C4"/>
<rect x="39.1016" y="278.024" width="89.2266" height="4.97639" fill="#C4C4C4"/>
<rect x="39" y="301" width="46.843" height="6.96695" fill="#C4C4C4"/>
<rect x="39.1016" y="316.194" width="99.8983" height="4.97639" fill="#C4C4C4"/>
<rect x="39.1016" y="328.137" width="99.8983" height="4.97639" fill="#C4C4C4"/>
<rect x="39.1016" y="340.08" width="96.0446" height="4.97639" fill="#C4C4C4"/>
<rect x="39.1016" y="352.024" width="89.2266" height="4.97639" fill="#C4C4C4"/>
<g filter="url(#filter1_d)">
<rect x="188" y="204" width="152" height="184" fill="white"/>
<rect x="188" y="204" width="152" height="184" fill="#009AD4" fill-opacity="0.2"/>
<path d="M208.576 228.469V237H207.1V229.664H204.486L204.334 232.963C204.275 233.994 204.148 234.795 203.953 235.365C203.762 235.932 203.482 236.346 203.115 236.607C202.748 236.869 202.256 237 201.639 237H201.264V235.816L201.498 235.799C201.838 235.768 202.1 235.648 202.283 235.441C202.471 235.234 202.611 234.922 202.705 234.504C202.803 234.082 202.871 233.463 202.91 232.646L203.074 228.469H208.576ZM214.184 230.66H215.602V237H214.184V232.77L211.699 237H210.281V230.66H211.699V234.891L214.184 230.66ZM222.199 237H220.775V234.885C220.408 234.971 220.021 235.014 219.615 235.014C218.748 235.014 218.086 234.807 217.629 234.393C217.172 233.975 216.943 233.377 216.943 232.6V230.654H218.367V232.6C218.367 233.061 218.469 233.387 218.672 233.578C218.879 233.77 219.193 233.865 219.615 233.865C219.998 233.865 220.385 233.82 220.775 233.73V230.66H222.199V237ZM229.084 237H227.66V234.439H225.193V237H223.77V230.66H225.193V233.303H227.66V230.66H229.084V237ZM232.137 232.676H233.531C234.051 232.676 234.504 232.766 234.891 232.945C235.277 233.125 235.57 233.377 235.77 233.701C235.973 234.025 236.074 234.402 236.074 234.832C236.074 235.484 235.844 236.008 235.383 236.402C234.922 236.797 234.309 236.996 233.543 237H230.713V230.66H232.137V232.676ZM238.553 237H237.129V230.66H238.553V237ZM232.137 233.818V235.863H233.525C233.873 235.863 234.146 235.777 234.346 235.605C234.549 235.43 234.65 235.182 234.65 234.861C234.65 234.541 234.551 234.289 234.352 234.105C234.156 233.918 233.891 233.822 233.555 233.818H232.137ZM243.053 237.117C242.15 237.117 241.418 236.834 240.855 236.268C240.297 235.697 240.018 234.939 240.018 233.994V233.818C240.018 233.186 240.139 232.621 240.381 232.125C240.627 231.625 240.971 231.236 241.412 230.959C241.854 230.682 242.346 230.543 242.889 230.543C243.752 230.543 244.418 230.818 244.887 231.369C245.359 231.92 245.596 232.699 245.596 233.707V234.281H241.453C241.496 234.805 241.67 235.219 241.975 235.523C242.283 235.828 242.67 235.98 243.135 235.98C243.787 235.98 244.318 235.717 244.729 235.189L245.496 235.922C245.242 236.301 244.902 236.596 244.477 236.807C244.055 237.014 243.58 237.117 243.053 237.117ZM242.883 231.686C242.492 231.686 242.176 231.822 241.934 232.096C241.695 232.369 241.543 232.75 241.477 233.238H244.189V233.133C244.158 232.656 244.031 232.297 243.809 232.055C243.586 231.809 243.277 231.686 242.883 231.686ZM251.947 234.492H251.227V237H249.803V230.66H251.227V233.191H251.854L253.605 230.66H255.363L253.072 233.695L255.557 237H253.705L251.947 234.492ZM260.127 237C260.064 236.879 260.01 236.682 259.963 236.408C259.51 236.881 258.955 237.117 258.299 237.117C257.662 237.117 257.143 236.936 256.74 236.572C256.338 236.209 256.137 235.76 256.137 235.225C256.137 234.549 256.387 234.031 256.887 233.672C257.391 233.309 258.109 233.127 259.043 233.127H259.916V232.711C259.916 232.383 259.824 232.121 259.641 231.926C259.457 231.727 259.178 231.627 258.803 231.627C258.479 231.627 258.213 231.709 258.006 231.873C257.799 232.033 257.695 232.238 257.695 232.488H256.271C256.271 232.141 256.387 231.816 256.617 231.516C256.848 231.211 257.16 230.973 257.555 230.801C257.953 230.629 258.396 230.543 258.885 230.543C259.627 230.543 260.219 230.73 260.66 231.105C261.102 231.477 261.328 232 261.34 232.676V235.535C261.34 236.105 261.42 236.561 261.58 236.9V237H260.127ZM258.562 235.975C258.844 235.975 259.107 235.906 259.354 235.77C259.604 235.633 259.791 235.449 259.916 235.219V234.023H259.148C258.621 234.023 258.225 234.115 257.959 234.299C257.693 234.482 257.561 234.742 257.561 235.078C257.561 235.352 257.65 235.57 257.83 235.734C258.014 235.895 258.258 235.975 258.562 235.975ZM267.914 237H266.49V234.885C266.123 234.971 265.736 235.014 265.33 235.014C264.463 235.014 263.801 234.807 263.344 234.393C262.887 233.975 262.658 233.377 262.658 232.6V230.654H264.082V232.6C264.082 233.061 264.184 233.387 264.387 233.578C264.594 233.77 264.908 233.865 265.33 233.865C265.713 233.865 266.1 233.82 266.49 233.73V230.66H267.914V237ZM272.221 237.117C271.318 237.117 270.586 236.834 270.023 236.268C269.465 235.697 269.186 234.939 269.186 233.994V233.818C269.186 233.186 269.307 232.621 269.549 232.125C269.795 231.625 270.139 231.236 270.58 230.959C271.021 230.682 271.514 230.543 272.057 230.543C272.92 230.543 273.586 230.818 274.055 231.369C274.527 231.92 274.764 232.699 274.764 233.707V234.281H270.621C270.664 234.805 270.838 235.219 271.143 235.523C271.451 235.828 271.838 235.98 272.303 235.98C272.955 235.98 273.486 235.717 273.896 235.189L274.664 235.922C274.41 236.301 274.07 236.596 273.645 236.807C273.223 237.014 272.748 237.117 272.221 237.117ZM272.051 231.686C271.66 231.686 271.344 231.822 271.102 232.096C270.863 232.369 270.711 232.75 270.645 233.238H273.357V233.133C273.326 232.656 273.199 232.297 272.977 232.055C272.754 231.809 272.445 231.686 272.051 231.686ZM278.479 235.98C278.834 235.98 279.129 235.877 279.363 235.67C279.598 235.463 279.723 235.207 279.738 234.902H281.08C281.064 235.297 280.941 235.666 280.711 236.01C280.48 236.35 280.168 236.619 279.773 236.818C279.379 237.018 278.953 237.117 278.496 237.117C277.609 237.117 276.906 236.83 276.387 236.256C275.867 235.682 275.607 234.889 275.607 233.877V233.73C275.607 232.766 275.865 231.994 276.381 231.416C276.896 230.834 277.6 230.543 278.49 230.543C279.244 230.543 279.857 230.764 280.33 231.205C280.807 231.643 281.057 232.219 281.08 232.934H279.738C279.723 232.57 279.598 232.271 279.363 232.037C279.133 231.803 278.838 231.686 278.479 231.686C278.018 231.686 277.662 231.854 277.412 232.189C277.162 232.521 277.035 233.027 277.031 233.707V233.936C277.031 234.623 277.154 235.137 277.4 235.477C277.65 235.812 278.01 235.98 278.479 235.98ZM287.145 231.791H285.088V237H283.664V231.791H281.631V230.66H287.145V231.791ZM288.205 237V230.66H290.777C291.645 230.66 292.305 230.812 292.758 231.117C293.211 231.418 293.438 231.852 293.438 232.418C293.438 232.711 293.346 232.975 293.162 233.209C292.982 233.439 292.715 233.617 292.359 233.742C292.773 233.828 293.102 234.002 293.344 234.264C293.586 234.525 293.707 234.834 293.707 235.189C293.707 235.779 293.488 236.229 293.051 236.537C292.617 236.846 291.992 237 291.176 237H288.205ZM289.629 234.299V235.875H291.188C291.918 235.875 292.283 235.613 292.283 235.09C292.283 234.562 291.912 234.299 291.17 234.299H289.629ZM289.629 233.279H290.801C291.609 233.279 292.014 233.041 292.014 232.564C292.014 232.064 291.631 231.807 290.865 231.791H289.629V233.279ZM298.729 237C298.666 236.879 298.611 236.682 298.564 236.408C298.111 236.881 297.557 237.117 296.9 237.117C296.264 237.117 295.744 236.936 295.342 236.572C294.939 236.209 294.738 235.76 294.738 235.225C294.738 234.549 294.988 234.031 295.488 233.672C295.992 233.309 296.711 233.127 297.645 233.127H298.518V232.711C298.518 232.383 298.426 232.121 298.242 231.926C298.059 231.727 297.779 231.627 297.404 231.627C297.08 231.627 296.814 231.709 296.607 231.873C296.4 232.033 296.297 232.238 296.297 232.488H294.873C294.873 232.141 294.988 231.816 295.219 231.516C295.449 231.211 295.762 230.973 296.156 230.801C296.555 230.629 296.998 230.543 297.486 230.543C298.229 230.543 298.82 230.73 299.262 231.105C299.703 231.477 299.93 232 299.941 232.676V235.535C299.941 236.105 300.021 236.561 300.182 236.9V237H298.729ZM297.164 235.975C297.445 235.975 297.709 235.906 297.955 235.77C298.205 235.633 298.393 235.449 298.518 235.219V234.023H297.75C297.223 234.023 296.826 234.115 296.561 234.299C296.295 234.482 296.162 234.742 296.162 235.078C296.162 235.352 296.252 235.57 296.432 235.734C296.615 235.895 296.859 235.975 297.164 235.975ZM302.291 235.5C302.557 235.5 302.762 235.576 302.906 235.729C303.051 235.877 303.123 236.064 303.123 236.291C303.123 236.514 303.051 236.699 302.906 236.848C302.762 236.992 302.557 237.064 302.291 237.064C302.037 237.064 301.836 236.992 301.688 236.848C301.539 236.703 301.465 236.518 301.465 236.291C301.465 236.064 301.537 235.877 301.682 235.729C301.826 235.576 302.029 235.5 302.291 235.5ZM302.291 230.525C302.557 230.525 302.762 230.602 302.906 230.754C303.051 230.902 303.123 231.09 303.123 231.316C303.123 231.539 303.051 231.725 302.906 231.873C302.762 232.018 302.557 232.09 302.291 232.09C302.037 232.09 301.836 232.018 301.688 231.873C301.539 231.729 301.465 231.543 301.465 231.316C301.465 231.09 301.537 230.902 301.682 230.754C301.826 230.602 302.029 230.525 302.291 230.525ZM201.914 248.66H203.004V254.115H205.922V248.66H207.006V254.115H207.762L207.656 256.881H206.684V255H201.914V248.66ZM211.564 255.117C210.705 255.117 210.006 254.836 209.467 254.273C208.928 253.707 208.658 252.951 208.658 252.006V251.807C208.658 251.178 208.777 250.617 209.016 250.125C209.258 249.629 209.594 249.242 210.023 248.965C210.457 248.684 210.926 248.543 211.43 248.543C212.254 248.543 212.895 248.814 213.352 249.357C213.809 249.9 214.037 250.678 214.037 251.689V252.141H209.742C209.758 252.766 209.939 253.271 210.287 253.658C210.639 254.041 211.084 254.232 211.623 254.232C212.006 254.232 212.33 254.154 212.596 253.998C212.861 253.842 213.094 253.635 213.293 253.377L213.955 253.893C213.424 254.709 212.627 255.117 211.564 255.117ZM211.43 249.434C210.992 249.434 210.625 249.594 210.328 249.914C210.031 250.23 209.848 250.676 209.777 251.25H212.953V251.168C212.922 250.617 212.773 250.191 212.508 249.891C212.242 249.586 211.883 249.434 211.43 249.434ZM220.494 248.66V255H219.404V249.557H217.248L217.119 251.93C217.049 253.02 216.865 253.799 216.568 254.268C216.275 254.736 215.809 254.98 215.168 255H214.734V254.045L215.045 254.021C215.396 253.982 215.648 253.779 215.801 253.412C215.953 253.045 216.051 252.365 216.094 251.373L216.211 248.66H220.494ZM224.865 255.117C224.006 255.117 223.307 254.836 222.768 254.273C222.229 253.707 221.959 252.951 221.959 252.006V251.807C221.959 251.178 222.078 250.617 222.316 250.125C222.559 249.629 222.895 249.242 223.324 248.965C223.758 248.684 224.227 248.543 224.73 248.543C225.555 248.543 226.195 248.814 226.652 249.357C227.109 249.9 227.338 250.678 227.338 251.689V252.141H223.043C223.059 252.766 223.24 253.271 223.588 253.658C223.939 254.041 224.385 254.232 224.924 254.232C225.307 254.232 225.631 254.154 225.896 253.998C226.162 253.842 226.395 253.635 226.594 253.377L227.256 253.893C226.725 254.709 225.928 255.117 224.865 255.117ZM224.73 249.434C224.293 249.434 223.926 249.594 223.629 249.914C223.332 250.23 223.148 250.676 223.078 251.25H226.254V251.168C226.223 250.617 226.074 250.191 225.809 249.891C225.543 249.586 225.184 249.434 224.73 249.434ZM230.59 253.412L232.066 248.66H233.227L230.678 255.979C230.283 257.033 229.656 257.561 228.797 257.561L228.592 257.543L228.188 257.467V256.588L228.48 256.611C228.848 256.611 229.133 256.537 229.336 256.389C229.543 256.24 229.713 255.969 229.846 255.574L230.086 254.93L227.824 248.66H229.008L230.59 253.412ZM236.66 254.232C237.047 254.232 237.385 254.115 237.674 253.881C237.963 253.646 238.123 253.354 238.154 253.002H239.18C239.16 253.365 239.035 253.711 238.805 254.039C238.574 254.367 238.266 254.629 237.879 254.824C237.496 255.02 237.09 255.117 236.66 255.117C235.797 255.117 235.109 254.83 234.598 254.256C234.09 253.678 233.836 252.889 233.836 251.889V251.707C233.836 251.09 233.949 250.541 234.176 250.061C234.402 249.58 234.727 249.207 235.148 248.941C235.574 248.676 236.076 248.543 236.654 248.543C237.365 248.543 237.955 248.756 238.424 249.182C238.896 249.607 239.148 250.16 239.18 250.84H238.154C238.123 250.43 237.967 250.094 237.686 249.832C237.408 249.566 237.064 249.434 236.654 249.434C236.104 249.434 235.676 249.633 235.371 250.031C235.07 250.426 234.92 250.998 234.92 251.748V251.953C234.92 252.684 235.07 253.246 235.371 253.641C235.672 254.035 236.102 254.232 236.66 254.232ZM245.109 249.539H242.982V255H241.898V249.539H239.812V248.66H245.109V249.539ZM251.52 251.9C251.52 252.865 251.299 253.643 250.857 254.232C250.416 254.822 249.818 255.117 249.064 255.117C248.295 255.117 247.689 254.873 247.248 254.385V257.438H246.164V248.66H247.154L247.207 249.363C247.648 248.816 248.262 248.543 249.047 248.543C249.809 248.543 250.41 248.83 250.852 249.404C251.297 249.979 251.52 250.777 251.52 251.801V251.9ZM250.436 251.777C250.436 251.062 250.283 250.498 249.979 250.084C249.674 249.67 249.256 249.463 248.725 249.463C248.068 249.463 247.576 249.754 247.248 250.336V253.365C247.572 253.943 248.068 254.232 248.736 254.232C249.256 254.232 249.668 254.027 249.973 253.617C250.281 253.203 250.436 252.59 250.436 251.777ZM255.533 255.117C254.674 255.117 253.975 254.836 253.436 254.273C252.896 253.707 252.627 252.951 252.627 252.006V251.807C252.627 251.178 252.746 250.617 252.984 250.125C253.227 249.629 253.562 249.242 253.992 248.965C254.426 248.684 254.895 248.543 255.398 248.543C256.223 248.543 256.863 248.814 257.32 249.357C257.777 249.9 258.006 250.678 258.006 251.689V252.141H253.711C253.727 252.766 253.908 253.271 254.256 253.658C254.607 254.041 255.053 254.232 255.592 254.232C255.975 254.232 256.299 254.154 256.564 253.998C256.83 253.842 257.062 253.635 257.262 253.377L257.924 253.893C257.393 254.709 256.596 255.117 255.533 255.117ZM255.398 249.434C254.961 249.434 254.594 249.594 254.297 249.914C254 250.23 253.816 250.676 253.746 251.25H256.922V251.168C256.891 250.617 256.742 250.191 256.477 249.891C256.211 249.586 255.852 249.434 255.398 249.434ZM262.916 253.564L265.072 248.66H266.426V255H265.342V250.389L263.291 255H262.541L260.449 250.289V255H259.365V248.66H260.771L262.916 253.564ZM273.369 248.66V255H272.279V249.557H270.123L269.994 251.93C269.924 253.02 269.74 253.799 269.443 254.268C269.15 254.736 268.684 254.98 268.043 255H267.609V254.045L267.92 254.021C268.271 253.982 268.523 253.779 268.676 253.412C268.828 253.045 268.926 252.365 268.969 251.373L269.086 248.66H273.369ZM277.74 255.117C276.881 255.117 276.182 254.836 275.643 254.273C275.104 253.707 274.834 252.951 274.834 252.006V251.807C274.834 251.178 274.953 250.617 275.191 250.125C275.434 249.629 275.77 249.242 276.199 248.965C276.633 248.684 277.102 248.543 277.605 248.543C278.43 248.543 279.07 248.814 279.527 249.357C279.984 249.9 280.213 250.678 280.213 251.689V252.141H275.918C275.934 252.766 276.115 253.271 276.463 253.658C276.814 254.041 277.26 254.232 277.799 254.232C278.182 254.232 278.506 254.154 278.771 253.998C279.037 253.842 279.27 253.635 279.469 253.377L280.131 253.893C279.6 254.709 278.803 255.117 277.74 255.117ZM277.605 249.434C277.168 249.434 276.801 249.594 276.504 249.914C276.207 250.23 276.023 250.676 275.953 251.25H279.129V251.168C279.098 250.617 278.949 250.191 278.684 249.891C278.418 249.586 278.059 249.434 277.605 249.434ZM286.652 255H285.568V252.293H282.656V255H281.566V248.66H282.656V251.408H285.568V248.66H286.652V255ZM293.578 255H292.494V252.293H289.582V255H288.492V248.66H289.582V251.408H292.494V248.66H293.578V255ZM295.037 251.771C295.037 251.15 295.158 250.592 295.4 250.096C295.646 249.6 295.986 249.217 296.42 248.947C296.857 248.678 297.355 248.543 297.914 248.543C298.777 248.543 299.475 248.842 300.006 249.439C300.541 250.037 300.809 250.832 300.809 251.824V251.9C300.809 252.518 300.689 253.072 300.451 253.564C300.217 254.053 299.879 254.434 299.438 254.707C299 254.98 298.496 255.117 297.926 255.117C297.066 255.117 296.369 254.818 295.834 254.221C295.303 253.623 295.037 252.832 295.037 251.848V251.771ZM296.127 251.9C296.127 252.604 296.289 253.168 296.613 253.594C296.941 254.02 297.379 254.232 297.926 254.232C298.477 254.232 298.914 254.018 299.238 253.588C299.562 253.154 299.725 252.549 299.725 251.771C299.725 251.076 299.559 250.514 299.227 250.084C298.898 249.65 298.461 249.434 297.914 249.434C297.379 249.434 296.947 249.646 296.619 250.072C296.291 250.498 296.127 251.107 296.127 251.9ZM304.711 254.232C305.098 254.232 305.436 254.115 305.725 253.881C306.014 253.646 306.174 253.354 306.205 253.002H307.23C307.211 253.365 307.086 253.711 306.855 254.039C306.625 254.367 306.316 254.629 305.93 254.824C305.547 255.02 305.141 255.117 304.711 255.117C303.848 255.117 303.16 254.83 302.648 254.256C302.141 253.678 301.887 252.889 301.887 251.889V251.707C301.887 251.09 302 250.541 302.227 250.061C302.453 249.58 302.777 249.207 303.199 248.941C303.625 248.676 304.127 248.543 304.705 248.543C305.416 248.543 306.006 248.756 306.475 249.182C306.947 249.607 307.199 250.16 307.23 250.84H306.205C306.174 250.43 306.018 250.094 305.736 249.832C305.459 249.566 305.115 249.434 304.705 249.434C304.154 249.434 303.727 249.633 303.422 250.031C303.121 250.426 302.971 250.998 302.971 251.748V251.953C302.971 252.684 303.121 253.246 303.422 253.641C303.723 254.035 304.152 254.232 304.711 254.232ZM313.16 249.539H311.033V255H309.949V249.539H307.863V248.66H313.16V249.539ZM315.398 250.846H317.045C317.764 250.854 318.332 251.041 318.75 251.408C319.168 251.775 319.377 252.273 319.377 252.902C319.377 253.535 319.162 254.043 318.732 254.426C318.303 254.809 317.725 255 316.998 255H314.314V248.66H315.398V250.846ZM315.398 251.73V254.115H317.01C317.416 254.115 317.73 254.012 317.953 253.805C318.176 253.594 318.287 253.307 318.287 252.943C318.287 252.592 318.178 252.305 317.959 252.082C317.744 251.855 317.441 251.738 317.051 251.73H315.398ZM320.695 256.699L320.08 256.277C320.447 255.766 320.639 255.238 320.654 254.695V253.717H321.715V254.566C321.715 254.961 321.617 255.355 321.422 255.75C321.23 256.145 320.988 256.461 320.695 256.699ZM207.006 273H205.922V267.557H203.004V273H201.914V266.66H207.006V273ZM214.102 269.9C214.102 270.865 213.881 271.643 213.439 272.232C212.998 272.822 212.4 273.117 211.646 273.117C210.877 273.117 210.271 272.873 209.83 272.385V275.438H208.746V266.66H209.736L209.789 267.363C210.23 266.816 210.844 266.543 211.629 266.543C212.391 266.543 212.992 266.83 213.434 267.404C213.879 267.979 214.102 268.777 214.102 269.801V269.9ZM213.018 269.777C213.018 269.062 212.865 268.498 212.561 268.084C212.256 267.67 211.838 267.463 211.307 267.463C210.65 267.463 210.158 267.754 209.83 268.336V271.365C210.154 271.943 210.65 272.232 211.318 272.232C211.838 272.232 212.25 272.027 212.555 271.617C212.863 271.203 213.018 270.59 213.018 269.777ZM215.197 269.771C215.197 269.15 215.318 268.592 215.561 268.096C215.807 267.6 216.146 267.217 216.58 266.947C217.018 266.678 217.516 266.543 218.074 266.543C218.938 266.543 219.635 266.842 220.166 267.439C220.701 268.037 220.969 268.832 220.969 269.824V269.9C220.969 270.518 220.85 271.072 220.611 271.564C220.377 272.053 220.039 272.434 219.598 272.707C219.16 272.98 218.656 273.117 218.086 273.117C217.227 273.117 216.529 272.818 215.994 272.221C215.463 271.623 215.197 270.832 215.197 269.848V269.771ZM216.287 269.9C216.287 270.604 216.449 271.168 216.773 271.594C217.102 272.02 217.539 272.232 218.086 272.232C218.637 272.232 219.074 272.018 219.398 271.588C219.723 271.154 219.885 270.549 219.885 269.771C219.885 269.076 219.719 268.514 219.387 268.084C219.059 267.65 218.621 267.434 218.074 267.434C217.539 267.434 217.107 267.646 216.779 268.072C216.451 268.498 216.287 269.107 216.287 269.9ZM226.242 273C226.18 272.875 226.129 272.652 226.09 272.332C225.586 272.855 224.984 273.117 224.285 273.117C223.66 273.117 223.146 272.941 222.744 272.59C222.346 272.234 222.146 271.785 222.146 271.242C222.146 270.582 222.396 270.07 222.896 269.707C223.4 269.34 224.107 269.156 225.018 269.156H226.072V268.658C226.072 268.279 225.959 267.979 225.732 267.756C225.506 267.529 225.172 267.416 224.73 267.416C224.344 267.416 224.02 267.514 223.758 267.709C223.496 267.904 223.365 268.141 223.365 268.418H222.275C222.275 268.102 222.387 267.797 222.609 267.504C222.836 267.207 223.141 266.973 223.523 266.801C223.91 266.629 224.334 266.543 224.795 266.543C225.525 266.543 226.098 266.727 226.512 267.094C226.926 267.457 227.141 267.959 227.156 268.6V271.518C227.156 272.1 227.23 272.562 227.379 272.906V273H226.242ZM224.443 272.174C224.783 272.174 225.105 272.086 225.41 271.91C225.715 271.734 225.936 271.506 226.072 271.225V269.924H225.223C223.895 269.924 223.23 270.312 223.23 271.09C223.23 271.43 223.344 271.695 223.57 271.887C223.797 272.078 224.088 272.174 224.443 272.174ZM230.83 270.299H230.039V273H228.949V266.66H230.039V269.344H230.748L232.881 266.66H234.193L231.686 269.707L234.404 273H233.027L230.83 270.299ZM240.047 267.539H237.92V273H236.836V267.539H234.75V266.66H240.047V267.539ZM245.203 266.66H246.287V273H245.203V268.377L242.279 273H241.195V266.66H242.279V271.289L245.203 266.66ZM248.127 273V266.66H250.6C251.443 266.66 252.09 266.809 252.539 267.105C252.992 267.398 253.219 267.83 253.219 268.4C253.219 268.693 253.131 268.959 252.955 269.197C252.779 269.432 252.52 269.611 252.176 269.736C252.559 269.826 252.865 270.002 253.096 270.264C253.33 270.525 253.447 270.838 253.447 271.201C253.447 271.783 253.232 272.229 252.803 272.537C252.377 272.846 251.773 273 250.992 273H248.127ZM249.211 270.217V272.127H251.004C251.457 272.127 251.795 272.043 252.018 271.875C252.244 271.707 252.357 271.471 252.357 271.166C252.357 270.533 251.893 270.217 250.963 270.217H249.211ZM249.211 269.35H250.611C251.627 269.35 252.135 269.053 252.135 268.459C252.135 267.865 251.654 267.559 250.693 267.539H249.211V269.35ZM260.062 273H258.979V270.293H256.066V273H254.977V266.66H256.066V269.408H258.979V266.66H260.062V273ZM261.521 269.771C261.521 269.15 261.643 268.592 261.885 268.096C262.131 267.6 262.471 267.217 262.904 266.947C263.342 266.678 263.84 266.543 264.398 266.543C265.262 266.543 265.959 266.842 266.49 267.439C267.025 268.037 267.293 268.832 267.293 269.824V269.9C267.293 270.518 267.174 271.072 266.936 271.564C266.701 272.053 266.363 272.434 265.922 272.707C265.484 272.98 264.98 273.117 264.41 273.117C263.551 273.117 262.854 272.818 262.318 272.221C261.787 271.623 261.521 270.832 261.521 269.848V269.771ZM262.611 269.9C262.611 270.604 262.773 271.168 263.098 271.594C263.426 272.02 263.863 272.232 264.41 272.232C264.961 272.232 265.398 272.018 265.723 271.588C266.047 271.154 266.209 270.549 266.209 269.771C266.209 269.076 266.043 268.514 265.711 268.084C265.383 267.65 264.945 267.434 264.398 267.434C263.863 267.434 263.432 267.646 263.104 268.072C262.775 268.498 262.611 269.107 262.611 269.9ZM271.195 272.232C271.582 272.232 271.92 272.115 272.209 271.881C272.498 271.646 272.658 271.354 272.689 271.002H273.715C273.695 271.365 273.57 271.711 273.34 272.039C273.109 272.367 272.801 272.629 272.414 272.824C272.031 273.02 271.625 273.117 271.195 273.117C270.332 273.117 269.645 272.83 269.133 272.256C268.625 271.678 268.371 270.889 268.371 269.889V269.707C268.371 269.09 268.484 268.541 268.711 268.061C268.938 267.58 269.262 267.207 269.684 266.941C270.109 266.676 270.611 266.543 271.189 266.543C271.9 266.543 272.49 266.756 272.959 267.182C273.432 267.607 273.684 268.16 273.715 268.84H272.689C272.658 268.43 272.502 268.094 272.221 267.832C271.943 267.566 271.6 267.434 271.189 267.434C270.639 267.434 270.211 267.633 269.906 268.031C269.605 268.426 269.455 268.998 269.455 269.748V269.953C269.455 270.684 269.605 271.246 269.906 271.641C270.207 272.035 270.637 272.232 271.195 272.232ZM279.645 267.539H277.518V273H276.434V267.539H274.348V266.66H279.645V267.539ZM281.883 268.846H283.529C284.248 268.854 284.816 269.041 285.234 269.408C285.652 269.775 285.861 270.273 285.861 270.902C285.861 271.535 285.646 272.043 285.217 272.426C284.787 272.809 284.209 273 283.482 273H280.799V266.66H281.883V268.846ZM281.883 269.73V272.115H283.494C283.9 272.115 284.215 272.012 284.438 271.805C284.66 271.594 284.771 271.307 284.771 270.943C284.771 270.592 284.662 270.305 284.443 270.082C284.229 269.855 283.926 269.738 283.535 269.73H281.883ZM287.18 274.699L286.564 274.277C286.932 273.766 287.123 273.238 287.139 272.695V271.717H288.199V272.566C288.199 272.961 288.102 273.355 287.906 273.75C287.715 274.145 287.473 274.461 287.18 274.699ZM201.533 287.771C201.533 287.15 201.654 286.592 201.896 286.096C202.143 285.6 202.482 285.217 202.916 284.947C203.354 284.678 203.852 284.543 204.41 284.543C205.273 284.543 205.971 284.842 206.502 285.439C207.037 286.037 207.305 286.832 207.305 287.824V287.9C207.305 288.518 207.186 289.072 206.947 289.564C206.713 290.053 206.375 290.434 205.934 290.707C205.496 290.98 204.992 291.117 204.422 291.117C203.562 291.117 202.865 290.818 202.33 290.221C201.799 289.623 201.533 288.832 201.533 287.848V287.771ZM202.623 287.9C202.623 288.604 202.785 289.168 203.109 289.594C203.438 290.02 203.875 290.232 204.422 290.232C204.973 290.232 205.41 290.018 205.734 289.588C206.059 289.154 206.221 288.549 206.221 287.771C206.221 287.076 206.055 286.514 205.723 286.084C205.395 285.65 204.957 285.434 204.41 285.434C203.875 285.434 203.443 285.646 203.115 286.072C202.787 286.498 202.623 287.107 202.623 287.9ZM213.246 285.539H211.119V291H210.035V285.539H207.949V284.66H213.246V285.539ZM214.4 291V284.66H216.873C217.717 284.66 218.363 284.809 218.812 285.105C219.266 285.398 219.492 285.83 219.492 286.4C219.492 286.693 219.404 286.959 219.229 287.197C219.053 287.432 218.793 287.611 218.449 287.736C218.832 287.826 219.139 288.002 219.369 288.264C219.604 288.525 219.721 288.838 219.721 289.201C219.721 289.783 219.506 290.229 219.076 290.537C218.65 290.846 218.047 291 217.266 291H214.4ZM215.484 288.217V290.127H217.277C217.73 290.127 218.068 290.043 218.291 289.875C218.518 289.707 218.631 289.471 218.631 289.166C218.631 288.533 218.166 288.217 217.236 288.217H215.484ZM215.484 287.35H216.885C217.9 287.35 218.408 287.053 218.408 286.459C218.408 285.865 217.928 285.559 216.967 285.539H215.484V287.35ZM223.787 291.117C222.928 291.117 222.229 290.836 221.689 290.273C221.15 289.707 220.881 288.951 220.881 288.006V287.807C220.881 287.178 221 286.617 221.238 286.125C221.48 285.629 221.816 285.242 222.246 284.965C222.68 284.684 223.148 284.543 223.652 284.543C224.477 284.543 225.117 284.814 225.574 285.357C226.031 285.9 226.26 286.678 226.26 287.689V288.141H221.965C221.98 288.766 222.162 289.271 222.51 289.658C222.861 290.041 223.307 290.232 223.846 290.232C224.229 290.232 224.553 290.154 224.818 289.998C225.084 289.842 225.316 289.635 225.516 289.377L226.178 289.893C225.646 290.709 224.85 291.117 223.787 291.117ZM223.652 285.434C223.215 285.434 222.848 285.594 222.551 285.914C222.254 286.23 222.07 286.676 222 287.25H225.176V287.168C225.145 286.617 224.996 286.191 224.73 285.891C224.465 285.586 224.105 285.434 223.652 285.434ZM232.16 285.539H230.033V291H228.949V285.539H226.863V284.66H232.16V285.539ZM235.289 290.232C235.676 290.232 236.014 290.115 236.303 289.881C236.592 289.646 236.752 289.354 236.783 289.002H237.809C237.789 289.365 237.664 289.711 237.434 290.039C237.203 290.367 236.895 290.629 236.508 290.824C236.125 291.02 235.719 291.117 235.289 291.117C234.426 291.117 233.738 290.83 233.227 290.256C232.719 289.678 232.465 288.889 232.465 287.889V287.707C232.465 287.09 232.578 286.541 232.805 286.061C233.031 285.58 233.355 285.207 233.777 284.941C234.203 284.676 234.705 284.543 235.283 284.543C235.994 284.543 236.584 284.756 237.053 285.182C237.525 285.607 237.777 286.16 237.809 286.84H236.783C236.752 286.43 236.596 286.094 236.314 285.832C236.037 285.566 235.693 285.434 235.283 285.434C234.732 285.434 234.305 285.633 234 286.031C233.699 286.426 233.549 286.998 233.549 287.748V287.953C233.549 288.684 233.699 289.246 234 289.641C234.301 290.035 234.73 290.232 235.289 290.232ZM243.738 285.539H241.611V291H240.527V285.539H238.441V284.66H243.738V285.539ZM244.893 291V284.66H247.365C248.209 284.66 248.855 284.809 249.305 285.105C249.758 285.398 249.984 285.83 249.984 286.4C249.984 286.693 249.896 286.959 249.721 287.197C249.545 287.432 249.285 287.611 248.941 287.736C249.324 287.826 249.631 288.002 249.861 288.264C250.096 288.525 250.213 288.838 250.213 289.201C250.213 289.783 249.998 290.229 249.568 290.537C249.143 290.846 248.539 291 247.758 291H244.893ZM245.977 288.217V290.127H247.77C248.223 290.127 248.561 290.043 248.783 289.875C249.01 289.707 249.123 289.471 249.123 289.166C249.123 288.533 248.658 288.217 247.729 288.217H245.977ZM245.977 287.35H247.377C248.393 287.35 248.9 287.053 248.9 286.459C248.9 285.865 248.42 285.559 247.459 285.539H245.977V287.35ZM254.279 291.117C253.42 291.117 252.721 290.836 252.182 290.273C251.643 289.707 251.373 288.951 251.373 288.006V287.807C251.373 287.178 251.492 286.617 251.73 286.125C251.973 285.629 252.309 285.242 252.738 284.965C253.172 284.684 253.641 284.543 254.145 284.543C254.969 284.543 255.609 284.814 256.066 285.357C256.523 285.9 256.752 286.678 256.752 287.689V288.141H252.457C252.473 288.766 252.654 289.271 253.002 289.658C253.354 290.041 253.799 290.232 254.338 290.232C254.721 290.232 255.045 290.154 255.311 289.998C255.576 289.842 255.809 289.635 256.008 289.377L256.67 289.893C256.139 290.709 255.342 291.117 254.279 291.117ZM254.145 285.434C253.707 285.434 253.34 285.594 253.043 285.914C252.746 286.23 252.562 286.676 252.492 287.25H255.668V287.168C255.637 286.617 255.488 286.191 255.223 285.891C254.957 285.586 254.598 285.434 254.145 285.434ZM263.191 291H262.107V288.293H259.195V291H258.105V284.66H259.195V287.408H262.107V284.66H263.191V291ZM270.117 291H269.033V288.293H266.121V291H265.031V284.66H266.121V287.408H269.033V284.66H270.117V291ZM271.576 287.771C271.576 287.15 271.697 286.592 271.939 286.096C272.186 285.6 272.525 285.217 272.959 284.947C273.396 284.678 273.895 284.543 274.453 284.543C275.316 284.543 276.014 284.842 276.545 285.439C277.08 286.037 277.348 286.832 277.348 287.824V287.9C277.348 288.518 277.229 289.072 276.99 289.564C276.756 290.053 276.418 290.434 275.977 290.707C275.539 290.98 275.035 291.117 274.465 291.117C273.605 291.117 272.908 290.818 272.373 290.221C271.842 289.623 271.576 288.832 271.576 287.848V287.771ZM272.666 287.9C272.666 288.604 272.828 289.168 273.152 289.594C273.48 290.02 273.918 290.232 274.465 290.232C275.016 290.232 275.453 290.018 275.777 289.588C276.102 289.154 276.264 288.549 276.264 287.771C276.264 287.076 276.098 286.514 275.766 286.084C275.438 285.65 275 285.434 274.453 285.434C273.918 285.434 273.486 285.646 273.158 286.072C272.83 286.498 272.666 287.107 272.666 287.9ZM281.25 290.232C281.637 290.232 281.975 290.115 282.264 289.881C282.553 289.646 282.713 289.354 282.744 289.002H283.77C283.75 289.365 283.625 289.711 283.395 290.039C283.164 290.367 282.855 290.629 282.469 290.824C282.086 291.02 281.68 291.117 281.25 291.117C280.387 291.117 279.699 290.83 279.188 290.256C278.68 289.678 278.426 288.889 278.426 287.889V287.707C278.426 287.09 278.539 286.541 278.766 286.061C278.992 285.58 279.316 285.207 279.738 284.941C280.164 284.676 280.666 284.543 281.244 284.543C281.955 284.543 282.545 284.756 283.014 285.182C283.486 285.607 283.738 286.16 283.77 286.84H282.744C282.713 286.43 282.557 286.094 282.275 285.832C281.998 285.566 281.654 285.434 281.244 285.434C280.693 285.434 280.266 285.633 279.961 286.031C279.66 286.426 279.51 286.998 279.51 287.748V287.953C279.51 288.684 279.66 289.246 279.961 289.641C280.262 290.035 280.691 290.232 281.25 290.232ZM289.699 285.539H287.572V291H286.488V285.539H284.402V284.66H289.699V285.539ZM291.938 286.846H293.584C294.303 286.854 294.871 287.041 295.289 287.408C295.707 287.775 295.916 288.273 295.916 288.902C295.916 289.535 295.701 290.043 295.271 290.426C294.842 290.809 294.264 291 293.537 291H290.854V284.66H291.938V286.846ZM291.938 287.73V290.115H293.549C293.955 290.115 294.27 290.012 294.492 289.805C294.715 289.594 294.826 289.307 294.826 288.943C294.826 288.592 294.717 288.305 294.498 288.082C294.283 287.855 293.98 287.738 293.59 287.73H291.938ZM297.234 292.699L296.619 292.277C296.986 291.766 297.178 291.238 297.193 290.695V289.717H298.254V290.566C298.254 290.961 298.156 291.355 297.961 291.75C297.77 292.145 297.527 292.461 297.234 292.699ZM203.795 306.299H203.004V309H201.914V302.66H203.004V305.344H203.713L205.846 302.66H207.158L204.65 305.707L207.369 309H205.992L203.795 306.299ZM207.885 305.771C207.885 305.15 208.006 304.592 208.248 304.096C208.494 303.6 208.834 303.217 209.268 302.947C209.705 302.678 210.203 302.543 210.762 302.543C211.625 302.543 212.322 302.842 212.854 303.439C213.389 304.037 213.656 304.832 213.656 305.824V305.9C213.656 306.518 213.537 307.072 213.299 307.564C213.064 308.053 212.727 308.434 212.285 308.707C211.848 308.98 211.344 309.117 210.773 309.117C209.914 309.117 209.217 308.818 208.682 308.221C208.15 307.623 207.885 306.832 207.885 305.848V305.771ZM208.975 305.9C208.975 306.604 209.137 307.168 209.461 307.594C209.789 308.02 210.227 308.232 210.773 308.232C211.324 308.232 211.762 308.018 212.086 307.588C212.41 307.154 212.572 306.549 212.572 305.771C212.572 305.076 212.406 304.514 212.074 304.084C211.746 303.65 211.309 303.434 210.762 303.434C210.227 303.434 209.795 303.646 209.467 304.072C209.139 304.498 208.975 305.107 208.975 305.9ZM218.666 307.564L220.822 302.66H222.176V309H221.092V304.389L219.041 309H218.291L216.199 304.289V309H215.115V302.66H216.521L218.666 307.564ZM227.572 307.564L229.729 302.66H231.082V309H229.998V304.389L227.947 309H227.197L225.105 304.289V309H224.021V302.66H225.428L227.572 307.564ZM234.902 307.412L236.379 302.66H237.539L234.99 309.979C234.596 311.033 233.969 311.561 233.109 311.561L232.904 311.543L232.5 311.467V310.588L232.793 310.611C233.16 310.611 233.445 310.537 233.648 310.389C233.855 310.24 234.025 309.969 234.158 309.574L234.398 308.93L232.137 302.66H233.32L234.902 307.412ZM243.691 309H242.607V306.293H239.695V309H238.605V302.66H239.695V305.408H242.607V302.66H243.691V309ZM249.539 302.66H250.623V309H249.539V304.377L246.615 309H245.531V302.66H246.615V307.289L249.539 302.66ZM254.338 306.299H253.547V309H252.457V302.66H253.547V305.344H254.256L256.389 302.66H257.701L255.193 305.707L257.912 309H256.535L254.338 306.299ZM262.758 309C262.695 308.875 262.645 308.652 262.605 308.332C262.102 308.855 261.5 309.117 260.801 309.117C260.176 309.117 259.662 308.941 259.26 308.59C258.861 308.234 258.662 307.785 258.662 307.242C258.662 306.582 258.912 306.07 259.412 305.707C259.916 305.34 260.623 305.156 261.533 305.156H262.588V304.658C262.588 304.279 262.475 303.979 262.248 303.756C262.021 303.529 261.688 303.416 261.246 303.416C260.859 303.416 260.535 303.514 260.273 303.709C260.012 303.904 259.881 304.141 259.881 304.418H258.791C258.791 304.102 258.902 303.797 259.125 303.504C259.352 303.207 259.656 302.973 260.039 302.801C260.426 302.629 260.85 302.543 261.311 302.543C262.041 302.543 262.613 302.727 263.027 303.094C263.441 303.457 263.656 303.959 263.672 304.6V307.518C263.672 308.1 263.746 308.562 263.895 308.906V309H262.758ZM260.959 308.174C261.299 308.174 261.621 308.086 261.926 307.91C262.23 307.734 262.451 307.506 262.588 307.225V305.924H261.738C260.41 305.924 259.746 306.312 259.746 307.09C259.746 307.43 259.859 307.695 260.086 307.887C260.312 308.078 260.604 308.174 260.959 308.174ZM268.154 303.023C268.951 303.023 269.588 303.291 270.064 303.826C270.545 304.357 270.785 305.059 270.785 305.93V306.029C270.785 306.627 270.67 307.162 270.439 307.635C270.209 308.104 269.877 308.469 269.443 308.73C269.014 308.988 268.518 309.117 267.955 309.117C267.104 309.117 266.418 308.834 265.898 308.268C265.379 307.697 265.119 306.934 265.119 305.977V305.449C265.119 304.117 265.365 303.059 265.857 302.273C266.354 301.488 267.084 301.01 268.049 300.838C268.596 300.74 268.965 300.621 269.156 300.48C269.348 300.34 269.443 300.146 269.443 299.9H270.334C270.334 300.389 270.223 300.77 270 301.043C269.781 301.316 269.43 301.51 268.945 301.623L268.137 301.805C267.492 301.957 267.008 302.215 266.684 302.578C266.363 302.938 266.154 303.418 266.057 304.02C266.631 303.355 267.33 303.023 268.154 303.023ZM267.943 303.914C267.412 303.914 266.99 304.094 266.678 304.453C266.365 304.809 266.209 305.303 266.209 305.936V306.029C266.209 306.709 266.365 307.248 266.678 307.646C266.994 308.041 267.42 308.238 267.955 308.238C268.494 308.238 268.92 308.039 269.232 307.641C269.545 307.242 269.701 306.66 269.701 305.895C269.701 305.297 269.543 304.818 269.227 304.459C268.914 304.096 268.486 303.914 267.943 303.914ZM274.635 309.117C273.775 309.117 273.076 308.836 272.537 308.273C271.998 307.707 271.729 306.951 271.729 306.006V305.807C271.729 305.178 271.848 304.617 272.086 304.125C272.328 303.629 272.664 303.242 273.094 302.965C273.527 302.684 273.996 302.543 274.5 302.543C275.324 302.543 275.965 302.814 276.422 303.357C276.879 303.9 277.107 304.678 277.107 305.689V306.141H272.812C272.828 306.766 273.01 307.271 273.357 307.658C273.709 308.041 274.154 308.232 274.693 308.232C275.076 308.232 275.4 308.154 275.666 307.998C275.932 307.842 276.164 307.635 276.363 307.377L277.025 307.893C276.494 308.709 275.697 309.117 274.635 309.117ZM274.5 303.434C274.062 303.434 273.695 303.594 273.398 303.914C273.102 304.23 272.918 304.676 272.848 305.25H276.023V305.168C275.992 304.617 275.844 304.191 275.578 303.891C275.312 303.586 274.953 303.434 274.5 303.434ZM283.564 302.66V309H282.475V303.557H280.318L280.189 305.93C280.119 307.02 279.936 307.799 279.639 308.268C279.346 308.736 278.879 308.98 278.238 309H277.805V308.045L278.115 308.021C278.467 307.982 278.719 307.779 278.871 307.412C279.023 307.045 279.121 306.365 279.164 305.373L279.281 302.66H283.564ZM286.488 304.846H288.135C288.854 304.854 289.422 305.041 289.84 305.408C290.258 305.775 290.467 306.273 290.467 306.902C290.467 307.535 290.252 308.043 289.822 308.426C289.393 308.809 288.814 309 288.088 309H285.404V302.66H286.488V304.846ZM286.488 305.73V308.115H288.1C288.506 308.115 288.82 308.012 289.043 307.805C289.266 307.594 289.377 307.307 289.377 306.943C289.377 306.592 289.268 306.305 289.049 306.082C288.834 305.855 288.531 305.738 288.141 305.73H286.488ZM297 309H295.916V306.293H293.004V309H291.914V302.66H293.004V305.408H295.916V302.66H297V309ZM298.459 305.771C298.459 305.15 298.58 304.592 298.822 304.096C299.068 303.6 299.408 303.217 299.842 302.947C300.279 302.678 300.777 302.543 301.336 302.543C302.199 302.543 302.896 302.842 303.428 303.439C303.963 304.037 304.23 304.832 304.23 305.824V305.9C304.23 306.518 304.111 307.072 303.873 307.564C303.639 308.053 303.301 308.434 302.859 308.707C302.422 308.98 301.918 309.117 301.348 309.117C300.488 309.117 299.791 308.818 299.256 308.221C298.725 307.623 298.459 306.832 298.459 305.848V305.771ZM299.549 305.9C299.549 306.604 299.711 307.168 300.035 307.594C300.363 308.02 300.801 308.232 301.348 308.232C301.898 308.232 302.336 308.018 302.66 307.588C302.984 307.154 303.146 306.549 303.146 305.771C303.146 305.076 302.98 304.514 302.648 304.084C302.32 303.65 301.883 303.434 301.336 303.434C300.801 303.434 300.369 303.646 300.041 304.072C299.713 304.498 299.549 305.107 299.549 305.9ZM308.133 308.232C308.52 308.232 308.857 308.115 309.146 307.881C309.436 307.646 309.596 307.354 309.627 307.002H310.652C310.633 307.365 310.508 307.711 310.277 308.039C310.047 308.367 309.738 308.629 309.352 308.824C308.969 309.02 308.562 309.117 308.133 309.117C307.27 309.117 306.582 308.83 306.07 308.256C305.562 307.678 305.309 306.889 305.309 305.889V305.707C305.309 305.09 305.422 304.541 305.648 304.061C305.875 303.58 306.199 303.207 306.621 302.941C307.047 302.676 307.549 302.543 308.127 302.543C308.838 302.543 309.428 302.756 309.896 303.182C310.369 303.607 310.621 304.16 310.652 304.84H309.627C309.596 304.43 309.439 304.094 309.158 303.832C308.881 303.566 308.537 303.434 308.127 303.434C307.576 303.434 307.148 303.633 306.844 304.031C306.543 304.426 306.393 304.998 306.393 305.748V305.953C306.393 306.684 306.543 307.246 306.844 307.641C307.145 308.035 307.574 308.232 308.133 308.232ZM316.582 303.539H314.455V309H313.371V303.539H311.285V302.66H316.582V303.539ZM318.82 304.846H320.467C321.186 304.854 321.754 305.041 322.172 305.408C322.59 305.775 322.799 306.273 322.799 306.902C322.799 307.535 322.584 308.043 322.154 308.426C321.725 308.809 321.146 309 320.42 309H317.736V302.66H318.82V304.846ZM318.82 305.73V308.115H320.432C320.838 308.115 321.152 308.012 321.375 307.805C321.598 307.594 321.709 307.307 321.709 306.943C321.709 306.592 321.6 306.305 321.381 306.082C321.166 305.855 320.863 305.738 320.473 305.73H318.82ZM324.176 308.432C324.176 308.244 324.23 308.088 324.34 307.963C324.453 307.838 324.621 307.775 324.844 307.775C325.066 307.775 325.234 307.838 325.348 307.963C325.465 308.088 325.523 308.244 325.523 308.432C325.523 308.611 325.465 308.762 325.348 308.883C325.234 309.004 325.066 309.064 324.844 309.064C324.621 309.064 324.453 309.004 324.34 308.883C324.23 308.762 324.176 308.611 324.176 308.432ZM208.553 323.01C208.553 323.846 208.412 324.576 208.131 325.201C207.85 325.822 207.451 326.297 206.936 326.625C206.42 326.953 205.818 327.117 205.131 327.117C204.459 327.117 203.863 326.953 203.344 326.625C202.824 326.293 202.42 325.822 202.131 325.213C201.846 324.6 201.699 323.891 201.691 323.086V322.471C201.691 321.65 201.834 320.926 202.119 320.297C202.404 319.668 202.807 319.188 203.326 318.855C203.85 318.52 204.447 318.352 205.119 318.352C205.803 318.352 206.404 318.518 206.924 318.85C207.447 319.178 207.85 319.656 208.131 320.285C208.412 320.91 208.553 321.639 208.553 322.471V323.01ZM207.434 322.459C207.434 321.447 207.23 320.672 206.824 320.133C206.418 319.59 205.85 319.318 205.119 319.318C204.408 319.318 203.848 319.59 203.438 320.133C203.031 320.672 202.822 321.422 202.811 322.383V323.01C202.811 323.99 203.016 324.762 203.426 325.324C203.84 325.883 204.408 326.162 205.131 326.162C205.857 326.162 206.42 325.898 206.818 325.371C207.217 324.84 207.422 324.08 207.434 323.092V322.459ZM212.854 321.023C213.65 321.023 214.287 321.291 214.764 321.826C215.244 322.357 215.484 323.059 215.484 323.93V324.029C215.484 324.627 215.369 325.162 215.139 325.635C214.908 326.104 214.576 326.469 214.143 326.73C213.713 326.988 213.217 327.117 212.654 327.117C211.803 327.117 211.117 326.834 210.598 326.268C210.078 325.697 209.818 324.934 209.818 323.977V323.449C209.818 322.117 210.064 321.059 210.557 320.273C211.053 319.488 211.783 319.01 212.748 318.838C213.295 318.74 213.664 318.621 213.855 318.48C214.047 318.34 214.143 318.146 214.143 317.9H215.033C215.033 318.389 214.922 318.77 214.699 319.043C214.48 319.316 214.129 319.51 213.645 319.623L212.836 319.805C212.191 319.957 211.707 320.215 211.383 320.578C211.062 320.938 210.854 321.418 210.756 322.02C211.33 321.355 212.029 321.023 212.854 321.023ZM212.643 321.914C212.111 321.914 211.689 322.094 211.377 322.453C211.064 322.809 210.908 323.303 210.908 323.936V324.029C210.908 324.709 211.064 325.248 211.377 325.646C211.693 326.041 212.119 326.238 212.654 326.238C213.193 326.238 213.619 326.039 213.932 325.641C214.244 325.242 214.4 324.66 214.4 323.895C214.4 323.297 214.242 322.818 213.926 322.459C213.613 322.096 213.186 321.914 212.643 321.914ZM216.416 323.771C216.416 323.15 216.537 322.592 216.779 322.096C217.025 321.6 217.365 321.217 217.799 320.947C218.236 320.678 218.734 320.543 219.293 320.543C220.156 320.543 220.854 320.842 221.385 321.439C221.92 322.037 222.188 322.832 222.188 323.824V323.9C222.188 324.518 222.068 325.072 221.83 325.564C221.596 326.053 221.258 326.434 220.816 326.707C220.379 326.98 219.875 327.117 219.305 327.117C218.445 327.117 217.748 326.818 217.213 326.221C216.682 325.623 216.416 324.832 216.416 323.848V323.771ZM217.506 323.9C217.506 324.604 217.668 325.168 217.992 325.594C218.32 326.02 218.758 326.232 219.305 326.232C219.855 326.232 220.293 326.018 220.617 325.588C220.941 325.154 221.104 324.549 221.104 323.771C221.104 323.076 220.938 322.514 220.605 322.084C220.277 321.65 219.84 321.434 219.293 321.434C218.758 321.434 218.326 321.646 217.998 322.072C217.67 322.498 217.506 323.107 217.506 323.9ZM228.475 324.246H227.713V327H226.629V324.246H225.867L224.092 327H222.721L224.988 323.719L222.938 320.66H224.25L225.885 323.285H226.629V320.66H227.713V323.285H228.451L230.098 320.66H231.41L229.354 323.725L231.621 327H230.25L228.475 324.246ZM236.52 327C236.457 326.875 236.406 326.652 236.367 326.332C235.863 326.855 235.262 327.117 234.562 327.117C233.938 327.117 233.424 326.941 233.021 326.59C232.623 326.234 232.424 325.785 232.424 325.242C232.424 324.582 232.674 324.07 233.174 323.707C233.678 323.34 234.385 323.156 235.295 323.156H236.35V322.658C236.35 322.279 236.236 321.979 236.01 321.756C235.783 321.529 235.449 321.416 235.008 321.416C234.621 321.416 234.297 321.514 234.035 321.709C233.773 321.904 233.643 322.141 233.643 322.418H232.553C232.553 322.102 232.664 321.797 232.887 321.504C233.113 321.207 233.418 320.973 233.801 320.801C234.188 320.629 234.611 320.543 235.072 320.543C235.803 320.543 236.375 320.727 236.789 321.094C237.203 321.457 237.418 321.959 237.434 322.6V325.518C237.434 326.1 237.508 326.562 237.656 326.906V327H236.52ZM234.721 326.174C235.061 326.174 235.383 326.086 235.688 325.91C235.992 325.734 236.213 325.506 236.35 325.225V323.924H235.5C234.172 323.924 233.508 324.312 233.508 325.09C233.508 325.43 233.621 325.695 233.848 325.887C234.074 326.078 234.365 326.174 234.721 326.174ZM240.316 323.35H241.84C241.922 322.506 242.221 321.828 242.736 321.316C243.256 320.801 243.91 320.543 244.699 320.543C245.527 320.543 246.205 320.822 246.732 321.381C247.26 321.939 247.545 322.666 247.588 323.561L247.594 323.9C247.594 324.518 247.473 325.074 247.23 325.57C246.988 326.066 246.648 326.449 246.211 326.719C245.773 326.984 245.273 327.117 244.711 327.117C243.895 327.117 243.227 326.852 242.707 326.32C242.188 325.785 241.896 325.092 241.834 324.24H240.316V327H239.232V320.66H240.316V323.35ZM242.906 323.9C242.906 324.604 243.068 325.168 243.393 325.594C243.721 326.02 244.16 326.232 244.711 326.232C245.262 326.232 245.697 326.016 246.018 325.582C246.342 325.148 246.504 324.545 246.504 323.771C246.504 323.08 246.34 322.518 246.012 322.084C245.684 321.65 245.246 321.434 244.699 321.434C244.16 321.434 243.727 321.646 243.398 322.072C243.07 322.498 242.906 323.107 242.906 323.9ZM253.201 323.66V327H252.076V318.469H255.223C256.156 318.469 256.887 318.707 257.414 319.184C257.945 319.66 258.211 320.291 258.211 321.076C258.211 321.904 257.951 322.543 257.432 322.992C256.916 323.438 256.176 323.66 255.211 323.66H253.201ZM253.201 322.74H255.223C255.824 322.74 256.285 322.6 256.605 322.318C256.926 322.033 257.086 321.623 257.086 321.088C257.086 320.58 256.926 320.174 256.605 319.869C256.285 319.564 255.846 319.406 255.287 319.395H253.201V322.74ZM260.771 323.66V327H259.646V318.469H262.793C263.727 318.469 264.457 318.707 264.984 319.184C265.516 319.66 265.781 320.291 265.781 321.076C265.781 321.904 265.521 322.543 265.002 322.992C264.486 323.438 263.746 323.66 262.781 323.66H260.771ZM260.771 322.74H262.793C263.395 322.74 263.855 322.6 264.176 322.318C264.496 322.033 264.656 321.623 264.656 321.088C264.656 320.58 264.496 320.174 264.176 319.869C263.855 319.564 263.416 319.406 262.857 319.395H260.771V322.74ZM273.492 324.293C273.387 325.195 273.053 325.893 272.49 326.385C271.932 326.873 271.188 327.117 270.258 327.117C269.25 327.117 268.441 326.756 267.832 326.033C267.227 325.311 266.924 324.344 266.924 323.133V322.312C266.924 321.52 267.064 320.822 267.346 320.221C267.631 319.619 268.033 319.158 268.553 318.838C269.072 318.514 269.674 318.352 270.357 318.352C271.264 318.352 271.99 318.605 272.537 319.113C273.084 319.617 273.402 320.316 273.492 321.211H272.361C272.264 320.531 272.051 320.039 271.723 319.734C271.398 319.43 270.943 319.277 270.357 319.277C269.639 319.277 269.074 319.543 268.664 320.074C268.258 320.605 268.055 321.361 268.055 322.342V323.168C268.055 324.094 268.248 324.83 268.635 325.377C269.021 325.924 269.562 326.197 270.258 326.197C270.883 326.197 271.361 326.057 271.693 325.775C272.029 325.49 272.252 324.996 272.361 324.293H273.492ZM281.941 320.66H283.025V327H281.941V322.377L279.018 327H277.934V320.66H279.018V325.289L281.941 320.66ZM287.842 327V320.66H290.314C291.158 320.66 291.805 320.809 292.254 321.105C292.707 321.398 292.934 321.83 292.934 322.4C292.934 322.693 292.846 322.959 292.67 323.197C292.494 323.432 292.234 323.611 291.891 323.736C292.273 323.826 292.58 324.002 292.811 324.264C293.045 324.525 293.162 324.838 293.162 325.201C293.162 325.783 292.947 326.229 292.518 326.537C292.092 326.846 291.488 327 290.707 327H287.842ZM288.926 324.217V326.127H290.719C291.172 326.127 291.51 326.043 291.732 325.875C291.959 325.707 292.072 325.471 292.072 325.166C292.072 324.533 291.607 324.217 290.678 324.217H288.926ZM288.926 323.35H290.326C291.342 323.35 291.85 323.053 291.85 322.459C291.85 321.865 291.369 321.559 290.408 321.539H288.926V323.35ZM297.141 326.232C297.527 326.232 297.865 326.115 298.154 325.881C298.443 325.646 298.604 325.354 298.635 325.002H299.66C299.641 325.365 299.516 325.711 299.285 326.039C299.055 326.367 298.746 326.629 298.359 326.824C297.977 327.02 297.57 327.117 297.141 327.117C296.277 327.117 295.59 326.83 295.078 326.256C294.57 325.678 294.316 324.889 294.316 323.889V323.707C294.316 323.09 294.43 322.541 294.656 322.061C294.883 321.58 295.207 321.207 295.629 320.941C296.055 320.676 296.557 320.543 297.135 320.543C297.846 320.543 298.436 320.756 298.904 321.182C299.377 321.607 299.629 322.16 299.66 322.84H298.635C298.604 322.43 298.447 322.094 298.166 321.832C297.889 321.566 297.545 321.434 297.135 321.434C296.584 321.434 296.156 321.633 295.852 322.031C295.551 322.426 295.4 322.998 295.4 323.748V323.953C295.4 324.684 295.551 325.246 295.852 325.641C296.152 326.035 296.582 326.232 297.141 326.232ZM303.51 327.117C302.65 327.117 301.951 326.836 301.412 326.273C300.873 325.707 300.604 324.951 300.604 324.006V323.807C300.604 323.178 300.723 322.617 300.961 322.125C301.203 321.629 301.539 321.242 301.969 320.965C302.402 320.684 302.871 320.543 303.375 320.543C304.199 320.543 304.84 320.814 305.297 321.357C305.754 321.9 305.982 322.678 305.982 323.689V324.141H301.688C301.703 324.766 301.885 325.271 302.232 325.658C302.584 326.041 303.029 326.232 303.568 326.232C303.951 326.232 304.275 326.154 304.541 325.998C304.807 325.842 305.039 325.635 305.238 325.377L305.9 325.893C305.369 326.709 304.572 327.117 303.51 327.117ZM303.375 321.434C302.938 321.434 302.57 321.594 302.273 321.914C301.977 322.23 301.793 322.676 301.723 323.25H304.898V323.168C304.867 322.617 304.719 322.191 304.453 321.891C304.188 321.586 303.828 321.434 303.375 321.434ZM311.338 321.557H308.414V327H307.324V320.66H311.338V321.557ZM311.9 326.115L312.275 325.652C312.697 325.105 312.938 324.285 312.996 323.191L313.096 320.66H317.18V326.115H317.994V328.863H316.91V327H312.486V328.863H311.402L311.408 326.115H311.9ZM313.184 326.115H316.096V321.662H314.145L314.08 323.174C314.014 324.436 313.715 325.416 313.184 326.115ZM323.109 327C323.047 326.875 322.996 326.652 322.957 326.332C322.453 326.855 321.852 327.117 321.152 327.117C320.527 327.117 320.014 326.941 319.611 326.59C319.213 326.234 319.014 325.785 319.014 325.242C319.014 324.582 319.264 324.07 319.764 323.707C320.268 323.34 320.975 323.156 321.885 323.156H322.939V322.658C322.939 322.279 322.826 321.979 322.6 321.756C322.373 321.529 322.039 321.416 321.598 321.416C321.211 321.416 320.887 321.514 320.625 321.709C320.363 321.904 320.232 322.141 320.232 322.418H319.143C319.143 322.102 319.254 321.797 319.477 321.504C319.703 321.207 320.008 320.973 320.391 320.801C320.777 320.629 321.201 320.543 321.662 320.543C322.393 320.543 322.965 320.727 323.379 321.094C323.793 321.457 324.008 321.959 324.023 322.6V325.518C324.023 326.1 324.098 326.562 324.246 326.906V327H323.109ZM321.311 326.174C321.65 326.174 321.973 326.086 322.277 325.91C322.582 325.734 322.803 325.506 322.939 325.225V323.924H322.09C320.762 323.924 320.098 324.312 320.098 325.09C320.098 325.43 320.211 325.695 320.438 325.887C320.664 326.078 320.955 326.174 321.311 326.174ZM205.916 339.557H202.992V345H201.902V338.66H205.916V339.557ZM206.455 341.771C206.455 341.15 206.576 340.592 206.818 340.096C207.064 339.6 207.404 339.217 207.838 338.947C208.275 338.678 208.773 338.543 209.332 338.543C210.195 338.543 210.893 338.842 211.424 339.439C211.959 340.037 212.227 340.832 212.227 341.824V341.9C212.227 342.518 212.107 343.072 211.869 343.564C211.635 344.053 211.297 344.434 210.855 344.707C210.418 344.98 209.914 345.117 209.344 345.117C208.484 345.117 207.787 344.818 207.252 344.221C206.721 343.623 206.455 342.832 206.455 341.848V341.771ZM207.545 341.9C207.545 342.604 207.707 343.168 208.031 343.594C208.359 344.02 208.797 344.232 209.344 344.232C209.895 344.232 210.332 344.018 210.656 343.588C210.98 343.154 211.143 342.549 211.143 341.771C211.143 341.076 210.977 340.514 210.645 340.084C210.316 339.65 209.879 339.434 209.332 339.434C208.797 339.434 208.365 339.646 208.037 340.072C207.709 340.498 207.545 341.107 207.545 341.9ZM218.168 339.539H216.041V345H214.957V339.539H212.871V338.66H218.168V339.539ZM218.689 341.771C218.689 341.15 218.811 340.592 219.053 340.096C219.299 339.6 219.639 339.217 220.072 338.947C220.51 338.678 221.008 338.543 221.566 338.543C222.43 338.543 223.127 338.842 223.658 339.439C224.193 340.037 224.461 340.832 224.461 341.824V341.9C224.461 342.518 224.342 343.072 224.104 343.564C223.869 344.053 223.531 344.434 223.09 344.707C222.652 344.98 222.148 345.117 221.578 345.117C220.719 345.117 220.021 344.818 219.486 344.221C218.955 343.623 218.689 342.832 218.689 341.848V341.771ZM219.779 341.9C219.779 342.604 219.941 343.168 220.266 343.594C220.594 344.02 221.031 344.232 221.578 344.232C222.129 344.232 222.566 344.018 222.891 343.588C223.215 343.154 223.377 342.549 223.377 341.771C223.377 341.076 223.211 340.514 222.879 340.084C222.551 339.65 222.113 339.434 221.566 339.434C221.031 339.434 220.6 339.646 220.271 340.072C219.943 340.498 219.779 341.107 219.779 341.9ZM225.92 345V338.66H228.393C229.236 338.66 229.883 338.809 230.332 339.105C230.785 339.398 231.012 339.83 231.012 340.4C231.012 340.693 230.924 340.959 230.748 341.197C230.572 341.432 230.312 341.611 229.969 341.736C230.352 341.826 230.658 342.002 230.889 342.264C231.123 342.525 231.24 342.838 231.24 343.201C231.24 343.783 231.025 344.229 230.596 344.537C230.17 344.846 229.566 345 228.785 345H225.92ZM227.004 342.217V344.127H228.797C229.25 344.127 229.588 344.043 229.811 343.875C230.037 343.707 230.15 343.471 230.15 343.166C230.15 342.533 229.686 342.217 228.756 342.217H227.004ZM227.004 341.35H228.404C229.42 341.35 229.928 341.053 229.928 340.459C229.928 339.865 229.447 339.559 228.486 339.539H227.004V341.35ZM236.59 345C236.527 344.875 236.477 344.652 236.438 344.332C235.934 344.855 235.332 345.117 234.633 345.117C234.008 345.117 233.494 344.941 233.092 344.59C232.693 344.234 232.494 343.785 232.494 343.242C232.494 342.582 232.744 342.07 233.244 341.707C233.748 341.34 234.455 341.156 235.365 341.156H236.42V340.658C236.42 340.279 236.307 339.979 236.08 339.756C235.854 339.529 235.52 339.416 235.078 339.416C234.691 339.416 234.367 339.514 234.105 339.709C233.844 339.904 233.713 340.141 233.713 340.418H232.623C232.623 340.102 232.734 339.797 232.957 339.504C233.184 339.207 233.488 338.973 233.871 338.801C234.258 338.629 234.682 338.543 235.143 338.543C235.873 338.543 236.445 338.727 236.859 339.094C237.273 339.457 237.488 339.959 237.504 340.6V343.518C237.504 344.1 237.578 344.562 237.727 344.906V345H236.59ZM234.791 344.174C235.131 344.174 235.453 344.086 235.758 343.91C236.062 343.734 236.283 343.506 236.42 343.225V341.924H235.57C234.242 341.924 233.578 342.312 233.578 343.09C233.578 343.43 233.691 343.695 233.918 343.887C234.145 344.078 234.436 344.174 234.791 344.174ZM244.254 343.412L245.73 338.66H246.891L244.342 345.979C243.947 347.033 243.32 347.561 242.461 347.561L242.256 347.543L241.852 347.467V346.588L242.145 346.611C242.512 346.611 242.797 346.537 243 346.389C243.207 346.24 243.377 345.969 243.51 345.574L243.75 344.93L241.488 338.66H242.672L244.254 343.412ZM252.65 345H251.561V342.703C251.084 342.828 250.596 342.891 250.096 342.891C249.303 342.891 248.697 342.688 248.279 342.281C247.865 341.875 247.654 341.297 247.646 340.547V338.654H248.73V340.582C248.75 341.527 249.205 342 250.096 342C250.596 342 251.084 341.938 251.561 341.812V338.66H252.65V345ZM258.492 338.66H259.576V345H258.492V340.377L255.568 345H254.484V338.66H255.568V343.289L258.492 338.66ZM266.027 339.539H263.9V345H262.816V339.539H260.73V338.66H266.027V339.539ZM268.266 340.846H269.912C270.631 340.854 271.199 341.041 271.617 341.408C272.035 341.775 272.244 342.273 272.244 342.902C272.244 343.535 272.029 344.043 271.6 344.426C271.17 344.809 270.592 345 269.865 345H267.182V338.66H268.266V340.846ZM268.266 341.73V344.115H269.877C270.283 344.115 270.598 344.012 270.82 343.805C271.043 343.594 271.154 343.307 271.154 342.943C271.154 342.592 271.045 342.305 270.826 342.082C270.611 341.855 270.309 341.738 269.918 341.73H268.266ZM276.141 344.232C276.527 344.232 276.865 344.115 277.154 343.881C277.443 343.646 277.604 343.354 277.635 343.002H278.66C278.641 343.365 278.516 343.711 278.285 344.039C278.055 344.367 277.746 344.629 277.359 344.824C276.977 345.02 276.57 345.117 276.141 345.117C275.277 345.117 274.59 344.83 274.078 344.256C273.57 343.678 273.316 342.889 273.316 341.889V341.707C273.316 341.09 273.43 340.541 273.656 340.061C273.883 339.58 274.207 339.207 274.629 338.941C275.055 338.676 275.557 338.543 276.135 338.543C276.846 338.543 277.436 338.756 277.904 339.182C278.377 339.607 278.629 340.16 278.66 340.84H277.635C277.604 340.43 277.447 340.094 277.166 339.832C276.889 339.566 276.545 339.434 276.135 339.434C275.584 339.434 275.156 339.633 274.852 340.031C274.551 340.426 274.4 340.998 274.4 341.748V341.953C274.4 342.684 274.551 343.246 274.852 343.641C275.152 344.035 275.582 344.232 276.141 344.232ZM284.725 338.66V345H283.635V342.533H282L280.506 345H279.334L280.928 342.369C280.521 342.221 280.209 341.992 279.99 341.684C279.775 341.371 279.668 341.008 279.668 340.594C279.668 340.016 279.885 339.551 280.318 339.199C280.752 338.844 281.332 338.664 282.059 338.66H284.725ZM280.758 340.605C280.758 340.914 280.863 341.164 281.074 341.355C281.285 341.543 281.564 341.639 281.912 341.643H283.635V339.539H282.076C281.674 339.539 281.354 339.639 281.115 339.838C280.877 340.033 280.758 340.289 280.758 340.605ZM207 363H205.916V360.293H203.004V363H201.914V356.66H203.004V359.408H205.916V356.66H207V363ZM208.459 359.771C208.459 359.15 208.58 358.592 208.822 358.096C209.068 357.6 209.408 357.217 209.842 356.947C210.279 356.678 210.777 356.543 211.336 356.543C212.199 356.543 212.896 356.842 213.428 357.439C213.963 358.037 214.23 358.832 214.23 359.824V359.9C214.23 360.518 214.111 361.072 213.873 361.564C213.639 362.053 213.301 362.434 212.859 362.707C212.422 362.98 211.918 363.117 211.348 363.117C210.488 363.117 209.791 362.818 209.256 362.221C208.725 361.623 208.459 360.832 208.459 359.848V359.771ZM209.549 359.9C209.549 360.604 209.711 361.168 210.035 361.594C210.363 362.02 210.801 362.232 211.348 362.232C211.898 362.232 212.336 362.018 212.66 361.588C212.984 361.154 213.146 360.549 213.146 359.771C213.146 359.076 212.98 358.514 212.648 358.084C212.32 357.65 211.883 357.434 211.336 357.434C210.801 357.434 210.369 357.646 210.041 358.072C209.713 358.498 209.549 359.107 209.549 359.9ZM215.689 363V356.66H218.162C219.006 356.66 219.652 356.809 220.102 357.105C220.555 357.398 220.781 357.83 220.781 358.4C220.781 358.693 220.693 358.959 220.518 359.197C220.342 359.432 220.082 359.611 219.738 359.736C220.121 359.826 220.428 360.002 220.658 360.264C220.893 360.525 221.01 360.838 221.01 361.201C221.01 361.783 220.795 362.229 220.365 362.537C219.939 362.846 219.336 363 218.555 363H215.689ZM216.773 360.217V362.127H218.566C219.02 362.127 219.357 362.043 219.58 361.875C219.807 361.707 219.92 361.471 219.92 361.166C219.92 360.533 219.455 360.217 218.525 360.217H216.773ZM216.773 359.35H218.174C219.189 359.35 219.697 359.053 219.697 358.459C219.697 357.865 219.217 357.559 218.256 357.539H216.773V359.35ZM222.158 359.771C222.158 359.15 222.279 358.592 222.521 358.096C222.768 357.6 223.107 357.217 223.541 356.947C223.979 356.678 224.477 356.543 225.035 356.543C225.898 356.543 226.596 356.842 227.127 357.439C227.662 358.037 227.93 358.832 227.93 359.824V359.9C227.93 360.518 227.811 361.072 227.572 361.564C227.338 362.053 227 362.434 226.559 362.707C226.121 362.98 225.617 363.117 225.047 363.117C224.188 363.117 223.49 362.818 222.955 362.221C222.424 361.623 222.158 360.832 222.158 359.848V359.771ZM223.248 359.9C223.248 360.604 223.41 361.168 223.734 361.594C224.062 362.02 224.5 362.232 225.047 362.232C225.598 362.232 226.035 362.018 226.359 361.588C226.684 361.154 226.846 360.549 226.846 359.771C226.846 359.076 226.68 358.514 226.348 358.084C226.02 357.65 225.582 357.434 225.035 357.434C224.5 357.434 224.068 357.646 223.74 358.072C223.412 358.498 223.248 359.107 223.248 359.9ZM232.939 361.564L235.096 356.66H236.449V363H235.365V358.389L233.314 363H232.564L230.473 358.289V363H229.389V356.66H230.795L232.939 361.564ZM240.27 361.412L241.746 356.66H242.906L240.357 363.979C239.963 365.033 239.336 365.561 238.477 365.561L238.271 365.543L237.867 365.467V364.588L238.16 364.611C238.527 364.611 238.812 364.537 239.016 364.389C239.223 364.24 239.393 363.969 239.525 363.574L239.766 362.93L237.504 356.66H238.688L240.27 361.412ZM246.82 362.432C246.82 362.244 246.875 362.088 246.984 361.963C247.098 361.838 247.266 361.775 247.488 361.775C247.711 361.775 247.879 361.838 247.992 361.963C248.109 362.088 248.168 362.244 248.168 362.432C248.168 362.611 248.109 362.762 247.992 362.883C247.879 363.004 247.711 363.064 247.488 363.064C247.266 363.064 247.098 363.004 246.984 362.883C246.875 362.762 246.82 362.611 246.82 362.432ZM246.826 357.258C246.826 357.07 246.881 356.914 246.99 356.789C247.104 356.664 247.271 356.602 247.494 356.602C247.717 356.602 247.885 356.664 247.998 356.789C248.115 356.914 248.174 357.07 248.174 357.258C248.174 357.438 248.115 357.588 247.998 357.709C247.885 357.83 247.717 357.891 247.494 357.891C247.271 357.891 247.104 357.83 246.99 357.709C246.881 357.588 246.826 357.438 246.826 357.258ZM252.264 359.596C252.264 360.467 252.148 361.303 251.918 362.104C251.691 362.9 251.342 363.637 250.869 364.312C250.4 364.988 249.908 365.469 249.393 365.754L249.164 365.092C249.766 364.631 250.248 363.916 250.611 362.947C250.979 361.975 251.166 360.896 251.174 359.713V359.525C251.174 358.705 251.088 357.943 250.916 357.24C250.744 356.533 250.504 355.9 250.195 355.342C249.891 354.783 249.547 354.348 249.164 354.035L249.393 353.373C249.908 353.658 250.398 354.135 250.863 354.803C251.332 355.471 251.682 356.207 251.912 357.012C252.146 357.816 252.264 358.678 252.264 359.596Z" fill="black"/>
</g>
<defs>
<filter id="filter0_d" x="0" y="0" width="329" height="429" filterUnits="userSpaceOnUse" color-interpolation-filters="sRGB">
<feFlood flood-opacity="0" result="BackgroundImageFix"/>
<feColorMatrix in="SourceAlpha" type="matrix" values="0 0 0 0 0 0 0 0 0 0 0 0 0 0 0 0 0 0 127 0"/>
<feOffset/>
<feGaussianBlur stdDeviation="8"/>
<feColorMatrix type="matrix" values="0 0 0 0 0 0 0 0 0 0 0 0 0 0 0 0 0 0 0.16 0"/>
<feBlend mode="normal" in2="BackgroundImageFix" result="effect1_dropShadow"/>
<feBlend mode="normal" in="SourceGraphic" in2="effect1_dropShadow" result="shape"/>
</filter>
<filter id="filter1_d" x="172" y="192" width="184" height="216" filterUnits="userSpaceOnUse" color-interpolation-filters="sRGB">
<feFlood flood-opacity="0" result="BackgroundImageFix"/>
<feColorMatrix in="SourceAlpha" type="matrix" values="0 0 0 0 0 0 0 0 0 0 0 0 0 0 0 0 0 0 127 0"/>
<feOffset dy="4"/>
<feGaussianBlur stdDeviation="8"/>
<feColorMatrix type="matrix" values="0 0 0 0 0.920833 0 0 0 0 0.920833 0 0 0 0 0.920833 0 0 0 1 0"/>
<feBlend mode="normal" in2="BackgroundImageFix" result="effect1_dropShadow"/>
<feBlend mode="normal" in="SourceGraphic" in2="effect1_dropShadow" result="shape"/>
</filter>
</defs>
</svg>
