<svg width="477" height="332" viewBox="0 0 477 332" fill="none" xmlns="http://www.w3.org/2000/svg">
<g filter="url(#filter0_d)">
<rect x="16" y="16" width="445" height="300" rx="10" fill="white"/>
<path d="M322.544 62.9299C322.544 73.4466 314.126 81.8599 303.605 81.8599C293.083 81.8599 284.666 73.4466 284.666 62.9299C284.666 52.4133 293.083 44 303.605 44C314.126 44 322.544 52.834 322.544 62.9299Z" fill="#FF9404"/>
<path d="M319.598 62.93C319.598 71.7639 312.443 78.9152 303.605 78.9152C294.767 78.9152 287.612 71.7639 287.612 62.93C287.612 54.096 294.767 46.9447 303.605 46.9447C312.443 47.3654 319.598 54.5167 319.598 62.93Z" fill="white" fill-opacity="0.8"/>
<path d="M317.493 62.9302C317.493 70.5021 311.18 76.8121 303.604 76.8121C296.029 76.8121 289.716 70.5021 289.716 62.9302C289.716 55.3582 296.029 49.0482 303.604 49.0482C311.18 49.4689 317.493 55.3582 317.493 62.9302Z" fill="#FF9404"/>
<path d="M302.342 71.7638C301.501 71.7638 300.659 71.7638 299.817 71.3431C298.975 71.3431 298.555 70.9225 298.134 70.9225L298.975 68.3985C299.396 68.3985 299.817 68.8192 300.238 68.8192C300.659 68.8192 301.501 69.2398 301.922 69.2398V64.1918C301.501 63.7712 301.08 63.7712 300.659 63.3505C300.238 62.9298 299.817 62.9298 299.396 62.5092C298.976 62.0885 298.555 61.6678 298.555 61.2472C298.134 60.8265 298.134 59.9852 298.134 59.1439C298.134 57.8819 298.555 56.6199 299.396 55.7785C300.238 54.9372 301.08 54.5165 302.342 54.5165V52.4132H304.868V54.5165C305.709 54.5165 306.13 54.5165 306.551 54.9372C306.972 54.9372 307.393 55.3579 307.814 55.3579L306.972 57.8819C306.551 57.8819 306.551 57.4612 306.13 57.4612C305.709 57.4612 305.288 57.0405 304.868 57.0405V61.6678C305.288 62.0885 305.709 62.0885 306.551 62.5092C306.972 62.9298 307.393 62.9298 307.814 63.3505C308.234 63.7712 308.655 64.1918 308.655 64.6125C309.076 65.0332 309.076 65.8745 309.076 66.2952C309.076 67.5572 308.655 68.8192 307.814 69.6605C306.972 70.5018 306.13 70.9225 304.868 71.3431V73.4465H302.342V71.7638ZM301.501 58.7232C301.501 59.1439 301.501 59.5645 301.922 59.9852C302.342 60.4059 302.763 60.4058 303.184 60.8265V57.0405C302.342 57.0405 301.922 57.4612 301.501 57.4612C301.501 57.8819 301.501 58.3025 301.501 58.7232ZM306.166 66.9999C306.166 66.5792 306.13 66.2952 305.709 65.8745C305.288 65.4538 304.868 65.4538 304.447 65.0332V69.2398C305.288 69.2398 305.709 68.8191 306.13 68.3985C306.166 67.9999 306.202 67.3633 306.166 66.9999Z" fill="white" fill-opacity="0.8"/>
<rect x="50" y="222.333" width="378.333" height="0.833333" fill="#126686" fill-opacity="0.5"/>
<rect x="50" y="163.166" width="378.333" height="0.833333" fill="#126686" fill-opacity="0.5"/>
<rect x="50" y="104" width="378.333" height="0.833333" fill="#126686" fill-opacity="0.5"/>
<path d="M89.666 200C89.666 197.791 91.4569 196 93.666 196H130.666C132.875 196 134.666 197.791 134.666 200V284H89.666V200Z" fill="#2DBEF4"/>
<path d="M153.666 227C153.666 224.791 155.457 223 157.666 223H194.666C196.875 223 198.666 224.791 198.666 227V284H153.666V227Z" fill="#2DBEF4"/>
<path d="M216.666 238C216.666 235.791 218.457 234 220.666 234H257.666C259.875 234 261.666 235.791 261.666 238V284H216.666V238Z" fill="#2DBEF4"/>
<path d="M279.666 209C279.666 206.791 281.457 205 283.666 205H320.666C322.875 205 324.666 206.791 324.666 209V284H279.666V209Z" fill="#009AD4"/>
<path d="M343.666 159C343.666 156.791 345.457 155 347.666 155H384.666C386.875 155 388.666 156.791 388.666 159V284H343.666V159Z" fill="#009AD4"/>
<rect x="50" y="281.5" width="378.333" height="2.5" fill="#1A80A6"/>
<path d="M361.666 76.5L350.666 65H324.166" stroke="#126686" stroke-opacity="0.5" stroke-dasharray="5 5"/>
<path d="M67.666 154L111.666 119.5L160.166 165L176.166 154L227.666 204.5L287.666 154L310.166 146.5L364.666 79L410.666 63" stroke="url(#paint0_linear)" stroke-width="4" stroke-linecap="round"/>
<circle cx="366.666" cy="79" r="6" fill="#37D05A"/>
<circle cx="366.666" cy="79" r="3" fill="white"/>
</g>
<defs>
<filter id="filter0_d" x="0" y="0" width="477" height="332" filterUnits="userSpaceOnUse" color-interpolation-filters="sRGB">
<feFlood flood-opacity="0" result="BackgroundImageFix"/>
<feColorMatrix in="SourceAlpha" type="matrix" values="0 0 0 0 0 0 0 0 0 0 0 0 0 0 0 0 0 0 127 0"/>
<feOffset/>
<feGaussianBlur stdDeviation="8"/>
<feColorMatrix type="matrix" values="0 0 0 0 0 0 0 0 0 0 0 0 0 0 0 0 0 0 0.16 0"/>
<feBlend mode="normal" in2="BackgroundImageFix" result="effect1_dropShadow"/>
<feBlend mode="normal" in="SourceGraphic" in2="effect1_dropShadow" result="shape"/>
</filter>
<linearGradient id="paint0_linear" x1="410.666" y1="125.5" x2="63.666" y2="118.5" gradientUnits="userSpaceOnUse">
<stop stop-color="#00D46E"/>
<stop offset="0.479167" stop-color="#EEBE15"/>
<stop offset="1" stop-color="#FC7A42"/>
</linearGradient>
</defs>
</svg>
