<svg width="105" height="75" viewBox="0 0 105 75" fill="none" xmlns="http://www.w3.org/2000/svg">
<path d="M82.3291 9.97132C78.7768 8.1952 72.1166 8.1748 71.8349 8.1748C70.9901 8.1748 70.3052 8.85972 70.3052 9.70453C70.3052 10.5494 70.9901 11.2343 71.8349 11.2343C73.5535 11.2343 78.5431 11.4988 80.9609 12.7077C81.1805 12.8176 81.4139 12.8694 81.6437 12.8694C82.2048 12.8694 82.7451 12.5594 83.0132 12.0236C83.3911 11.2679 83.0847 10.3491 82.3291 9.97132Z" fill="#FF9404"/>
<path d="M102.9 55.59H93.6603C94.2679 54.6081 94.6195 53.4518 94.6195 52.2148V37.9298C94.6195 35.0718 92.7002 32.5276 89.9524 31.7425L84.4364 30.1667C83.6932 29.9544 83.1743 29.2662 83.1743 28.4932L83.1745 27.2172C83.6883 26.8612 84.1782 26.4629 84.6363 26.0183C86.8566 23.8636 88.0794 20.9734 88.0794 17.8799V14.971L88.6899 13.75C89.3603 12.4096 89.7144 10.9088 89.7144 9.41008V1.52973C89.7144 0.684911 89.0295 0 88.1846 0H73.4695C68.1183 0 63.7646 4.35361 63.7646 9.70481V9.79598C63.7646 11.0422 64.0592 12.2903 64.6166 13.4049L65.3996 14.9712V17.4687C65.3996 21.4268 67.3501 24.9784 70.3046 27.1158V28.4936C70.3046 29.2666 69.7857 29.9546 69.0424 30.1669L63.5266 31.7429C60.7788 32.5282 58.8597 35.0724 58.8597 37.9302V39.2404H58.7545C57.0094 39.2404 55.5898 40.66 55.5898 42.4051V55.4851C55.5898 55.5206 55.5938 55.5551 55.5951 55.5904H48.8339C48.8351 55.5551 48.8392 55.5206 48.8392 55.4851V42.4051C48.8392 40.66 47.4196 39.2404 45.6745 39.2404H42.298C42.2823 36.8047 40.9237 34.6182 38.7423 33.5274L34.792 31.5524C37.1084 31.0203 38.8451 30.3572 40.003 29.824C41.5212 29.1248 42.2226 27.4042 41.6348 25.8216C40.2904 22.2019 39.2386 15.8639 39.0257 12.8667C38.5043 5.53171 32.9279 0.000203852 26.0548 0.000203852C19.1816 0.000203852 13.605 5.5315 13.0839 12.8667C12.8709 15.8639 11.8191 22.2019 10.4748 25.8216C9.88695 27.4042 10.5884 29.1248 12.1065 29.824C13.2654 30.3578 15.002 31.0205 17.3172 31.5524L13.367 33.5276C11.1729 34.6245 9.81006 36.83 9.81006 39.2831V52.2152C9.81006 53.4522 10.1619 54.6085 10.7693 55.5904H1.52973C0.684911 55.5904 0 56.2753 0 57.1201C0 57.9649 0.684911 58.6498 1.52973 58.6498H3.26995V73.4703C3.26995 74.3151 3.95486 75 4.79968 75C5.6445 75 6.32941 74.3151 6.32941 73.4703V65.1899H98.1001V73.4703C98.1001 74.3151 98.7851 75 99.6299 75C100.475 75 101.16 74.3151 101.16 73.4703V58.6498H102.9C103.745 58.6498 104.43 57.9649 104.43 57.1201C104.43 56.2753 103.745 55.59 102.9 55.59ZM68.4595 17.4685V14.6097C68.4595 14.3723 68.4042 14.138 68.298 13.9256L67.3534 12.0365C67.0075 11.3443 66.8245 10.5696 66.8245 9.79578V9.70461C66.8245 6.04039 69.8056 3.05926 73.4699 3.05926H86.6553V9.40967C86.6553 10.4358 86.4128 11.4636 85.9537 12.3814L85.1817 13.9254C85.0754 14.138 85.0201 14.3721 85.0201 14.6095V17.8795C85.0201 20.1382 84.1272 22.2488 82.5057 23.8222C80.885 25.3949 78.743 26.223 76.484 26.1557C72.0592 26.0234 68.4595 22.126 68.4595 17.4685ZM80.3816 30.0598L79.1266 31.3148C78.4892 31.9522 77.6415 32.3034 76.7398 32.3034C75.8383 32.3034 74.9906 31.9524 74.3532 31.3148L73.098 30.0596C73.251 29.6207 73.3383 29.1554 73.3569 28.6771C74.3216 28.9943 75.3392 29.1828 76.3923 29.2142C76.5099 29.2178 76.627 29.2195 76.7443 29.2195C77.9077 29.2195 79.0434 29.0432 80.124 28.7071C80.1452 29.175 80.2319 29.6301 80.3816 30.0598ZM61.9194 37.9298C61.9196 36.4308 62.9264 35.0961 64.3676 34.6843L69.8834 33.1082C70.3621 32.9716 70.8053 32.7607 71.2061 32.4945L72.1898 33.478C73.405 34.6935 75.021 35.3627 76.7398 35.3627C78.4586 35.3627 80.0746 34.6935 81.2898 33.478L82.2734 32.4945C82.6741 32.7607 83.1174 32.9714 83.5959 33.1082L89.1119 34.6841C90.5533 35.0959 91.56 36.4306 91.56 37.9295V52.2146C91.56 54.0757 90.046 55.5898 88.1849 55.5898H81.5342C81.5354 55.5545 81.5395 55.52 81.5395 55.4845V52.1093H86.5497C87.3945 52.1093 88.0794 51.4244 88.0794 50.5796V40.7695C88.0794 39.9247 87.3945 39.2398 86.5497 39.2398C85.7048 39.2398 85.0199 39.9247 85.0199 40.7695V49.0499H81.5395V42.4045C81.5395 40.6594 80.1199 39.2398 78.3748 39.2398H61.9194V37.9298ZM58.6494 42.4047C58.6494 42.3466 58.6965 42.2995 58.7547 42.2995H78.3748C78.4329 42.2995 78.48 42.3466 78.48 42.4047V55.4847C78.48 55.5429 78.4329 55.59 78.3748 55.59H58.7547C58.6968 55.59 58.6494 55.5429 58.6494 55.4847V42.4047ZM45.6749 42.2995C45.7328 42.2995 45.7801 42.3468 45.7801 42.4047V55.4847C45.7801 55.5429 45.733 55.59 45.6749 55.59H26.0548C25.9966 55.59 25.9495 55.5429 25.9495 55.4847V42.4047C25.9495 42.3466 25.9966 42.2995 26.0548 42.2995H45.6749ZM38.7666 26.8865C38.7742 26.9063 38.8064 27.0065 38.7232 27.0448C37.4549 27.629 35.391 28.3914 32.4892 28.897L32.4894 27.2237C34.7396 25.6746 36.4053 23.3278 37.0717 20.5573C37.5347 22.8423 38.1143 25.1304 38.7666 26.8865ZM16.1354 13.0829C16.3308 10.3359 17.4287 7.80407 19.2269 5.95412C21.0413 4.08744 23.4661 3.05946 26.0548 3.05946C28.6435 3.05946 31.0682 4.08744 32.8827 5.95412C34.6808 7.80407 35.7787 10.3359 35.9739 13.0833C36.0427 14.0501 36.1883 15.3134 36.3968 16.7132C34.7491 13.9142 32.075 11.8617 28.5588 10.732C25.4912 9.74622 22.8529 9.807 22.7422 9.81046C22.3416 9.82168 21.9614 9.98934 21.6834 10.2777L18.9244 13.139C18.338 13.7472 18.3555 14.7156 18.9638 15.302C19.572 15.8884 20.5404 15.8706 21.1268 15.2626L23.4214 12.883C24.268 12.9252 25.9146 13.0843 27.7073 13.6719C30.8553 14.704 33.0487 16.5511 34.2329 19.1647C33.6106 23.1787 30.1606 26.1596 26.0546 26.1596C21.4888 26.1596 17.7742 22.4452 17.7742 17.8793C17.7742 17.0345 17.0893 16.3495 16.2445 16.3495C16.0728 16.3495 15.9082 16.3791 15.7542 16.4313C15.9406 15.1437 16.0713 13.9846 16.1354 13.0829ZM29.8012 31.829L28.3798 33.1798C27.0758 34.4189 25.0333 34.4187 23.7296 33.1798L22.3077 31.8286C22.5476 31.3792 22.6794 30.8695 22.6794 30.3356V28.7065C23.7459 29.0398 24.8797 29.2195 26.0546 29.2195C27.2282 29.2195 28.3614 29.039 29.4298 28.7075L29.4296 30.3354C29.4296 30.8693 29.5613 31.3795 29.8012 31.829ZM13.3862 27.0446C13.3031 27.0065 13.3354 26.9063 13.3427 26.8865C13.9948 25.1308 14.5744 22.8431 15.0374 20.5585C15.7036 23.2982 17.3665 25.6507 19.6199 27.2098V28.8972C16.7195 28.3918 14.6558 27.6296 13.3862 27.0446ZM12.8695 39.2826C12.8695 37.9958 13.5844 36.8392 14.7352 36.2638L19.8449 33.7089L21.622 35.3977C22.865 36.5791 24.4596 37.1694 26.0548 37.1694C27.6494 37.1694 29.2448 36.5787 30.4873 35.3977L32.2642 33.7091L37.374 36.2636C38.5121 36.8328 39.2227 37.9705 39.2384 39.24H26.0546C24.3094 39.24 22.8899 40.6596 22.8899 42.4047V49.0501H19.4094V42.791C19.4094 41.9462 18.7245 41.2613 17.8797 41.2613C17.0349 41.2613 16.35 41.9462 16.35 42.791V50.5798C16.35 51.4246 17.0349 52.1095 17.8797 52.1095H22.8899V55.4847C22.8899 55.5202 22.8939 55.5547 22.8952 55.59H16.2447C14.3835 55.59 12.8695 54.076 12.8695 52.2148V39.2826ZM98.1001 62.1301H6.32941V58.6494H98.1001V62.1301Z" fill="#FF9404"/>
<path d="M37.4999 47.415H34.2299C33.3851 47.415 32.7002 48.1 32.7002 48.9448C32.7002 49.7896 33.3851 50.4745 34.2299 50.4745H37.4999C38.3447 50.4745 39.0296 49.7896 39.0296 48.9448C39.0296 48.1 38.3447 47.415 37.4999 47.415Z" fill="#FF9404"/>
<path d="M68.573 47.415H68.5567C67.7119 47.415 67.0352 48.1 67.0352 48.9448C67.0352 49.7896 67.7282 50.4745 68.573 50.4745C69.4179 50.4745 70.1028 49.7896 70.1028 48.9448C70.1028 48.1 69.4179 47.415 68.573 47.415Z" fill="#FF9404"/>
</svg>
