<svg width="390" height="518" viewBox="0 0 390 518" fill="none" xmlns="http://www.w3.org/2000/svg">
<path fill-rule="evenodd" clip-rule="evenodd" d="M162.605 432.41C179.401 389.26 190.348 327.89 190.348 258.802C190.348 189.714 179.401 128.344 162.605 85.1945C154.175 63.5379 144.775 47.7777 135.66 37.8731C126.566 27.9918 119.725 25.8943 115.5 25.8943C111.275 25.8943 104.435 27.9918 95.3406 37.8731C86.2252 47.7777 76.8259 63.5379 68.3958 85.1945C51.5995 128.344 40.653 189.714 40.653 258.802C40.653 327.89 51.5995 389.26 68.3958 432.41C76.8259 454.066 86.2252 469.826 95.3406 479.731C104.435 489.612 111.275 491.71 115.5 491.71C119.725 491.71 126.566 489.612 135.66 479.731C144.775 469.826 154.175 454.066 162.605 432.41ZM115.5 517.604C171.138 517.604 216.242 401.734 216.242 258.802C216.242 115.87 171.138 -6.10352e-05 115.5 -6.10352e-05C59.8622 -6.10352e-05 14.7585 115.87 14.7585 258.802C14.7585 401.734 59.8622 517.604 115.5 517.604Z" fill="#E7E7E7"/>
<path fill-rule="evenodd" clip-rule="evenodd" d="M-11.2962 386.4C34.4702 379.371 93.092 358.166 152.924 323.622C212.755 289.078 260.431 248.913 289.401 212.792C303.941 194.663 312.89 178.643 316.91 165.797C320.92 152.98 319.317 146.007 317.204 142.348C315.091 138.689 309.855 133.814 296.75 130.879C283.615 127.937 265.266 127.677 242.296 131.205C196.53 138.233 137.908 159.439 78.0763 193.982C18.2447 228.526 -29.4306 268.692 -58.4007 304.812C-72.9408 322.941 -81.8899 338.961 -85.9098 351.808C-89.9203 364.624 -88.3164 371.597 -86.2039 375.256C-84.0914 378.915 -78.8545 383.79 -65.7501 386.725C-52.6148 389.667 -34.2664 389.927 -11.2962 386.4ZM-108.629 388.203C-80.8101 436.387 42.0878 417.513 165.871 346.047C289.654 274.581 367.448 177.585 339.629 129.401C311.81 81.217 188.912 100.091 65.1291 171.557C-58.6539 243.023 -136.448 340.019 -108.629 388.203Z" fill="#E7E7E7"/>
<path fill-rule="evenodd" clip-rule="evenodd" d="M289.401 304.812C260.431 268.691 212.755 228.526 152.924 193.982C93.092 159.438 34.4702 138.233 -11.2962 131.205C-34.2664 127.677 -52.6148 127.937 -65.7501 130.879C-78.8545 133.814 -84.0914 138.689 -86.2039 142.348C-88.3164 146.007 -89.9203 152.98 -85.9098 165.796C-81.8899 178.643 -72.9408 194.663 -58.4008 212.792C-29.4306 248.913 18.2447 289.078 78.0764 323.622C137.908 358.166 196.53 379.371 242.296 386.399C265.266 389.927 283.615 389.667 296.75 386.725C309.855 383.79 315.091 378.915 317.204 375.256C319.316 371.597 320.92 364.624 316.91 351.808C312.89 338.961 303.941 322.941 289.401 304.812ZM339.629 388.203C367.448 340.019 289.654 243.023 165.871 171.557C42.0878 100.091 -80.8101 81.217 -108.629 129.401C-136.448 177.585 -58.654 274.581 65.1292 346.047C188.912 417.513 311.81 436.387 339.629 388.203Z" fill="#E7E7E7"/>
<path d="M111.283 291.55C112.086 292.231 113.117 292.607 114.186 292.607C115.255 292.607 116.286 292.231 117.089 291.551C120.129 288.974 123.058 286.555 125.643 284.421L125.645 284.42C133.208 278.174 139.74 272.78 144.286 267.466C149.367 261.525 151.733 255.892 151.733 249.738C151.733 243.759 149.618 238.244 145.776 234.206C141.889 230.121 136.555 227.871 130.756 227.871C126.421 227.871 122.451 229.199 118.957 231.817C117.193 233.139 115.595 234.757 114.186 236.644C112.778 234.757 111.18 233.139 109.416 231.817C105.922 229.199 101.952 227.871 97.6174 227.871C91.8177 227.871 86.4838 230.121 82.5966 234.206C78.7551 238.244 76.6393 243.759 76.6393 249.738C76.6393 255.892 79.0061 261.525 84.0873 267.466C88.6329 272.78 95.1659 278.175 102.731 284.422L102.744 284.433C105.325 286.564 108.25 288.979 111.283 291.55Z" fill="#E7E7E7"/>
</svg>
