<svg width="324" height="331" viewBox="0 0 324 331" fill="none" xmlns="http://www.w3.org/2000/svg">
<path d="M229.262 23.8199C204.203 3.45392 171.356 -4.3691 139.139 2.35814C97.2778 11.0998 64.2609 45.4413 56.9796 87.8139C50.5129 125.449 63.7554 162.652 92.4033 187.332C105.838 198.906 113.543 217.055 113.543 237.125V282.51C113.543 309.245 135.294 330.996 162.029 330.996C188.764 330.996 210.515 309.245 210.515 282.51C210.515 278.097 210.515 241.067 210.515 236.447C210.515 217.679 219.252 199.129 235.118 184.216C256.772 163.86 268.697 136.309 268.697 106.636C268.697 74.3743 254.324 44.1891 229.262 23.8199ZM162.029 311.602C149.387 311.602 138.608 303.494 134.605 292.207H189.452C185.449 303.494 174.671 311.602 162.029 311.602ZM191.12 272.813H132.937V252.093H191.12V272.813ZM221.834 170.085C203.053 187.739 192.273 209.845 191.208 232.699H132.837C131.741 208.722 121.755 187.02 105.061 172.638C81.6194 152.444 70.7903 121.961 76.0934 91.098C82.0377 56.5038 108.967 28.4706 143.103 21.3426C169.576 15.8146 196.522 22.2024 217.03 38.8705C237.541 55.5399 249.303 80.2392 249.303 106.636C249.303 130.9 239.548 153.433 221.834 170.085Z" fill="#E7E7E7"/>
<path d="M0.0155029 16.5233L13.7273 2.81154L52.5101 41.5944L38.7983 55.3062L0.0155029 16.5233Z" fill="#E7E7E7"/>
<path d="M0 196.73L38.7828 157.947L52.4946 171.659L13.7118 210.442L0 196.73Z" fill="#E7E7E7"/>
<path d="M271.505 41.6217L310.288 2.83888L324 16.5507L285.217 55.3335L271.505 41.6217Z" fill="#E7E7E7"/>
<path d="M271.49 171.691L285.201 157.979L323.984 196.762L310.272 210.474L271.49 171.691Z" fill="#E7E7E7"/>
<path d="M162.266 106.022C174.767 106.022 184.892 95.897 184.892 83.3957C184.892 70.8945 174.767 60.769 162.266 60.769C149.764 60.769 139.639 70.8945 139.639 83.3957C139.639 95.897 149.764 106.022 162.266 106.022ZM162.266 117.336C147.162 117.336 117.012 124.916 117.012 139.962V145.619C117.012 148.73 119.558 151.276 122.669 151.276H201.862C204.974 151.276 207.519 148.73 207.519 145.619V139.962C207.519 124.916 177.369 117.336 162.266 117.336Z" fill="#E7E7E7"/>
</svg>
