<svg width="44" height="75" viewBox="0 0 44 75" fill="none" xmlns="http://www.w3.org/2000/svg">
<path d="M21.9727 47.3145C22.7812 47.3145 23.4375 46.6581 23.4375 45.8496C23.4375 45.0411 22.7812 44.3848 21.9727 44.3848C21.1641 44.3848 20.5078 45.0411 20.5078 45.8496C20.5078 46.6581 21.1641 47.3145 21.9727 47.3145Z" fill="#009AD4"/>
<path d="M29.9829 36.2165C33.3818 34.1515 36.1954 31.2447 38.1203 27.8097C40.0143 24.4297 41.0156 20.6051 41.0156 16.749V8.53729C42.7208 7.93247 43.9453 6.30398 43.9453 4.39453V1.46484C43.9453 0.655746 43.2896 0 42.4805 0H1.46484C0.655746 0 0 0.655746 0 1.46484V4.39453C0 6.30398 1.22452 7.93247 2.92969 8.53729V16.749C2.92969 20.6051 3.93105 24.4297 5.82504 27.8097C7.74994 31.2447 10.564 34.152 13.9629 36.2165C14.3972 36.4803 14.657 36.9604 14.657 37.5C14.657 38.0402 14.3972 38.5197 13.9629 38.784C10.564 40.8485 7.74994 43.7553 5.82504 47.1903C3.93105 50.5703 2.92969 54.3949 2.92969 58.251V66.4627C1.22452 67.0675 0 68.696 0 70.6055V73.5352C0 74.3443 0.655746 75 1.46484 75H42.4805C43.2896 75 43.9453 74.3443 43.9453 73.5352V70.6055C43.9453 68.696 42.7208 67.0675 41.0156 66.4627V58.251C41.0156 54.3949 40.0143 50.5703 38.1203 47.1903C36.1954 43.7553 33.3813 40.848 29.9824 38.7835C29.5481 38.5197 29.2883 38.0396 29.2883 37.5C29.2883 36.9598 29.5481 36.4803 29.9829 36.2165ZM2.92969 2.92969H41.0156V4.39453C41.0156 5.20248 40.3587 5.85938 39.5508 5.85938H4.39453C3.58658 5.85938 2.92969 5.20248 2.92969 4.39453V2.92969ZM41.0156 72.0703H2.92969V70.6055C2.92969 69.7975 3.58658 69.1406 4.39453 69.1406H39.5508C40.3587 69.1406 41.0156 69.7975 41.0156 70.6055V72.0703ZM28.462 41.2874C34.4879 44.9484 38.0859 51.2901 38.0859 58.251V66.2109H5.85938V58.251C5.85938 51.2901 9.4574 44.9484 15.4833 41.2874C16.8005 40.4881 17.5867 39.0718 17.5867 37.5C17.5867 35.9282 16.8005 34.5119 15.4833 33.7126C9.4574 30.0516 5.85938 23.7099 5.85938 16.749V8.78906H38.0859V16.749C38.0859 23.7099 34.4879 30.0516 28.462 33.7126C27.1448 34.5119 26.3586 35.9282 26.3586 37.5C26.3586 39.0718 27.1448 40.4881 28.462 41.2874Z" fill="#009AD4"/>
<path d="M23.14 50.7512C22.8636 50.3827 22.4298 50.1653 21.9692 50.1653C21.9692 50.1653 21.9687 50.1653 21.9681 50.1653C21.508 50.1653 21.0743 50.3816 20.7979 50.7489C20.2457 51.4836 19.558 52.1079 18.754 52.6063C17.0763 53.6168 15.5777 54.2485 14.2548 54.8064C11.3216 56.0435 8.78906 57.1118 8.78906 61.1722V61.8165C8.78906 62.6256 9.44481 63.2814 10.2539 63.2814H33.6914C34.5005 63.2814 35.1562 62.6256 35.1562 61.8165V61.1722C35.1562 57.1141 32.6174 56.0413 29.678 54.7984C28.3442 54.2342 26.8324 53.5956 25.1335 52.5731C24.3547 52.0896 23.6841 51.4762 23.14 50.7512ZM32.1688 60.3517H11.776C11.9991 58.9978 12.9221 58.5481 15.3934 57.5061C16.7387 56.9385 18.4124 56.2329 20.2738 55.1114C20.2784 55.108 20.2835 55.1051 20.2881 55.1023C20.8958 54.7263 21.4571 54.2966 21.9669 53.8177C22.4642 54.2852 23.0089 54.7029 23.5977 55.0679C23.6029 55.0708 23.608 55.0742 23.6132 55.0771C25.4946 56.2101 27.1814 56.9236 28.537 57.4969C31.0186 58.5458 31.945 58.9978 32.1688 60.3517Z" fill="#009AD4"/>
<path d="M35.1562 16.7575V14.0624C35.1562 13.5297 34.8673 13.0393 34.4015 12.7812C33.9357 12.5226 33.367 12.5381 32.9149 12.8202C29.6305 14.8732 25.8471 15.9581 21.9727 15.9581C18.0988 15.9581 14.3148 14.8732 11.0304 12.8202C10.5783 12.5381 10.0096 12.5232 9.5438 12.7812C9.07803 13.0393 8.78906 13.5297 8.78906 14.0624V16.7575C8.78906 19.2912 9.76753 22.0183 11.618 24.6436C13.4113 27.1876 15.8987 29.4599 18.8118 31.216C19.4035 31.5839 19.9831 32.1057 20.5078 32.7363V39.9901C20.5078 40.7992 21.1636 41.455 21.9727 41.455C22.7812 41.455 23.4375 40.7992 23.4375 39.9901V32.7392C23.9719 32.1012 24.571 31.5673 25.1913 31.1828C31.152 27.5876 35.1562 21.7917 35.1562 16.7575ZM23.6715 28.6777C23.667 28.6811 23.6618 28.6834 23.6572 28.6868C23.073 29.0479 22.5071 29.4948 21.9778 30.0086C21.4645 29.5062 20.9192 29.0753 20.3476 28.7211C20.3424 28.7177 20.3373 28.7149 20.3321 28.7114C15.18 25.6084 11.7188 20.8047 11.7188 16.7575V16.5418C14.9065 18.0821 18.4061 18.8878 21.9727 18.8878C25.5392 18.8878 29.0388 18.0821 32.2266 16.5418V16.7575C32.2266 20.7412 28.7086 25.6427 23.6715 28.6777Z" fill="#009AD4"/>
</svg>
