<svg width="104" height="140" viewBox="0 0 104 140" fill="none" xmlns="http://www.w3.org/2000/svg">
<path d="M4.7191 140C3.40824 140 2.29401 139.541 1.3764 138.624C0.458801 137.706 0 136.592 0 135.281V125.056C0 121.386 1.63858 118.305 4.91573 115.815L35.5899 85.3371C44.897 77.9962 52.0412 72.0318 57.0225 67.4438C62.1348 62.7247 65.9363 58.3989 68.427 54.4663C70.9176 50.5337 72.1629 46.6667 72.1629 42.8652C72.1629 36.7041 70.5244 31.8539 67.2472 28.3146C63.97 24.7753 58.9888 23.0056 52.3034 23.0056C45.7491 23.0056 40.5712 24.9719 36.7697 28.9045C33.0993 32.706 30.8052 37.6873 29.8876 43.8483C29.4944 45.4213 28.7079 46.6011 27.5281 47.3876C26.4794 48.0431 25.2996 48.3708 23.9888 48.3708H6.29214C5.11236 48.3708 4.12921 47.9775 3.3427 47.191C2.55618 46.4045 2.16292 45.4213 2.16292 44.2416C2.42509 36.5075 4.52247 29.2978 8.45506 22.6124C12.5187 15.7959 18.2865 10.3558 25.7584 6.29213C33.2303 2.09738 42.0131 0 52.1067 0C62.5936 0 71.5075 1.83521 78.8483 5.50562C86.1891 9.04494 91.6948 13.9607 95.3652 20.2528C99.0356 26.5449 100.871 33.6891 100.871 41.6854C100.871 50.4682 98.3801 58.4644 93.3989 65.6741C88.5487 72.7528 80.9457 80.3558 70.5899 88.4831L43.2584 116.208H98.9045C100.346 116.208 101.526 116.667 102.444 117.584C103.361 118.502 103.82 119.682 103.82 121.124V135.281C103.82 136.723 103.361 137.903 102.444 138.82C101.526 139.607 100.346 140 98.9045 140H4.7191Z" fill="#FF9404" fill-opacity="0.2"/>
</svg>
