<svg width="109" height="140" viewBox="0 0 109 140" fill="none" xmlns="http://www.w3.org/2000/svg">
<path d="M54.4011 140C42.6636 140 32.7066 138.16 24.53 134.479C16.4852 130.798 10.4186 126.197 6.33031 120.676C2.37387 115.023 0.263763 109.239 0 103.324C0 102.141 0.395645 101.155 1.18693 100.366C1.97822 99.5775 2.96733 99.1831 4.15427 99.1831H22.3539C25.2553 99.1831 27.2335 100.498 28.2886 103.127C31.19 112.46 39.8941 117.127 54.4011 117.127C62.4459 117.127 68.7102 115.286 73.1942 111.606C77.8101 107.925 80.118 102.667 80.118 95.831C80.118 88.9953 78.0079 84.0657 73.7877 81.0423C69.6993 77.8873 63.6328 76.3099 55.588 76.3099H35.2123C33.8935 76.3099 32.7725 75.8498 31.8494 74.9296C30.9262 74.0094 30.4646 72.892 30.4646 71.5775V63.0986C30.4646 60.6009 31.3218 58.6291 33.0363 57.1831L68.2486 22.8732H11.8693C10.4186 22.8732 9.2317 22.4131 8.30853 21.493C7.38536 20.5728 6.92378 19.4554 6.92378 18.1408V4.92959C6.92378 3.48357 7.38536 2.30047 8.30853 1.38029C9.2317 0.460094 10.4186 0 11.8693 0H96.9329C98.3836 0 99.5705 0.460094 100.494 1.38029C101.417 2.30047 101.878 3.48357 101.878 4.92959V16.9577C101.878 19.1925 101.021 21.0329 99.3067 22.4789L65.2813 57.3803L67.6552 57.5775C80.3158 58.6291 90.3388 62.4413 97.7242 69.0141C105.241 75.5869 109 84.9859 109 97.2113C109 105.887 106.626 113.446 101.878 119.887C97.2626 126.329 90.8004 131.324 82.4919 134.873C74.3152 138.291 64.9516 140 54.4011 140Z" fill="#FF9404" fill-opacity="0.2"/>
</svg>
