<svg width="75" height="140" viewBox="0 0 75 140" fill="none" xmlns="http://www.w3.org/2000/svg">
<path d="M51.146 140C49.8193 140 48.6915 139.533 47.7628 138.6C46.8341 137.667 46.3697 136.533 46.3697 135.2V32L16.319 55.2C15.5229 55.8667 14.5279 56.2 13.3338 56.2C11.7417 56.2 10.4813 55.5333 9.55256 54.2L0.995059 43C0.331686 42.0667 0 41.1333 0 40.2C0 38.6 0.72971 37.2667 2.18913 36.2L46.7678 1.4C48.2272 0.466667 49.8856 0 51.743 0H69.6541C70.9808 0 72.1086 0.466667 73.0373 1.4C73.966 2.33333 74.4304 3.46666 74.4304 4.8V135.2C74.4304 136.533 73.966 137.667 73.0373 138.6C72.1086 139.533 70.9808 140 69.6541 140H51.146Z" fill="#FF9404" fill-opacity="0.2"/>
</svg>
