<svg width="740" height="541" viewBox="0 0 740 541" fill="none" xmlns="http://www.w3.org/2000/svg">
<path d="M770.903 176.174L624.36 322.717L629.525 327.882L776.069 181.339L770.903 176.174Z" fill="#CCCCCC" fill-opacity="0.15"/>
<path d="M843.306 155.223L632.674 365.855L637.84 371.02L848.471 160.388L843.306 155.223Z" fill="#CCCCCC" fill-opacity="0.15"/>
<path d="M731.933 317.796L643.357 406.372L648.522 411.537L737.098 322.961L731.933 317.796Z" fill="#CCCCCC" fill-opacity="0.15"/>
<path d="M869.696 231.495L726.979 374.212L732.144 379.377L874.861 236.66L869.696 231.495Z" fill="#CCCCCC" fill-opacity="0.15"/>
<path d="M707.564 -17.8158L672.937 16.8113L678.103 21.9766L712.73 -12.6504L707.564 -17.8158Z" fill="#CCCCCC" fill-opacity="0.15"/>
<path d="M908.169 -167.238L698.494 42.437L703.659 47.6023L913.334 -162.073L908.169 -167.238Z" fill="#CCCCCC" fill-opacity="0.15"/>
<path d="M565.012 -29.7174L418.469 116.826L423.634 121.991L570.177 -24.552L565.012 -29.7174Z" fill="#CCCCCC" fill-opacity="0.15"/>
<path d="M635.412 -48.6618L424.78 161.97L429.945 167.135L640.577 -43.4964L635.412 -48.6618Z" fill="#CCCCCC" fill-opacity="0.15"/>
<path d="M648.109 -10.0912L559.533 78.4851L564.698 83.6505L653.274 -4.92587L648.109 -10.0912Z" fill="#CCCCCC" fill-opacity="0.15"/>
<path d="M526.042 111.908L437.465 200.484L442.631 205.649L531.207 117.073L526.042 111.908Z" fill="#CCCCCC" fill-opacity="0.15"/>
<path d="M751.246 92.8529L662.67 181.429L667.835 186.595L756.412 98.0182L751.246 92.8529Z" fill="#CCCCCC" fill-opacity="0.15"/>
<path d="M628.987 215.044L540.411 303.62L545.576 308.786L634.152 220.209L628.987 215.044Z" fill="#CCCCCC" fill-opacity="0.15"/>
<path d="M653.996 35.7986L511.279 178.515L516.444 183.681L659.161 40.9639L653.996 35.7986Z" fill="#CCCCCC" fill-opacity="0.15"/>
<path d="M724.524 68.2061L547.18 245.55L552.345 250.715L729.689 73.3715L724.524 68.2061Z" fill="#CCCCCC" fill-opacity="0.15"/>
<path d="M775.997 119.691L566.321 329.366L571.487 334.531L781.162 124.856L775.997 119.691Z" fill="#CCCCCC" fill-opacity="0.15"/>
<path d="M758.744 -17.7255L549.069 191.95L554.234 197.115L763.91 -12.5602L758.744 -17.7255Z" fill="#CCCCCC" fill-opacity="0.15"/>
<path d="M440.095 -7.84481L351.519 80.7314L356.685 85.8968L445.261 -2.67943L440.095 -7.84481Z" fill="#CCCCCC" fill-opacity="0.15"/>
<path d="M291.866 -14.1913L257.239 20.4358L262.404 25.6012L297.031 -9.0259L291.866 -14.1913Z" fill="#CCCCCC" fill-opacity="0.15"/>
<path d="M518.632 -137.684L341.288 39.6602L346.454 44.8255L523.798 -132.518L518.632 -137.684Z" fill="#CCCCCC" fill-opacity="0.15"/>
<path d="M584.105 -100.201L374.43 109.475L379.595 114.64L589.271 -95.0353L584.105 -100.201Z" fill="#CCCCCC" fill-opacity="0.15"/>
<path d="M492.853 -163.614L283.177 46.0613L288.343 51.2266L498.018 -158.449L492.853 -163.614Z" fill="#CCCCCC" fill-opacity="0.15"/>
</svg>
