<?xml version="1.0" encoding="utf-8"?>
<!-- Generator: Adobe Illustrator 21.0.0, SVG Export Plug-In . SVG Version: 6.00 Build 0)  -->
<svg version="1.1" id="objects" xmlns="http://www.w3.org/2000/svg" xmlns:xlink="http://www.w3.org/1999/xlink" x="0px" y="0px"
	 viewBox="0 0 73.4 62.9" style="enable-background:new 0 0 73.4 62.9;" xml:space="preserve">
<style type="text/css">
	.st0{display:none;}
	.st1{display:inline;fill:#E26D6D;}
	.st2{display:inline;fill:#DD4B4B;}
	.st3{display:inline;}
	.st4{fill:none;stroke:#FFFFFF;stroke-width:3;stroke-linecap:round;stroke-linejoin:round;stroke-miterlimit:10;}
	.st5{display:inline;fill:#F7CD1C;}
	.st6{display:inline;fill:#E8BB00;}
	.st7{display:inline;fill:#19ADBC;}
	.st8{display:inline;fill:#008F96;}
	.st9{display:inline;fill:#009AD4;}
	.st10{display:inline;fill:#0088B2;}
	.st11{fill:none;stroke:#FFFFFF;stroke-width:3;stroke-linecap:round;stroke-miterlimit:10;}
	.st12{fill:#FFFFFF;}
</style>
<g>
	<path class="st12" d="M48.5,62.9H6.3c-0.4,0-0.8-0.3-0.8-0.8V6.3c0-0.4,0.3-0.8,0.8-0.8h42.2c0.4,0,0.8,0.3,0.8,0.8v55.8
		C49.3,62.5,48.9,62.9,48.5,62.9z M7.1,61.3h40.6V7.1H7.1V61.3z"/>
	<path class="st12" d="M6.3,57.4H0.8C0.3,57.4,0,57,0,56.6V0.8C0,0.3,0.3,0,0.8,0h42.2c0.4,0,0.8,0.3,0.8,0.8v5.5
		c0,0.4-0.3,0.8-0.8,0.8H7.1v49.5C7.1,57,6.8,57.4,6.3,57.4z M1.6,55.8h4V6.3c0-0.4,0.3-0.8,0.8-0.8h35.8v-4H1.6V55.8z"/>
	<g>
		<path class="st12" d="M64.3,34.8c-5,0-9-4.1-9-9s4.1-9,9-9c5,0,9,4.1,9,9S69.3,34.8,64.3,34.8z M64.3,18.2c-4.1,0-7.5,3.4-7.5,7.5
			s3.4,7.5,7.5,7.5s7.5-3.4,7.5-7.5S68.5,18.2,64.3,18.2z"/>
		<g>
			<path class="st12" d="M72.6,40H56.1c-0.4,0-0.8-0.3-0.8-0.8s0.3-0.8,0.8-0.8h16.5c0.4,0,0.8,0.3,0.8,0.8S73,40,72.6,40z"/>
			<path class="st12" d="M72.6,44H56.1c-0.4,0-0.8-0.3-0.8-0.8s0.3-0.8,0.8-0.8h16.5c0.4,0,0.8,0.3,0.8,0.8S73,44,72.6,44z"/>
			<path class="st12" d="M72.6,48.1H56.1c-0.4,0-0.8-0.3-0.8-0.8c0-0.4,0.3-0.8,0.8-0.8h16.5c0.4,0,0.8,0.3,0.8,0.8
				C73.4,47.8,73,48.1,72.6,48.1z"/>
			<path class="st12" d="M72.6,52.2H56.1c-0.4,0-0.8-0.3-0.8-0.8s0.3-0.8,0.8-0.8h16.5c0.4,0,0.8,0.3,0.8,0.8S73,52.2,72.6,52.2z"/>
		</g>
	</g>
</g>
</svg>
