<?xml version="1.0" encoding="utf-8"?>
<!-- Generator: Adobe Illustrator 21.0.0, SVG Export Plug-In . SVG Version: 6.00 Build 0)  -->
<svg version="1.1" id="objects" xmlns="http://www.w3.org/2000/svg" xmlns:xlink="http://www.w3.org/1999/xlink" x="0px" y="0px"
	 viewBox="0 0 73.9 67.1" style="enable-background:new 0 0 73.9 67.1;" xml:space="preserve">
<style type="text/css">
	.st0{display:none;}
	.st1{display:inline;fill:#E26D6D;}
	.st2{display:inline;fill:#DD4B4B;}
	.st3{display:inline;}
	.st4{fill:none;stroke:#FFFFFF;stroke-width:3;stroke-linecap:round;stroke-linejoin:round;stroke-miterlimit:10;}
	.st5{display:inline;fill:#F7CD1C;}
	.st6{display:inline;fill:#E8BB00;}
	.st7{display:inline;fill:#19ADBC;}
	.st8{display:inline;fill:#008F96;}
	.st9{display:inline;fill:#009AD4;}
	.st10{display:inline;fill:#0088B2;}
	.st11{fill:none;stroke:#FFFFFF;stroke-width:3;stroke-linecap:round;stroke-miterlimit:10;}
	.st12{fill:#FFFFFF;}
</style>
<g>
	<path class="st12" d="M14.8,27.6h-2c-1.6,0-2.8-1.3-2.8-2.8v-0.9c-0.2-0.1-0.4-0.2-0.6-0.3l-0.6,0.6c-0.5,0.5-1.2,0.8-2,0.8
		c-0.8,0-1.5-0.3-2-0.8l-1.4-1.4c-0.5-0.5-0.8-1.2-0.8-2c0-0.8,0.3-1.5,0.8-2L4,18.3c-0.1-0.2-0.2-0.4-0.3-0.6H2.8
		c-1.6,0-2.8-1.3-2.8-2.8v-2C0,11.3,1.3,10,2.8,10h0.9C3.8,9.8,3.9,9.6,4,9.4L3.4,8.7c-0.5-0.5-0.8-1.2-0.8-2s0.3-1.5,0.8-2l1.4-1.4
		c0.5-0.5,1.2-0.8,2-0.8c0.8,0,1.5,0.3,2,0.8L9.4,4C9.6,3.9,9.8,3.8,10,3.7V2.8C10,1.3,11.3,0,12.8,0h2c1.6,0,2.8,1.3,2.8,2.8v0.9
		c0.2,0.1,0.4,0.2,0.6,0.3l0.6-0.6c0.5-0.5,1.2-0.8,2-0.8c0.8,0,1.5,0.3,2,0.8l1.4,1.4c1.1,1.1,1.1,2.9,0,4l-0.6,0.6
		c0.1,0.2,0.2,0.4,0.3,0.6h0.9c1.6,0,2.8,1.3,2.8,2.8v2c0,1.6-1.3,2.8-2.8,2.8h-0.9c-0.1,0.2-0.2,0.4-0.3,0.6l0.6,0.6
		c1.1,1.1,1.1,2.9,0,4l-1.4,1.4c-0.5,0.5-1.2,0.8-2,0.8c-0.8,0-1.5-0.3-2-0.8l-0.6-0.6c-0.2,0.1-0.4,0.2-0.6,0.3v0.9
		C17.6,26.4,16.4,27.6,14.8,27.6z M9.3,22c0.1,0,0.4,0,0.6,0.1c0.3,0.1,0.6,0.3,0.9,0.4c0.4,0.2,0.8,0.6,0.8,1.1v1.2
		c0,0.7,0.6,1.3,1.3,1.3h2c0.7,0,1.3-0.6,1.3-1.3v-1.2c0-0.4,0.4-0.9,0.8-1.1c0.3-0.1,0.6-0.2,0.9-0.4c0.4-0.2,1-0.1,1.3,0.1
		c0,0,0,0,0,0l0.9,0.9c0.5,0.5,1.3,0.5,1.8,0l1.4-1.4c0.5-0.5,0.5-1.3,0-1.8l-0.9-0.9c-0.3-0.3-0.4-0.9-0.2-1.3
		c0.2-0.3,0.3-0.6,0.4-0.9c0.2-0.5,0.6-0.8,1.1-0.8h1.2c0.7,0,1.3-0.6,1.3-1.3v-2c0-0.7-0.6-1.3-1.3-1.3h-1.2
		c-0.5,0-0.9-0.4-1.1-0.8c-0.1-0.3-0.2-0.6-0.4-0.9c-0.2-0.4-0.1-1,0.2-1.3l0.9-0.9c0.5-0.5,0.5-1.3,0-1.8l-1.4-1.4
		C21.3,4,20.5,4,20,4.5l-0.9,0.9c-0.3,0.3-0.7,0.3-0.8,0.3c-0.2,0-0.3,0-0.5-0.1c-0.3-0.2-0.6-0.3-1-0.4c-0.5-0.2-0.8-0.6-0.8-1.1
		V2.8c0-0.7-0.6-1.3-1.3-1.3h-2c-0.7,0-1.3,0.6-1.3,1.3V4c0,0.4-0.4,0.9-0.8,1.1c-0.4,0.1-0.7,0.3-0.9,0.4c-0.5,0.2-1,0.1-1.3-0.2
		L7.6,4.5C7.2,4,6.3,4,5.8,4.5L4.5,5.8C4.2,6.1,4.1,6.4,4.1,6.7c0,0.3,0.1,0.7,0.4,0.9l0.9,0.9c0.3,0.3,0.4,0.9,0.2,1.4
		c-0.1,0.3-0.3,0.6-0.4,0.9c-0.2,0.5-0.6,0.8-1.1,0.8H2.8c-0.7,0-1.3,0.6-1.3,1.3v2c0,0.7,0.6,1.3,1.3,1.3H4c0.5,0,0.9,0.4,1.1,0.8
		c0.1,0.3,0.2,0.6,0.4,1c0.2,0.4,0.1,1-0.2,1.4L4.5,20c-0.2,0.2-0.4,0.6-0.4,0.9c0,0.3,0.1,0.7,0.4,0.9l1.4,1.4
		c0.5,0.5,1.3,0.5,1.8,0l0.9-0.8C8.7,22.1,9.1,22,9.3,22z M9.2,23.6C9.2,23.6,9.2,23.6,9.2,23.6C9.2,23.6,9.2,23.6,9.2,23.6z
		 M4.1,18.5C4.1,18.5,4.1,18.5,4.1,18.5C4.1,18.5,4.1,18.5,4.1,18.5z M4.2,18C4.2,18.1,4.2,18.1,4.2,18L4.2,18z M4.2,9.6
		C4.2,9.6,4.2,9.6,4.2,9.6L4.2,9.6z M4.1,9.2C4.1,9.2,4.1,9.2,4.1,9.2C4.1,9.2,4.1,9.2,4.1,9.2z M9.6,4.2L9.6,4.2
		C9.6,4.2,9.6,4.2,9.6,4.2z M10.2,3.6C10.2,3.6,10.2,3.6,10.2,3.6C10.2,3.6,10.2,3.6,10.2,3.6z M17.4,3.6
		C17.4,3.6,17.4,3.6,17.4,3.6C17.4,3.6,17.4,3.6,17.4,3.6z M13.8,18.6c-2.6,0-4.8-2.1-4.8-4.8c0-2.6,2.1-4.8,4.8-4.8
		c2.6,0,4.8,2.1,4.8,4.8C18.6,16.4,16.5,18.6,13.8,18.6z M13.8,10.6c-1.8,0-3.2,1.4-3.2,3.2c0,1.8,1.4,3.2,3.2,3.2
		c1.8,0,3.2-1.4,3.2-3.2C17,12.1,15.6,10.6,13.8,10.6z"/>
	<path class="st12" d="M42.4,67.1C25,67.1,10.9,53,10.9,35.6c0-3.1,0.4-6.1,1.3-9c0.1-0.3,0.4-0.6,0.7-0.6h1.9
		c0.7,0,1.3-0.6,1.3-1.3v-1.2c0-0.4,0.4-0.9,0.8-1.1c0.3-0.1,0.6-0.2,0.9-0.4c0.4-0.2,1-0.1,1.3,0.1c0,0,0,0,0,0l0.9,0.9
		c0.5,0.5,1.3,0.5,1.8,0l1.4-1.4c0.5-0.5,0.5-1.3,0-1.8l-0.9-0.9c-0.3-0.3-0.4-0.9-0.2-1.3c0.2-0.3,0.3-0.6,0.4-0.9
		c0.2-0.5,0.6-0.8,1.1-0.8h1.2c0.7,0,1.3-0.6,1.3-1.3v-2c0-0.7-0.6-1.3-1.3-1.3h-0.5c-0.3,0-0.6-0.2-0.7-0.5c-0.1-0.3,0-0.7,0.3-0.9
		c5.4-4,11.8-6,18.6-6c17.4,0,31.5,14.1,31.5,31.5C73.9,53,59.8,67.1,42.4,67.1z M13.5,27.6c-0.7,2.6-1.1,5.3-1.1,8
		c0,16.5,13.4,30,30,30s30-13.4,30-30c0-16.5-13.4-30-30-30c-5.8,0-11.3,1.6-16.1,4.7c0.8,0.5,1.4,1.4,1.4,2.4v2
		c0,1.6-1.3,2.8-2.8,2.8h-0.9c-0.1,0.2-0.2,0.4-0.3,0.6l0.6,0.6c1.1,1.1,1.1,2.9,0,4l-1.4,1.4c-0.5,0.5-1.2,0.8-2,0.8
		c-0.8,0-1.5-0.3-2-0.8l-0.6-0.6c-0.2,0.1-0.4,0.2-0.6,0.3v0.9c0,1.6-1.3,2.8-2.8,2.8H13.5z"/>
	<path class="st12" d="M42,42.3c-0.6,0-1.1-0.2-1.5-0.6L29.3,30.4c-0.4-0.4-0.6-0.9-0.6-1.5s0.2-1.1,0.6-1.5c0.4-0.4,1-0.6,1.5-0.6
		s1.1,0.2,1.5,0.6l11.2,11.2c0.4,0.4,0.6,0.9,0.6,1.5c0,0.6-0.2,1.1-0.6,1.5l0,0c0,0,0,0,0,0l0,0C43.1,42.1,42.6,42.3,42,42.3z
		 M30.8,28.3c-0.2,0-0.3,0.1-0.4,0.2c-0.1,0.1-0.2,0.3-0.2,0.4s0.1,0.3,0.2,0.4l11.2,11.2c0.2,0.2,0.6,0.2,0.8,0h0
		c0.1-0.1,0.2-0.3,0.2-0.4c0-0.2-0.1-0.3-0.2-0.4L31.2,28.5C31.1,28.4,31,28.3,30.8,28.3z"/>
	<path class="st12" d="M42.4,42c-0.4,0-0.8-0.2-1-0.4c-0.3-0.3-0.4-0.6-0.4-1c0-0.4,0.2-0.8,0.4-1l17.4-17.4c0.6-0.6,1.5-0.6,2.1,0
		l0,0c0.3,0.3,0.4,0.6,0.4,1c0,0.4-0.2,0.8-0.4,1L43.5,41.6C43.2,41.9,42.8,42,42.4,42z"/>
</g>
</svg>
