<?xml version="1.0" encoding="utf-8"?>
<!-- Generator: Adobe Illustrator 21.0.0, SVG Export Plug-In . SVG Version: 6.00 Build 0)  -->
<svg version="1.1" id="objects" xmlns="http://www.w3.org/2000/svg" xmlns:xlink="http://www.w3.org/1999/xlink" x="0px" y="0px"
	 viewBox="0 0 61.8 53.3" style="enable-background:new 0 0 61.8 53.3;" xml:space="preserve">
<style type="text/css">
	.st0{display:none;}
	.st1{display:inline;fill:#E26D6D;}
	.st2{display:inline;fill:#DD4B4B;}
	.st3{display:inline;}
	.st4{fill:none;stroke:#FFFFFF;stroke-width:3;stroke-linecap:round;stroke-linejoin:round;stroke-miterlimit:10;}
	.st5{display:inline;fill:#F7CD1C;}
	.st6{display:inline;fill:#E8BB00;}
	.st7{display:inline;fill:#19ADBC;}
	.st8{display:inline;fill:#008F96;}
	.st9{display:inline;fill:#009AD4;}
	.st10{display:inline;fill:#0088B2;}
	.st11{fill:none;stroke:#FFFFFF;stroke-width:3;stroke-linecap:round;stroke-miterlimit:10;}
	.st12{fill:#FFFFFF;}
</style>
<g>
	<g>
		<path class="st12" d="M4.3,53.3c-0.6,0-1.1-0.2-1.6-0.6l-2.1-2.1c-0.9-0.9-0.9-2.2,0-3.1l20.9-20.9l5.2,5.2L5.8,52.7
			C5.4,53.1,4.9,53.3,4.3,53.3z M21.6,28.7L1.7,48.6c-0.2,0.2-0.2,0.7,0,0.9l2.1,2.1c0.2,0.2,0.7,0.2,0.9,0l19.8-19.8L21.6,28.7z"/>
		<path class="st12" d="M27,33.3c-0.6,0-1.1-0.2-1.5-0.6l-4.9-4.9c-0.9-0.9-0.8-2.3,0.2-3.3l9-9l8,8l-9,9c-0.4,0.4-1,0.7-1.6,0.7
			C27.1,33.3,27.1,33.3,27,33.3z M29.7,17.7l-7.9,7.9c-0.3,0.3-0.4,0.8-0.2,1l4.9,4.9c0.1,0.1,0.3,0.1,0.4,0.1
			c0.2,0,0.4-0.1,0.6-0.3l7.9-7.9L29.7,17.7z"/>
		<g>
			<path class="st12" d="M40.9,28.9L24.4,12.4l0.8-0.5c0.1,0,0.1-0.1,0.2-0.2l6.4-6.4C31.9,5.2,32,5.1,32.1,5l0.5-0.8l16.5,16.5
				l-0.8,0.5c-0.1,0-0.1,0.1-0.2,0.2l-6.4,6.4c-0.1,0.1-0.1,0.2-0.2,0.2L40.9,28.9z M26.8,12.6l14,14l6-6l-14-14L26.8,12.6z"/>
			<path class="st12" d="M23.9,13.9c-1,0-1.9-0.4-2.6-1.1c-1.5-1.5-1.5-3.8,0-5.3l6.4-6.4C28.4,0.4,29.3,0,30.3,0c0,0,0,0,0,0
				c1,0,1.9,0.4,2.6,1.1c0.7,0.7,1.1,1.6,1.1,2.6c0,0.8-0.3,1.6-0.7,2.2c-0.1,0.1-0.2,0.3-0.4,0.4l-6.4,6.4
				c-0.1,0.1-0.3,0.3-0.4,0.4C25.4,13.7,24.7,13.9,23.9,13.9z M30.3,1.6c-0.6,0-1.1,0.2-1.5,0.6l-6.4,6.4c-0.8,0.8-0.8,2.2,0,3.1
				c0.8,0.8,2,0.8,2.8,0.2c0.1-0.1,0.2-0.1,0.2-0.2l6.4-6.4C31.9,5.2,32,5.1,32.1,5c0.3-0.4,0.4-0.8,0.4-1.3c0-0.6-0.2-1.1-0.6-1.5
				C31.5,1.8,30.9,1.6,30.3,1.6z"/>
			<path class="st12" d="M43.2,33.1C43.2,33.1,43.2,33.1,43.2,33.1c-1,0-1.9-0.4-2.6-1.1c-1.3-1.3-1.4-3.4-0.4-4.9
				c0.1-0.1,0.2-0.3,0.4-0.4l6.4-6.4c0.1-0.1,0.3-0.3,0.4-0.4c1.4-1.1,3.5-0.9,4.8,0.4c0.7,0.7,1.1,1.6,1.1,2.6c0,1-0.4,1.9-1.1,2.6
				l-6.4,6.4C45.1,32.8,44.2,33.1,43.2,33.1z M49.6,20.8c-0.5,0-0.9,0.1-1.3,0.4c-0.1,0.1-0.2,0.1-0.2,0.2l-6.4,6.4
				c-0.1,0.1-0.1,0.2-0.2,0.2c-0.7,0.9-0.6,2.1,0.2,2.8c0.4,0.4,1,0.6,1.5,0.6c0,0,0,0,0,0c0.6,0,1.1-0.2,1.5-0.6l6.4-6.4
				c0.4-0.4,0.6-1,0.6-1.5c0-0.6-0.2-1.1-0.6-1.5C50.7,21,50.2,20.8,49.6,20.8z"/>
		</g>
	</g>
	<path class="st12" d="M61.8,53.3H27.2v-0.8c0-3.7,3-6.6,6.6-6.6h21.3c3.7,0,6.6,3,6.6,6.6V53.3z M28.8,51.8h31.4
		c-0.4-2.4-2.5-4.3-5-4.3H33.9C31.3,47.5,29.2,49.3,28.8,51.8z"/>
</g>
</svg>
