<?xml version="1.0" encoding="utf-8"?>
<!-- Generator: Adobe Illustrator 21.0.0, SVG Export Plug-In . SVG Version: 6.00 Build 0)  -->
<svg version="1.1" id="objects" xmlns="http://www.w3.org/2000/svg" xmlns:xlink="http://www.w3.org/1999/xlink" x="0px" y="0px"
	 viewBox="0 0 77 70" style="enable-background:new 0 0 77 70;" xml:space="preserve">
<style type="text/css">
	.st0{display:none;}
	.st1{display:inline;fill:#E26D6D;}
	.st2{display:inline;fill:#DD4B4B;}
	.st3{display:inline;}
	.st4{fill:none;stroke:#FFFFFF;stroke-width:3;stroke-linecap:round;stroke-linejoin:round;stroke-miterlimit:10;}
	.st5{display:inline;fill:#F7CD1C;}
	.st6{display:inline;fill:#E8BB00;}
	.st7{display:inline;fill:#19ADBC;}
	.st8{display:inline;fill:#008F96;}
	.st9{display:inline;fill:#009AD4;}
	.st10{display:inline;fill:#0088B2;}
	.st11{fill:none;stroke:#FFFFFF;stroke-width:3;stroke-linecap:round;stroke-miterlimit:10;}
	.st12{fill:#FFFFFF;}
</style>
<g>
	<path class="st12" d="M46.2,30.7c-0.2,0-0.3-0.1-0.5-0.2c-2.1-1.6-4.6-2.4-7.3-2.5c-0.2,0-0.4-0.1-0.6-0.3
		c-0.1-0.2-0.2-0.4-0.2-0.6l0.7-13.6c0-0.2,0.1-0.4,0.3-0.5c0.2-0.1,0.4-0.2,0.6-0.2c2.8,0.1,5.5,0.7,8.1,1.6
		c2.6,0.9,5.1,2.3,7.3,3.9c0.2,0.1,0.3,0.3,0.3,0.5c0,0.2,0,0.4-0.1,0.6l-8,10.9c-0.1,0.2-0.3,0.3-0.5,0.3
		C46.3,30.7,46.2,30.7,46.2,30.7z M39.3,26.5c2.4,0.2,4.7,1,6.7,2.3l7.1-9.6c-2-1.4-4.1-2.4-6.3-3.2c-2.2-0.8-4.6-1.3-6.9-1.5
		L39.3,26.5z"/>
	<path class="st12" d="M37.7,70C21.9,70,9.1,57.2,9.1,41.4c0-13.9,9.9-25.8,23.6-28.2c0.4-0.1,0.8,0.2,0.9,0.6L36,27.4
		c0.1,0.4-0.2,0.8-0.6,0.9C29.4,29.5,25,34.8,25,41c0,7.2,5.8,13,13,13c7.1,0,12.8-5.6,13-12.7c0-0.4,0.4-0.8,0.8-0.8h13.7
		c0.4,0,0.8,0.3,0.8,0.8C66.3,57.2,53.5,70,37.7,70z M32.2,14.9c-12.6,2.6-21.6,13.6-21.6,26.5c0,14.9,12.1,27,27,27
		c14.6,0,26.6-11.7,27-26.3H52.5C52,49.8,45.7,55.6,38,55.6c-8,0-14.6-6.5-14.6-14.6c0-6.6,4.5-12.5,10.9-14.1L32.2,14.9z"/>
	<path class="st12" d="M51.7,39.9c-0.2,0-0.3-0.1-0.5-0.1c-0.2-0.1-0.3-0.3-0.3-0.5c-0.3-2.4-1.4-4.7-3-6.6
		c-0.3-0.3-0.2-0.8,0.1-1.1l10.3-8.8c0.3-0.3,0.8-0.2,1.1,0.1c1.9,2.2,3.4,4.7,4.6,7.4c0.9,2,1.5,4.2,1.9,6.4
		c0.1,0.4-0.2,0.8-0.6,0.9l-13.4,2.4C51.8,39.9,51.7,39.9,51.7,39.9z M49.6,32.2c1.3,1.8,2.3,3.8,2.7,6L64.2,36
		c-0.4-1.8-0.9-3.6-1.6-5.3c-1-2.3-2.3-4.4-3.8-6.4L49.6,32.2z"/>
	<path class="st12" d="M17.4,33.5c-0.2,0-0.4-0.1-0.6-0.2L0.2,16.6C0.1,16.5,0,16.3,0,16.1V0.8C0,0.3,0.3,0,0.8,0s0.8,0.3,0.8,0.8
		v15L18,32.1c0.3,0.3,0.3,0.8,0,1.1C17.8,33.4,17.6,33.5,17.4,33.5z"/>
	<path class="st12" d="M60.8,32.6c-0.3,0-0.6-0.2-0.7-0.4c-0.2-0.4,0-0.9,0.4-1l15-7.1v-8.1c0-0.4,0.3-0.8,0.8-0.8
		c0.4,0,0.8,0.3,0.8,0.8v8.6c0,0.3-0.2,0.6-0.4,0.7l-15.5,7.3C61,32.6,60.9,32.6,60.8,32.6z"/>
</g>
</svg>
