<svg width="50" height="50" fill="none" xmlns="http://www.w3.org/2000/svg"><path d="M49.275 22.482L26.43.575a2.065 2.065 0 0 0-2.86 0L.726 22.482a2.065 2.065 0 0 0 1.43 3.556H4.66v21.897c0 1.14.924 2.065 2.065 2.065h36.552a2.065 2.065 0 0 0 2.066-2.065V26.038h2.504a2.065 2.065 0 0 0 1.429-3.556zM30.559 35.083c-2.883 2.137-4.81 2.887-5.559 3.122-.748-.235-2.675-.985-5.558-3.122-3.53-2.617-3.59-5.202-3.368-7.42.163-1.628 1.346-3.38 3.56-3.38 2.263 0 3.676 1.747 3.723 1.806a2.05 2.05 0 0 0 3.274.016c.059-.075 1.472-1.823 3.735-1.823 2.213 0 3.397 1.753 3.56 3.381.222 2.218.163 4.803-3.367 7.42z" fill="#CCC"/></svg>