<svg width="54" height="54" fill="none" xmlns="http://www.w3.org/2000/svg"><path d="M44.394 22.774c-.504-.34-.607-.578-.606-.622.007-.04.134-.238.629-.471 5.587-2.634 8.79-5.876 8.79-8.895 0-2.442-1.29-3.68-3.833-3.68-.663 0-1.425.077-2.398.242a2.3 2.3 0 0 1-.37.031c-1 0-2-.7-2.489-1.744C41.935 2.997 37.215 0 32.093 0c-7.32 0-13.275 5.955-13.275 13.274 0 3.41 1.29 6.65 3.632 9.121.462.489.523.821.491.928-.032.107-.245.258-.648.352-1.846.434-3.521.792-5.334.792-.905 0-1.748-.09-2.578-.276-.527-.118-1.224-.347-2.031-.612-1.867-.613-4.19-1.376-6.278-1.376-1.898 0-3.313.642-4.205 1.909C.016 26.74.552 32.032 3.506 40.287 7.082 50.284 13.734 54 28.05 54c2.206 0 4.603-.085 7.327-.261 4.88-.315 9.038-1.933 12.027-4.679 3.155-2.898 4.823-6.91 4.823-11.603 0-5.902-2.93-11.39-7.834-14.683zM33.533 7.29a2.756 2.756 0 1 1 0 5.511 2.756 2.756 0 0 1 0-5.511zM21.826 44.35c-6.723-1.082-12.594-7.674-12.594-11.273 0-1.761 7.986-1.761 14.796-1.761 9.26 0 12.33 2.917 12.33 6.517 0 3.6-6.87 7.75-14.532 6.517z" fill="#CCC"/></svg>