<svg width="41" height="40" viewBox="0 0 41 40" fill="none" xmlns="http://www.w3.org/2000/svg">
<path fill-rule="evenodd" clip-rule="evenodd" d="M10.8367 2.24445C13.6009 0.810122 16.7408 0 20.0686 0C31.1533 0 40.1371 8.98385 40.1371 20.0686C40.1371 30.0876 32.7993 38.3889 23.2035 39.8941L22.5284 40V25.1161H27.1512L27.8357 20.6531H22.5284V16.4153C22.5284 15.56 22.7365 14.6433 23.3498 13.9331C23.977 13.2069 24.9494 12.7864 26.2867 12.7864H28.1605V9.07778C27.934 9.04541 27.6387 9.00591 27.2966 8.96641C26.4842 8.8726 25.4184 8.77999 24.384 8.77999C22.2759 8.77999 20.5981 9.41653 19.448 10.5679C18.2984 11.7187 17.6087 13.4514 17.6087 15.776V20.6531H12.6616V25.1161H17.6087V40L16.9336 39.8941C7.3378 38.3889 0 30.0876 0 20.0686C0 14.7985 2.03149 10.0021 5.35318 6.42185C5.57274 6.1852 5.94258 6.17134 6.17924 6.39091C6.41589 6.61047 6.42975 6.98031 6.21018 7.21697C3.08118 10.5895 1.16904 15.1048 1.16904 20.0686C1.16904 29.2667 7.73702 36.929 16.4396 38.6207V26.2852H11.4925V19.484H16.4396V15.776C16.4396 13.2182 17.2036 11.1606 18.6209 9.74172C20.0376 8.32345 22.0397 7.61095 24.384 7.61095C25.4806 7.61095 26.5953 7.70862 27.4307 7.80508C27.8496 7.85346 28.2011 7.90186 28.4484 7.93827C28.5721 7.95648 28.6699 7.97171 28.7373 7.98246C28.7709 7.98784 28.797 7.9921 28.8148 7.99506L28.8354 7.99849L28.8426 7.9997C28.8427 7.99971 28.8434 7.99983 28.745 8.57602L28.8426 7.9997L29.3296 8.08279V13.9554H26.2867C25.2037 13.9554 24.5893 14.2865 24.2346 14.6972C23.8661 15.1239 23.6975 15.7294 23.6975 16.4153V19.484H29.1977L28.1546 26.2852H23.6975V38.6207C32.4001 36.929 38.9681 29.2667 38.9681 20.0686C38.9681 9.62949 30.5076 1.16904 20.0686 1.16904C16.9326 1.16904 13.9768 1.93208 11.3751 3.28211C11.0886 3.4308 10.7358 3.31905 10.5871 3.0325C10.4384 2.74596 10.5501 2.39314 10.8367 2.24445ZM9.69378 3.56243C9.87393 3.83031 9.8028 4.19351 9.53491 4.37365C9.12888 4.64669 8.734 4.93509 8.35112 5.238C8.09795 5.4383 7.73034 5.39544 7.53005 5.14227C7.32975 4.8891 7.37261 4.52149 7.62578 4.32119C8.03224 3.99963 8.45145 3.69345 8.88256 3.40355C9.15044 3.22341 9.51364 3.29454 9.69378 3.56243Z" fill="#FF9404"/>
</svg>
