<svg width="27" height="26" viewBox="0 0 27 26" fill="none" xmlns="http://www.w3.org/2000/svg">
<path fill-rule="evenodd" clip-rule="evenodd" d="M7.04384 1.45889C8.84056 0.526579 10.8815 0 13.0446 0C20.2496 0 26.0891 5.8395 26.0891 13.0446C26.0891 19.5569 21.3195 24.9528 15.0823 25.9312L14.6435 26V16.3255H17.6483L18.0932 13.4245H14.6435V10.6699C14.6435 10.114 14.7787 9.51816 15.1774 9.05652C15.585 8.5845 16.2171 8.31116 17.0864 8.31116H18.3043V5.90056C18.1571 5.87951 17.9652 5.85384 17.7428 5.82816C17.2147 5.76719 16.5219 5.70699 15.8496 5.70699C14.4793 5.70699 13.3887 6.12074 12.6412 6.86914C11.894 7.61716 11.4456 8.74338 11.4456 10.2544V13.4245H8.23002V16.3255H11.4456V26L11.0068 25.9312C4.76957 24.9528 0 19.5569 0 13.0446C0 9.619 1.32047 6.50136 3.47957 4.17421C3.62228 4.02038 3.86268 4.01137 4.0165 4.15409C4.17033 4.29681 4.17934 4.5372 4.03662 4.69103C2.00277 6.88319 0.759877 9.8181 0.759877 13.0446C0.759877 19.0233 5.02906 24.0038 10.6858 25.1034V17.0854H7.47015V12.6646H10.6858V10.2544C10.6858 8.59181 11.1823 7.25437 12.1036 6.33212C13.0244 5.41024 14.3258 4.94712 15.8496 4.94712C16.5624 4.94712 17.287 5.0106 17.83 5.0733C18.1023 5.10475 18.3307 5.13621 18.4915 5.15987C18.5719 5.17171 18.6355 5.18161 18.6792 5.1886C18.7011 5.1921 18.718 5.19487 18.7296 5.19679L18.743 5.19902L18.7477 5.1998C18.7477 5.19981 18.7482 5.19989 18.6843 5.57441L18.7477 5.1998L19.0642 5.25382V9.07103H17.0864C16.3824 9.07103 15.983 9.28622 15.7525 9.55317C15.513 9.83051 15.4033 10.2241 15.4033 10.6699V12.6646H18.9785L18.3005 17.0854H15.4033V25.1034C21.0601 24.0038 25.3292 19.0233 25.3292 13.0446C25.3292 6.25917 19.8299 0.759877 13.0446 0.759877C11.0062 0.759877 9.08495 1.25585 7.39383 2.13337C7.20757 2.23002 6.97824 2.15738 6.88159 1.97113C6.78495 1.78488 6.85759 1.55554 7.04384 1.45889ZM6.30096 2.31558C6.41805 2.4897 6.37182 2.72578 6.19769 2.84287C5.93377 3.02035 5.6771 3.20781 5.42823 3.4047C5.26367 3.5349 5.02472 3.50703 4.89453 3.34247C4.76434 3.17791 4.7922 2.93897 4.95676 2.80878C5.22095 2.59976 5.49344 2.40074 5.77366 2.21231C5.94779 2.09522 6.18387 2.14145 6.30096 2.31558Z" fill="#848484"/>
</svg>
