<svg width="46" height="40" viewBox="0 0 46 40" fill="none" xmlns="http://www.w3.org/2000/svg">
<path fill-rule="evenodd" clip-rule="evenodd" d="M3.22581 0C1.44424 0 0 1.44424 0 3.22581V5.80645C0 6.16276 0.288849 6.45161 0.645161 6.45161C1.00147 6.45161 1.29032 6.16276 1.29032 5.80645V3.22581C1.29032 2.15687 2.15687 1.29032 3.22581 1.29032H41.9355C43.0044 1.29032 43.871 2.15687 43.871 3.22581V17.4194C43.871 29.1777 34.339 38.7097 22.5806 38.7097C10.8223 38.7097 1.29032 29.1777 1.29032 17.4194V12.2581C1.29032 11.9018 1.00147 11.6129 0.645161 11.6129C0.288849 11.6129 0 11.9018 0 12.2581V17.4194C0 29.8903 10.1097 40 22.5806 40C35.0516 40 45.1613 29.8903 45.1613 17.4194V3.22581C45.1613 1.44424 43.717 0 41.9355 0H3.22581ZM1.29032 7.74194C1.29032 7.38562 1.00147 7.09677 0.645161 7.09677C0.288849 7.09677 0 7.38562 0 7.74194V9.67742C0 10.0337 0.288849 10.3226 0.645161 10.3226C1.00147 10.3226 1.29032 10.0337 1.29032 9.67742V7.74194ZM35.1244 14.4847C35.3921 14.2319 35.4042 13.8099 35.1513 13.5423C34.8985 13.2746 34.4766 13.2625 34.2089 13.5153L22.6799 24.4038L11.8047 13.5286C11.5444 13.2682 11.1223 13.2682 10.8619 13.5286C10.6016 13.7889 10.6016 14.2111 10.8619 14.4714L22.6534 26.2629L35.1244 14.4847Z" fill="#FF9404"/>
</svg>
