<svg width="30" height="26" viewBox="0 0 30 26" fill="none" xmlns="http://www.w3.org/2000/svg">
<path fill-rule="evenodd" clip-rule="evenodd" d="M2.09677 0C0.938758 0 0 0.938758 0 2.09677V3.77419C0 4.0058 0.187752 4.19355 0.419355 4.19355C0.650958 4.19355 0.83871 4.0058 0.83871 3.77419V2.09677C0.83871 1.40196 1.40196 0.83871 2.09677 0.83871H27.2581C27.9529 0.83871 28.5161 1.40196 28.5161 2.09677V11.3226C28.5161 18.9655 22.3203 25.1613 14.6774 25.1613C7.03451 25.1613 0.83871 18.9655 0.83871 11.3226V7.96774C0.83871 7.73614 0.650958 7.54839 0.419355 7.54839C0.187752 7.54839 0 7.73614 0 7.96774V11.3226C0 19.4287 6.5713 26 14.6774 26C22.7835 26 29.3548 19.4287 29.3548 11.3226V2.09677C29.3548 0.938758 28.4161 0 27.2581 0H2.09677ZM0.83871 5.03226C0.83871 4.80065 0.650958 4.6129 0.419355 4.6129C0.187752 4.6129 0 4.80065 0 5.03226V6.29032C0 6.52193 0.187752 6.70968 0.419355 6.70968C0.650958 6.70968 0.83871 6.52193 0.83871 6.29032V5.03226ZM22.8309 9.41504C23.0049 9.25071 23.0127 8.97646 22.8484 8.80246C22.684 8.62847 22.4098 8.62064 22.2358 8.78496L14.742 15.8625L7.67308 8.79359C7.50385 8.62436 7.22948 8.62436 7.06025 8.79359C6.89103 8.96282 6.89103 9.23719 7.06025 9.40641L14.7247 17.0709L22.8309 9.41504Z" fill="#848484"/>
</svg>
