<svg width="32" height="26" viewBox="0 0 32 26" fill="none" xmlns="http://www.w3.org/2000/svg">
<path fill-rule="evenodd" clip-rule="evenodd" d="M15.0949 6.76968C15.0949 3.04191 18.1111 0 21.8588 0C23.7059 0 25.4053 0.749286 26.636 1.97081C27.9514 1.68414 29.1853 1.2003 30.3072 0.531419C30.4568 0.442229 30.646 0.454786 30.7825 0.562967C30.9189 0.671148 30.9744 0.852434 30.9217 1.01844C30.6009 2.02944 30.0503 2.93011 29.3312 3.66711C29.9802 3.49862 30.6106 3.28078 31.2187 3.01403C31.3895 2.93911 31.5892 2.98599 31.7089 3.12908C31.8285 3.27217 31.8392 3.47707 31.7353 3.63189C30.8887 4.8922 29.8571 5.99903 28.6344 6.90118C28.6425 7.10118 28.6478 7.30497 28.6478 7.51484C28.6478 16.0836 22.1211 26 10.1588 26C6.48251 26 3.07092 24.9405 0.192126 23.084C0.0274842 22.9779 -0.0417088 22.7719 0.0254654 22.5878C0.0926396 22.4038 0.278279 22.2908 0.472603 22.3156C0.949657 22.3767 1.43049 22.3994 1.93875 22.3994C4.42021 22.3994 6.73761 21.6643 8.66933 20.4105C6.2194 19.9399 4.24092 18.1459 3.47954 15.8188C3.43272 15.6757 3.46622 15.5184 3.56733 15.4068C3.66843 15.2952 3.82161 15.2464 3.96864 15.2789C4.25978 15.3433 4.57515 15.3694 4.90492 15.3758C2.73522 14.2475 1.23875 11.977 1.23875 9.34968V9.28C1.23875 9.13172 1.31706 8.99446 1.4447 8.919C1.57235 8.84355 1.73035 8.84111 1.86027 8.91259C2.25689 9.13082 2.68867 9.30877 3.13948 9.43444C1.99715 8.22475 1.28714 6.584 1.28714 4.78581C1.28714 3.53631 1.63034 2.37688 2.2122 1.36736C2.2811 1.24782 2.40439 1.16983 2.54192 1.15877C2.67945 1.14771 2.81362 1.20501 2.90073 1.31201C4.44999 3.21489 6.38141 4.78693 8.5779 5.90889C8.78415 6.01424 8.86595 6.26685 8.76059 6.4731C8.65524 6.67936 8.40263 6.76115 8.19638 6.6558C6.08485 5.57724 4.2082 4.10236 2.66041 2.32809C2.31871 3.08139 2.12585 3.90899 2.12585 4.78581C2.12585 6.83834 3.18301 8.65926 4.75957 9.71332C4.91433 9.81679 4.98235 10.0099 4.9266 10.1875C4.87085 10.3651 4.70467 10.4847 4.51854 10.4812C3.67841 10.4653 2.85436 10.2747 2.10875 9.96244C2.37605 12.5651 4.32656 14.6651 6.8286 15.1769C7.01876 15.2158 7.15737 15.3801 7.16369 15.5741C7.17001 15.7681 7.04238 15.9411 6.85515 15.9922C6.29718 16.1448 5.69617 16.2161 5.08004 16.2161C4.89966 16.2161 4.7146 16.2118 4.52823 16.1993C5.45722 18.2176 7.47103 19.6409 9.81943 19.6917C9.99666 19.6955 10.1523 19.8104 10.2083 19.9786C10.2642 20.1468 10.2084 20.332 10.0687 20.4413C7.8845 22.1499 5.12349 23.1936 2.13162 23.2367C4.53781 24.4725 7.26045 25.1613 10.1588 25.1613C21.5616 25.1613 27.8091 15.7229 27.8091 7.51484C27.8091 7.24373 27.7997 6.98034 27.7864 6.71529C27.7792 6.57211 27.8456 6.43517 27.9625 6.35221C28.7941 5.76206 29.536 5.07059 30.1898 4.2935C29.4114 4.53736 28.6068 4.71183 27.7819 4.81665C27.585 4.84169 27.3974 4.72515 27.3327 4.53746C27.2679 4.34977 27.3436 4.14237 27.5141 4.04059C28.4165 3.50181 29.161 2.73815 29.6676 1.82203C28.6955 2.28265 27.6604 2.62348 26.5783 2.83962C26.4363 2.86799 26.2896 2.82105 26.1905 2.71547C25.1017 1.55611 23.5504 0.83871 21.8588 0.83871C18.5768 0.83871 15.9336 3.50261 15.9336 6.76968C15.9336 7.24985 15.9743 7.70148 16.0703 8.12463C16.0993 8.25249 16.0668 8.38657 15.9826 8.487C15.8983 8.58743 15.7719 8.64266 15.6409 8.63628C14.625 8.58673 13.6308 8.45487 12.6647 8.24711C12.4383 8.19841 12.2942 7.97538 12.3429 7.74896C12.3916 7.52253 12.6146 7.37845 12.841 7.42715C13.5955 7.58939 14.3681 7.70318 15.1558 7.76508C15.1131 7.4388 15.0949 7.10632 15.0949 6.76968ZM9.76683 6.92013C9.84923 6.70368 10.0915 6.595 10.3079 6.6774C10.7314 6.83859 11.1627 6.98385 11.6011 7.11244C11.8233 7.17762 11.9506 7.41063 11.8855 7.63287C11.8203 7.85511 11.5873 7.98243 11.365 7.91724C10.9055 7.78245 10.4534 7.6302 10.0096 7.46124C9.79311 7.37884 9.68444 7.13658 9.76683 6.92013Z" fill="#848484"/>
</svg>
