<svg width="49" height="40" viewBox="0 0 49 40" fill="none" xmlns="http://www.w3.org/2000/svg">
<path fill-rule="evenodd" clip-rule="evenodd" d="M23.2229 10.4149C23.2229 4.67985 27.8632 0 33.6288 0C36.4706 0 39.085 1.15275 40.9785 3.03201C43.0021 2.59098 44.9005 1.84662 46.6265 0.817567C46.8566 0.680353 47.1476 0.699671 47.3576 0.866103C47.5676 1.03254 47.6529 1.31144 47.5718 1.56683C47.0783 3.12221 46.2312 4.50787 45.1249 5.64171C46.1235 5.3825 47.0932 5.04735 48.0287 4.63697C48.2915 4.52171 48.5988 4.59384 48.7829 4.81397C48.9669 5.0341 48.9835 5.34933 48.8235 5.58752C47.5211 7.52647 45.934 9.22927 44.053 10.6172C44.0655 10.9249 44.0735 11.2384 44.0735 11.5613C44.0735 24.744 34.0324 40 15.6288 40C9.97309 40 4.72449 38.37 0.295578 35.5139C0.0422833 35.3506 -0.0641673 35.0336 0.0391776 34.7505C0.142522 34.4674 0.428122 34.2935 0.727081 34.3318C1.46101 34.4256 2.20075 34.4605 2.9827 34.4605C6.80033 34.4605 10.3656 33.3297 13.3374 31.4007C9.5683 30.6768 6.52449 27.9168 5.35314 24.3366C5.2811 24.1164 5.33265 23.8745 5.48819 23.7028C5.64374 23.5311 5.8794 23.456 6.1056 23.506C6.5535 23.6051 7.03869 23.6453 7.54604 23.6551C4.20803 21.9193 1.90577 18.4261 1.90577 14.3841V14.2769C1.90577 14.0488 2.02624 13.8376 2.22262 13.7215C2.419 13.6055 2.66208 13.6017 2.86195 13.7117C3.47214 14.0474 4.13642 14.3212 4.82996 14.5145C3.07254 12.6535 1.98021 10.1292 1.98021 7.36278C1.98021 5.44048 2.50822 3.65674 3.40339 2.10363C3.50938 1.91973 3.69906 1.79973 3.91065 1.78272C4.12223 1.76571 4.32864 1.85386 4.46266 2.01847C6.84613 4.94598 9.81755 7.36451 13.1968 9.0906C13.5141 9.25268 13.6399 9.64131 13.4778 9.95862C13.3158 10.2759 12.9271 10.4018 12.6098 10.2397C9.3613 8.58037 6.47416 6.31132 4.09293 3.58168C3.56724 4.7406 3.27054 6.01384 3.27054 7.36278C3.27054 10.5205 4.89694 13.3219 7.32242 14.9436C7.56051 15.1028 7.66516 15.3998 7.57939 15.6731C7.49361 15.9464 7.23795 16.1304 6.9516 16.1249C5.65909 16.1004 4.39132 15.8073 3.24424 15.3268C3.65546 19.3309 6.65624 22.5617 10.5055 23.3491C10.7981 23.4089 11.0113 23.6617 11.0211 23.9601C11.0308 24.2586 10.8344 24.5247 10.5464 24.6035C9.68797 24.8382 8.76333 24.9479 7.81545 24.9479C7.53793 24.9479 7.25324 24.9412 6.9665 24.9219C8.39572 28.0271 11.4939 30.2168 15.1068 30.2949C15.3795 30.3008 15.619 30.4775 15.7051 30.7363C15.7911 30.9951 15.7052 31.2801 15.4904 31.4481C12.13 34.0768 7.8823 35.6824 3.27942 35.7487C6.98125 37.65 11.1699 38.7097 15.6288 38.7097C33.1717 38.7097 42.7832 24.189 42.7832 11.5613C42.7832 11.1442 42.7688 10.739 42.7483 10.3312C42.7372 10.1109 42.8394 9.90027 43.0192 9.77263C44.2986 8.86471 45.44 7.80091 46.4459 6.60538C45.2484 6.98056 44.0104 7.24897 42.7414 7.41024C42.4384 7.44875 42.1499 7.26946 42.0503 6.9807C41.9506 6.69195 42.0671 6.37288 42.3294 6.21628C43.7177 5.3874 44.863 4.21254 45.6424 2.80313C44.1469 3.51177 42.5545 4.03613 40.8897 4.36865C40.6712 4.41229 40.4456 4.34008 40.2931 4.17765C38.618 2.39402 36.2313 1.29032 33.6288 1.29032C28.5796 1.29032 24.5132 5.38863 24.5132 10.4149C24.5132 11.1536 24.5758 11.8484 24.7235 12.4994C24.7682 12.6961 24.7182 12.9024 24.5885 13.0569C24.4589 13.2114 24.2644 13.2964 24.0629 13.2866C22.4999 13.2103 20.9704 13.0075 19.4842 12.6879C19.1358 12.6129 18.9142 12.2698 18.9891 11.9215C19.064 11.5731 19.4071 11.3515 19.7555 11.4264C20.9161 11.676 22.1048 11.851 23.3166 11.9463C23.2509 11.4443 23.2229 10.9328 23.2229 10.4149ZM15.0259 10.6464C15.1527 10.3134 15.5254 10.1462 15.8584 10.2729C16.5098 10.5209 17.1734 10.7444 17.8478 10.9422C18.1897 11.0425 18.3856 11.401 18.2853 11.7429C18.185 12.0848 17.8266 12.2807 17.4847 12.1804C16.7777 11.973 16.0822 11.7388 15.3993 11.4788C15.0663 11.3521 14.8991 10.9794 15.0259 10.6464Z" fill="#FF9404"/>
</svg>
